<svg width="575" height="575" viewBox="0 0 575 575" fill="none" xmlns="http://www.w3.org/2000/svg">
<path fill-rule="evenodd" clip-rule="evenodd" d="M491 294.663C490.997 122.831 372.736 129.782 301.633 158.827C299.399 140.102 304.363 121.223 315.525 106.014C320.015 101.312 325.247 97.3804 331.011 94.3741C335.436 90.4853 338.204 85.0498 338.748 79.1843C339.292 73.3187 337.57 67.4678 333.936 62.8317C330.302 58.1956 325.031 55.1268 319.205 54.2544C313.38 53.382 307.44 54.772 302.608 58.1401C290.193 67.3108 281.405 79.2527 275.788 92.5874C275.744 92.5281 275.701 92.4689 275.657 92.4098C267.805 81.8168 256.807 73.9778 244.232 70.0116C232.671 66.4894 189.645 77.453 190.483 89.5088C191.905 109.937 199.724 128.415 221.585 133.97C243.203 139.462 258.029 139.955 268.083 138.496C268.37 145.081 269.192 151.649 270.509 158.078C199.224 129.675 83.0026 124.32 83 294.663C82.9976 449.026 166.838 520.154 225.256 520.154C236.549 520.154 249.847 514.322 261.85 509.058C271.722 504.728 280.717 500.783 287 500.783C293.283 500.783 302.278 504.728 312.15 509.058C324.153 514.322 337.451 520.154 348.744 520.154C407.162 520.154 491.002 449.026 491 294.663Z" fill="#24B74F"/>
<path fill-rule="evenodd" clip-rule="evenodd" d="M155.119 149.806C114.688 164.677 83.0014 205.719 83 294.663C82.9976 449.026 166.838 520.154 225.256 520.154C236.549 520.154 249.847 514.322 261.85 509.058C271.722 504.728 280.717 500.783 287 500.783C293.283 500.783 302.278 504.728 312.15 509.058C324.153 514.322 337.451 520.154 348.744 520.154C407.162 520.154 491.002 449.026 491 294.663C490.998 162.206 420.725 135.984 355.95 144.226C345.083 145.609 334.37 147.962 324.17 150.946C318.408 152.632 312.81 154.519 307.44 156.546C305.472 157.289 303.536 158.05 301.633 158.827C301.354 156.487 301.187 154.144 301.131 151.806C301.011 146.825 301.393 141.867 302.257 137.005C304.053 126.9 307.934 117.206 313.729 108.572C313.867 108.366 314.006 108.161 314.147 107.957C314.595 107.303 315.055 106.655 315.525 106.014C317.1 104.365 318.765 102.811 320.513 101.359C323.085 99.2216 325.834 97.3038 328.733 95.6268C329.099 95.415 329.467 95.207 329.838 95.0029C330.227 94.7891 330.618 94.5795 331.011 94.3743C331.342 94.0836 331.663 93.7844 331.975 93.4769C335.837 89.6706 338.245 84.6116 338.748 79.1845C339.292 73.3189 337.57 67.468 333.936 62.8319M314.114 54.0612C315.801 53.9382 317.508 54.0004 319.205 54.2546C325.031 55.127 330.302 58.1958 333.936 62.8319M314.114 54.0612C312.826 54.155 311.551 54.3568 310.3 54.6633C307.568 55.333 304.957 56.5029 302.608 58.1403C301.91 58.6559 301.223 59.1803 300.548 59.7132C295.042 64.0591 290.293 68.9714 286.257 74.3172C285.78 74.9483 285.314 75.5855 284.857 76.2284C284.787 76.3269 284.718 76.4255 284.648 76.5242C283.588 78.031 282.582 79.5693 281.628 81.1365C281.445 81.4381 281.264 81.7406 281.084 82.0443C279.152 85.3121 277.446 88.7012 275.958 92.1869C275.901 92.3203 275.844 92.4538 275.788 92.5875C275.744 92.5283 275.701 92.4691 275.657 92.41C273.384 89.3437 270.847 86.5081 268.085 83.9304C267.523 83.4053 266.951 82.8909 266.37 82.3874C259.949 76.8243 252.425 72.596 244.232 70.0117C240.621 68.9115 233.939 69.2248 226.484 70.5432C210.445 73.3795 190.822 80.8678 190.476 88.944C190.468 89.132 190.47 89.3204 190.483 89.509C191.905 109.937 199.724 128.415 221.585 133.97C229.295 135.929 236.142 137.252 242.216 138.077C244.086 138.331 245.883 138.538 247.609 138.702C249.767 138.907 251.815 139.044 253.757 139.122C259.366 139.346 264.099 139.074 268.083 138.496C268.37 145.081 269.192 151.649 270.509 158.078C264.679 155.755 258.549 153.586 252.206 151.655C250.522 151.142 248.822 150.646 247.109 150.168C238.016 147.632 228.547 145.612 218.949 144.343C217.398 144.138 215.843 143.952 214.287 143.787C194.203 141.659 173.734 142.958 155.119 149.806M137.114 98.8893C134.266 99.9248 131.429 101.05 128.606 102.27C63.5406 130.382 29.0015 197.244 29 294.662C28.9974 464.321 124.315 574.154 225.256 574.154C239.458 574.154 252.053 570.63 260.638 567.717C269.117 564.84 277.277 561.259 282.867 558.806L283.539 558.511C284.808 557.954 285.946 557.456 287 556.998C288.054 557.456 289.192 557.954 290.461 558.511L291.133 558.806C296.723 561.259 304.883 564.84 313.362 567.717C321.947 570.63 334.542 574.154 348.744 574.154C449.685 574.154 545.003 464.321 545 294.662C544.999 196.311 509.763 129.228 443.846 101.611C426.782 94.4618 409.202 90.7079 391.852 89.3924C392.133 87.6649 392.355 85.9233 392.517 84.1702C394.335 64.5675 388.581 45.0121 376.435 29.5173C364.288 14.022 346.672 3.7656 327.203 0.850059C307.736 -2.0651 287.887 2.5789 271.732 13.8377L271.121 14.2635L270.522 14.7058C268.321 16.3319 266.191 18.0086 264.13 19.7321C262.92 19.306 261.701 18.8994 260.475 18.5126L260.223 18.4331L259.97 18.356C245.267 13.8766 230.46 15.4869 223.999 16.3118C214.984 17.4628 205.413 19.6029 196.495 22.41C188.089 25.0559 177.278 29.2184 167.43 35.633C162.56 38.8049 155.525 44.0606 149.362 52.0305C143.023 60.2269 135.308 74.4889 136.614 93.2577C136.741 95.0793 136.905 96.9596 137.114 98.8893Z" fill="white"/>
<mask id="path-3-outside-1_73_1836" maskUnits="userSpaceOnUse" x="47" y="17" width="480" height="540" fill="black">
<rect fill="white" x="47" y="17" width="480" height="540"/>
<path fill-rule="evenodd" clip-rule="evenodd" d="M491 294.663C490.997 122.831 372.736 129.782 301.633 158.827C299.399 140.102 304.363 121.223 315.525 106.014C320.015 101.312 325.247 97.3804 331.011 94.3741C335.436 90.4853 338.204 85.0498 338.748 79.1843C339.292 73.3187 337.57 67.4678 333.936 62.8317C330.302 58.1956 325.031 55.1268 319.205 54.2544C313.38 53.382 307.44 54.772 302.608 58.1401C290.193 67.3108 281.405 79.2527 275.788 92.5874C275.744 92.5281 275.701 92.4689 275.657 92.4098C267.805 81.8168 256.807 73.9778 244.232 70.0116C232.671 66.4894 189.645 77.453 190.483 89.5088C191.905 109.937 199.724 128.415 221.585 133.97C243.203 139.462 258.029 139.955 268.083 138.496C268.37 145.081 269.192 151.649 270.509 158.078C199.224 129.675 83.0026 124.32 83 294.663C82.9976 449.026 166.838 520.154 225.256 520.154C236.549 520.154 249.847 514.322 261.85 509.058C271.722 504.728 280.717 500.783 287 500.783C293.283 500.783 302.278 504.728 312.15 509.058C324.153 514.322 337.451 520.154 348.744 520.154C407.162 520.154 491.002 449.026 491 294.663Z"/>
</mask>
<path fill-rule="evenodd" clip-rule="evenodd" d="M491 294.663C490.997 122.831 372.736 129.782 301.633 158.827C299.399 140.102 304.363 121.223 315.525 106.014C320.015 101.312 325.247 97.3804 331.011 94.3741C335.436 90.4853 338.204 85.0498 338.748 79.1843C339.292 73.3187 337.57 67.4678 333.936 62.8317C330.302 58.1956 325.031 55.1268 319.205 54.2544C313.38 53.382 307.44 54.772 302.608 58.1401C290.193 67.3108 281.405 79.2527 275.788 92.5874C275.744 92.5281 275.701 92.4689 275.657 92.4098C267.805 81.8168 256.807 73.9778 244.232 70.0116C232.671 66.4894 189.645 77.453 190.483 89.5088C191.905 109.937 199.724 128.415 221.585 133.97C243.203 139.462 258.029 139.955 268.083 138.496C268.37 145.081 269.192 151.649 270.509 158.078C199.224 129.675 83.0026 124.32 83 294.663C82.9976 449.026 166.838 520.154 225.256 520.154C236.549 520.154 249.847 514.322 261.85 509.058C271.722 504.728 280.717 500.783 287 500.783C293.283 500.783 302.278 504.728 312.15 509.058C324.153 514.322 337.451 520.154 348.744 520.154C407.162 520.154 491.002 449.026 491 294.663Z" fill="#24B74F"/>
<path d="M301.633 158.827L265.886 163.091L271.486 210.03L315.247 192.154L301.633 158.827ZM491 294.663L455 294.663L455 294.663L491 294.663ZM315.525 106.014L289.491 81.1494L287.882 82.8348L286.503 84.7136L315.525 106.014ZM331.011 94.3741L347.659 126.294L351.512 124.284L354.777 121.415L331.011 94.3741ZM333.936 62.8317L305.603 85.0414L305.603 85.0414L333.936 62.8317ZM319.205 54.2544L313.874 89.8574L313.874 89.8574L319.205 54.2544ZM302.608 58.1401L282.024 28.6051L281.617 28.8889L281.217 29.1838L302.608 58.1401ZM275.788 92.5874L246.791 113.922L284.356 164.977L308.964 106.564L275.788 92.5874ZM275.657 92.4098L304.58 70.975L304.578 70.9729L275.657 92.4098ZM244.232 70.0116L255.06 35.6788L254.892 35.6258L254.724 35.5744L244.232 70.0116ZM190.483 89.5088L154.57 92.008L154.57 92.008L190.483 89.5088ZM221.585 133.97L212.719 168.861L212.719 168.861L221.585 133.97ZM268.083 138.496L304.048 136.926L302.312 97.1523L262.913 102.869L268.083 138.496ZM270.509 158.078L257.184 191.521L319.165 216.217L305.777 150.854L270.509 158.078ZM83 294.663L47 294.662L83 294.663ZM261.85 509.058L247.391 476.089L247.391 476.089L261.85 509.058ZM312.15 509.058L326.609 476.089L326.609 476.089L312.15 509.058ZM315.247 192.154C347.437 179.004 383.668 173.978 409.068 184.62C429.212 193.059 454.999 217.038 455 294.663L527 294.662C526.999 200.456 493.653 141.994 436.89 118.212C385.384 96.6331 326.932 109.605 288.019 125.501L315.247 192.154ZM286.503 84.7136C269.937 107.284 262.571 135.302 265.886 163.091L337.38 154.563C336.227 144.903 338.788 135.162 344.548 127.314L286.503 84.7136ZM314.364 62.4545C305.107 67.2824 296.704 73.5976 289.491 81.1494L341.559 130.878C343.327 129.027 345.387 127.478 347.659 126.294L314.364 62.4545ZM302.902 75.8604C303.207 72.5695 304.76 69.5182 307.245 67.3336L354.777 121.415C366.112 111.452 373.201 97.5302 374.594 82.5081L302.902 75.8604ZM305.603 85.0414C303.563 82.4384 302.596 79.153 302.902 75.8604L374.594 82.5081C375.987 67.4844 371.577 52.4972 362.268 40.622L305.603 85.0414ZM313.874 89.8574C310.604 89.3677 307.644 87.6448 305.603 85.0414L362.268 40.6221C352.959 28.7464 339.458 20.8859 324.537 18.6514L313.874 89.8574ZM323.191 87.6751C320.476 89.5675 317.142 90.3468 313.874 89.8574L324.537 18.6514C309.617 16.4171 294.405 19.9765 282.024 28.6051L323.191 87.6751ZM308.964 106.564C312.307 98.6288 317.256 92.0767 323.998 87.0964L281.217 29.1838C263.13 42.5449 250.504 59.8765 242.612 78.6108L308.964 106.564ZM304.785 71.2523C304.714 71.1566 304.646 71.064 304.58 70.975L246.734 113.845C246.755 113.874 246.774 113.9 246.791 113.922L304.785 71.2523ZM304.578 70.9729C292.206 54.2809 274.875 41.9284 255.06 35.6788L233.403 104.344C238.738 106.027 243.404 109.353 246.735 113.847L304.578 70.9729ZM254.724 35.5744C243.959 32.2946 232.468 33.3764 226.279 34.1667C218.387 35.1743 209.861 37.0734 201.899 39.5794C194.279 41.9779 185.185 45.5498 177.254 50.7155C173.325 53.2748 168.082 57.2465 163.6 63.042C159.002 68.9885 153.665 78.9931 154.57 92.008L226.397 87.0097C227.093 97.0106 222.917 104.035 220.556 107.089C219.34 108.66 218.257 109.672 217.648 110.197C217.02 110.738 216.61 111.007 216.55 111.047C216.485 111.089 217.048 110.729 218.453 110.116C219.789 109.534 221.501 108.892 223.516 108.258C227.652 106.956 231.997 106.021 235.398 105.587C237.09 105.371 238.066 105.341 238.352 105.343C239.073 105.347 237.068 105.463 233.74 104.449L254.724 35.5744ZM154.57 92.008C155.512 105.546 158.721 121.648 167.751 136.251C177.415 151.88 192.545 163.735 212.719 168.861L230.45 99.0782C229.201 98.7609 228.935 98.4793 229.111 98.6094C229.276 98.731 229.23 98.7741 228.988 98.3828C228.288 97.2509 226.876 93.9005 226.397 87.0097L154.57 92.008ZM212.719 168.861C237.43 175.139 257.203 176.452 273.252 174.123L262.913 102.869C258.855 103.458 248.976 103.785 230.45 99.0782L212.719 168.861ZM305.777 150.854C304.834 146.251 304.251 141.573 304.048 136.926L232.117 140.066C232.489 148.589 233.551 157.047 235.241 165.302L305.777 150.854ZM119 294.663C119.001 217.656 144.402 193.486 164.302 184.888C189.232 174.117 224.921 178.666 257.184 191.521L283.834 124.635C244.813 109.087 186.748 96.7566 135.745 118.793C79.7128 143.002 47.0014 201.327 47 294.662L119 294.663ZM225.256 484.154C195.187 484.154 118.998 438.83 119 294.663L47 294.662C46.9975 459.223 138.489 556.154 225.256 556.154V484.154ZM247.391 476.089C241.119 478.84 236.23 480.959 231.72 482.489C227.049 484.074 225.199 484.154 225.256 484.154V556.154C236.606 556.154 247.052 553.319 254.854 550.671C262.817 547.969 270.578 544.54 276.309 542.026L247.391 476.089ZM287 464.783C277.415 464.783 268.778 467.563 263.641 469.402C257.956 471.436 252.014 474.062 247.391 476.089L276.309 542.026C281.558 539.724 285.049 538.212 287.901 537.192C289.223 536.718 289.855 536.557 289.963 536.531C290.149 536.488 289.024 536.783 287 536.783V464.783ZM326.609 476.089C321.986 474.062 316.044 471.436 310.359 469.402C305.222 467.563 296.585 464.783 287 464.783V536.783C284.976 536.783 283.851 536.488 284.037 536.531C284.145 536.557 284.777 536.718 286.099 537.192C288.951 538.212 292.442 539.724 297.691 542.026L326.609 476.089ZM348.744 484.154C348.801 484.154 346.951 484.074 342.28 482.489C337.77 480.959 332.881 478.84 326.609 476.089L297.691 542.026C303.422 544.54 311.183 547.969 319.146 550.671C326.948 553.319 337.394 556.154 348.744 556.154V484.154ZM455 294.663C455.002 438.83 378.813 484.154 348.744 484.154V556.154C435.511 556.154 527.003 459.223 527 294.662L455 294.663Z" fill="#1E1C35" mask="url(#path-3-outside-1_73_1836)"/>
<path d="M287 500.783C273.078 500.783 245.837 520.154 225.256 520.154C166.838 520.154 82.9976 449.026 83 294.662C83.0028 110.396 218.999 131.723 287 165.421C355.001 131.723 490.997 110.396 491 294.662C491.002 449.026 407.162 520.154 348.744 520.154C328.163 520.154 300.922 500.783 287 500.783Z" fill="#EF4723"/>
<path d="M286.999 476.173C275.102 476.173 251.821 492.739 234.233 492.739C184.308 492.739 112.658 431.914 112.66 299.91C112.663 142.336 228.886 160.574 286.999 189.39C345.113 160.574 461.336 142.336 461.339 299.91C461.341 431.914 389.691 492.739 339.766 492.739C322.177 492.739 298.897 476.173 286.999 476.173Z" fill="#F8E4CB"/>
<path d="M286.984 394.153C281.82 394.153 271.715 401.333 264.081 401.333C242.413 401.333 211.315 374.971 211.315 317.762C211.316 270.587 235.387 259.771 258.588 261.71C277.244 263.268 296.723 263.268 315.379 261.71C338.58 259.771 362.651 270.587 362.652 317.762C362.652 374.971 331.554 401.333 309.886 401.333C302.252 401.333 292.147 394.153 286.984 394.153Z" fill="#F6C896"/>
<g style="mix-blend-mode:multiply">
<path d="M232.721 318.39C225.686 325.424 225.67 336.812 232.683 343.826C239.697 350.839 251.085 350.823 258.119 343.789C265.153 336.755 274.267 316.27 267.253 309.256C260.24 302.242 239.755 311.356 232.721 318.39Z" fill="#F6C896"/>
</g>
<g style="mix-blend-mode:multiply">
<path d="M318.817 343.788C325.851 350.822 337.239 350.839 344.252 343.825C351.266 336.812 351.249 325.424 344.215 318.39C337.181 311.356 316.696 302.242 309.683 309.256C302.669 316.269 311.783 336.754 318.817 343.788Z" fill="#F6C896"/>
</g>
<g style="mix-blend-mode:multiply">
<path d="M268.983 357.504C268.983 367.474 277.042 375.557 286.983 375.557C296.925 375.557 304.983 367.474 304.983 357.504C304.983 347.534 296.925 326.557 286.983 326.557C277.042 326.557 268.983 347.534 268.983 357.504Z" fill="#F6C896"/>
</g>
<path d="M285.883 131.368C287.41 129.979 287.946 127.921 287.821 125.861C287.087 113.794 282.867 102.173 275.641 92.4245C267.79 81.8315 256.791 73.9924 244.216 70.0262V70.0262C232.656 66.5041 189.629 77.4677 190.468 89.5235C191.89 109.952 199.708 128.43 221.569 133.984C264.684 144.939 280.785 136.005 285.883 131.368Z" fill="#08A034"/>
<path d="M272.298 165.679C262.021 127.691 269.135 82.8505 302.591 58.1363C307.424 54.7682 313.363 53.3782 319.189 54.2506C325.014 55.123 330.285 58.1919 333.919 62.8279C337.553 67.464 339.275 73.315 338.731 79.1805C338.187 85.0461 335.419 90.4815 330.995 94.3704C325.23 97.3766 319.999 101.309 315.509 106.01C304.28 121.309 299.324 140.321 301.657 159.155L291.718 170.416C290.344 171.934 288.585 173.051 286.627 173.652C284.67 174.253 282.587 174.314 280.598 173.829C278.609 173.344 276.787 172.329 275.326 170.894C273.865 169.46 272.819 167.659 272.298 165.679Z" fill="#24B74F"/>
</svg>
