<svg width="575" height="575" viewBox="0 0 575 575" fill="none" xmlns="http://www.w3.org/2000/svg">
<g clip-path="url(#clip0_73_1897)">
<path d="M519.706 494.896C532.389 493.987 542.719 484.351 544.507 471.761C547.202 452.783 547.1 440.522 542.342 422.221C539.131 409.875 527.718 401.46 514.974 402.044C503.619 402.564 497.528 401.996 481.575 396.712L481.556 396.705C481.339 396.622 481.068 396.52 480.748 396.399C479.868 396.067 478.61 395.596 477.067 395.027C473.99 393.891 469.734 392.349 465.036 390.729C456.421 387.758 443.789 383.622 434.815 382.129C432.121 381.681 428.104 381.445 422.967 381.143C403.254 379.984 367.042 377.857 325.782 359.047C276.889 336.757 223.945 290.948 206.817 190.679C204.542 177.364 199.07 166.32 195.699 159.516C195.227 158.563 194.797 157.694 194.422 156.913C191.321 150.456 190.776 148.064 190.843 146.071C192.208 137.424 193.17 132.35 194.749 127.48C196.252 122.842 198.608 117.542 203.513 109.551L219.712 86.6406C224.18 80.322 225.722 72.3902 223.946 64.8581L221.918 56.2526C219.653 46.6463 212.328 39.041 202.813 36.4182L175.272 28.8264C165.623 26.1667 155.295 29.0626 148.435 36.3509C144.45 40.5854 142.399 42.4374 141.108 43.434C140.224 44.1168 139.519 44.5506 137.884 45.2381C131.257 48.0234 126.015 53.3359 123.318 59.9988C121.165 65.3197 120.777 71.1509 122.146 76.6506C120.49 82.0568 119.013 85.879 117.435 89.0831C115.634 92.7374 113.38 96.2346 109.658 100.67C109.176 100.991 108.65 101.343 108.085 101.723C105.256 103.622 101.408 106.238 97.3975 109.062C93.4395 111.85 89.076 115.013 85.3135 117.974C83.4433 119.446 81.4785 121.058 79.6867 122.682C78.281 123.957 75.5053 126.538 73.1857 129.851C1.75008 231.9 40.8195 360.452 122.642 445.012C205.42 530.557 339.507 580.426 473.869 523.493C485.045 518.757 492.64 511.906 497.542 505.641C498.989 503.792 500.186 502.016 501.169 500.386C504.377 497.771 506.17 496.993 507.22 496.618C509.178 495.92 511.75 495.466 519.706 494.896Z" fill="#F9DE32" stroke="white" stroke-width="54" stroke-linejoin="round"/>
<path d="M519.062 485.919C527.518 485.313 534.405 478.889 535.596 470.496C538.16 452.442 538.032 441.411 533.631 424.486C531.491 416.255 523.882 410.645 515.386 411.034C502.735 411.614 495.54 410.829 478.558 405.193C478.325 405.105 477.993 404.979 477.572 404.82C476.709 404.495 475.472 404.031 473.952 403.47C470.917 402.35 466.723 400.83 462.102 399.237C453.38 396.229 441.448 392.357 433.337 391.007C431.272 390.663 427.884 390.472 423.382 390.218C404.317 389.143 365.271 386.94 322.049 367.236C270.702 343.827 215.621 295.67 197.945 192.194C195.911 180.287 191.075 170.49 187.678 163.607C187.188 162.613 186.727 161.68 186.309 160.81C182.87 153.649 181.585 149.635 181.882 145.125C183.284 136.197 184.342 130.398 186.187 124.706C187.979 119.175 190.719 113.16 195.998 104.591L212.364 81.4447C215.342 77.2323 216.37 71.9444 215.186 66.923L213.158 58.3175C211.648 51.9133 206.764 46.8431 200.421 45.0946L172.88 37.5028C166.448 35.7297 159.562 37.6603 154.989 42.5192C147.222 50.7719 144.943 52.0336 141.371 53.535C136.954 55.3918 133.459 58.9335 131.661 63.3754C129.944 67.6181 129.91 72.3475 131.551 76.6031C129.493 83.6866 127.635 88.7433 125.508 93.0606C123.181 97.7834 120.277 102.135 115.697 107.461C114.981 107.937 114.103 108.522 113.102 109.194C110.308 111.07 106.518 113.647 102.579 116.421C98.6752 119.17 94.4598 122.228 90.8798 125.046C89.0971 126.449 87.3101 127.919 85.7314 129.35C84.4101 130.548 82.2686 132.57 80.5587 135.013C12.5506 232.165 48.9529 355.915 129.11 438.753C209.904 522.249 340.156 570.376 470.358 515.206C479.966 511.135 486.377 505.305 490.455 500.095C492.045 498.063 493.261 496.151 494.177 494.505C498.716 490.595 501.743 489.016 504.197 488.141C507.456 486.979 511.179 486.484 519.062 485.919Z" fill="#F9DE32" stroke="#1E1C35" stroke-width="36" stroke-linejoin="round"/>
<path d="M144.059 142.153C142.285 142.193 140.88 143.663 140.92 145.437C143.069 240.233 155.668 314.401 202.604 365.2C249.342 415.783 314.126 440.479 386.497 449.541C388.257 449.761 389.863 448.513 390.083 446.753C390.303 444.992 389.055 443.387 387.295 443.166C316.655 434.321 254.812 406.655 210.104 358.27C169.693 314.533 162.441 258.695 156.322 176.727C156.035 172.885 154.937 167.547 153.862 162.322C153.745 161.752 153.628 161.184 153.513 160.619C152.293 154.658 151.216 149.044 151.129 145.205C151.089 143.432 149.619 142.027 147.845 142.067L144.059 142.153Z" fill="#F4C419" stroke="#F4C419" stroke-width="6.42437" stroke-linejoin="round"/>
<path fill-rule="evenodd" clip-rule="evenodd" d="M127.752 120.99C129.513 124.626 130.402 128.01 130.522 135.055C138.127 141.072 141.938 144.862 146.364 153.822C153.137 147.142 156.957 144.074 163.842 142.485L164.111 142.149C166.941 124.147 169.125 113.742 180.963 94.6453L197.651 71.0439L195.622 62.4384L168.081 54.8466C159.539 63.9225 155.227 67.2208 148.33 70.1197L150.562 75.3439C144.871 96.6727 140.158 107.038 127.752 120.99Z" fill="#24B74F"/>
<path fill-rule="evenodd" clip-rule="evenodd" d="M148.337 70.1222L150.569 75.3465L162.41 95.7396L180.62 95.2069C180.735 95.0212 180.85 94.8346 180.966 94.6472L197.654 71.0459L195.625 62.4403L168.084 54.8486C159.542 63.9245 155.23 67.2227 148.333 70.1216L148.334 70.1222L148.337 70.1222Z" fill="#823B13"/>
<path fill-rule="evenodd" clip-rule="evenodd" d="M499.756 470.654C493.316 472.647 487.241 476.28 479.517 483.485C479.517 483.485 476.281 493.148 463.337 498.633C303.867 566.205 143.19 468.934 85.384 344.662C95.4764 352.14 104.268 358.357 108.852 360.443C112.857 362.265 110.381 348.539 106.803 328.705C100.789 295.371 91.6633 244.784 104.96 221.754C110.581 212.017 110.721 216.351 111.158 229.866C112.369 267.344 115.86 375.421 244.824 449.879C348.597 509.792 415.804 490.779 460.738 478.068C476.182 473.699 488.994 470.074 499.756 470.654Z" fill="#F4C419"/>
<path fill-rule="evenodd" clip-rule="evenodd" d="M517.646 468.33C519.947 452.126 519.766 443.553 516.081 429.381C501.837 430.033 492.681 429.008 476.057 423.715L476.024 423.746C478.843 425.455 479.074 429.709 479.358 434.942C479.659 440.495 480.02 447.153 483.598 453.046C490.04 463.658 485.26 477.801 480.492 482.832C494.004 470.577 502.573 469.411 517.646 468.33ZM479.482 483.76C479.446 483.788 479.41 483.816 479.374 483.843L479.382 483.861C479.384 483.854 479.386 483.85 479.386 483.85C479.418 483.82 479.45 483.79 479.482 483.76Z" fill="#24B74F"/>
</g>
<defs>
<clipPath id="clip0_73_1897">
<rect width="575" height="575" fill="white"/>
</clipPath>
</defs>
</svg>
