<svg width="575" height="575" viewBox="0 0 575 575" fill="none" xmlns="http://www.w3.org/2000/svg">
<g clip-path="url(#clip0_73_1902)">
<mask id="path-1-outside-1_73_1902" maskUnits="userSpaceOnUse" x="-68.2654" y="-85.6626" width="710.415" height="733.474" fill="black">
<rect fill="white" x="-68.2654" y="-85.6626" width="710.415" height="733.474"/>
<path fill-rule="evenodd" clip-rule="evenodd" d="M166.269 130.795L178.381 83.9446C209.879 83.9447 235.195 101.482 248.284 125.575C249.744 123.529 251.332 121.566 253.042 119.699C284.457 86.0765 265.589 56.6882 265.589 56.6882C265.589 56.6882 345.129 123.534 304.211 163.404C302.541 165.031 300.909 166.573 299.313 168.034C299.435 168.067 299.557 168.099 299.678 168.133C304.256 163.277 309.609 158.997 315.685 155.489C320.93 152.461 326.402 150.187 331.978 148.633C362.085 140.243 395.193 152.855 411.543 181.174C412.945 183.602 414.185 186.079 415.267 188.592C440.286 187.805 464.918 200.462 478.309 223.656C497.154 256.297 486.795 297.785 455.34 317.864C467.336 323.792 477.771 333.209 484.963 345.667C504.341 379.23 492.841 422.147 459.278 441.524C449.332 447.267 438.564 450.298 427.83 450.846C420.315 460.873 410.692 469.577 399.154 476.239C387.752 482.822 375.557 486.788 363.264 488.323C357.441 497.21 349.504 504.903 339.675 510.578C313.371 525.765 281.322 521.986 259.361 503.485C253.3 498.379 248.008 492.152 243.817 484.893C236.625 472.436 233.686 458.69 234.55 445.338C220.062 452.864 204.043 454.844 189.029 451.956C187.194 451.604 185.374 451.178 183.574 450.681C176.544 448.74 169.813 445.71 163.656 441.664C154.803 435.845 147.137 427.926 141.479 418.126C128.516 395.673 129.371 369.034 141.406 348.056C139.499 345.587 137.735 342.961 136.132 340.184C117.003 307.051 127.964 264.802 160.538 245.083C114.417 244.668 98.833 156.68 98.833 156.68C98.833 156.68 114.85 187.714 159.676 177.319C163.586 176.453 167.55 175.971 171.512 175.87C164.536 162.822 162.057 147.09 166.269 130.795Z"/>
</mask>
<path d="M178.381 83.9446L178.381 29.9446C153.763 29.9446 132.261 46.5947 126.1 70.429L178.381 83.9446ZM166.269 130.795L218.55 144.311L218.55 144.311L166.269 130.795ZM248.284 125.575L200.834 151.353C209.722 167.712 226.409 178.339 244.992 179.474C263.574 180.609 281.431 172.092 292.243 156.937L248.284 125.575ZM253.042 119.699L213.585 82.833C213.464 82.9618 213.345 83.0912 213.226 83.2212L253.042 119.699ZM265.589 56.6882L300.332 15.3484C279.895 -1.82657 249.976 -1.49125 229.929 16.1375C209.883 33.7662 205.726 63.3974 220.148 85.8615L265.589 56.6882ZM304.211 163.404L341.896 202.08L341.896 202.08L304.211 163.404ZM299.313 168.034L262.846 128.208C248.311 141.517 242.181 161.687 246.852 180.833C251.523 199.978 266.253 215.059 285.284 220.179L299.313 168.034ZM299.678 168.133L285.438 220.221C304.692 225.485 325.28 219.698 338.971 205.174L299.678 168.133ZM331.978 148.633L346.473 200.651L331.978 148.633ZM415.267 188.592L365.668 209.944C374.441 230.324 394.789 243.264 416.967 242.566L415.267 188.592ZM455.34 317.864L426.285 272.347C409.86 282.832 400.358 301.353 401.421 320.81C402.484 340.268 413.948 357.643 431.418 366.276L455.34 317.864ZM427.83 450.846L425.075 396.917C409.06 397.735 394.238 405.628 384.62 418.459L427.83 450.846ZM363.264 488.323L356.571 434.74C340.849 436.703 326.782 445.473 318.098 458.726L363.264 488.323ZM259.361 503.485L294.153 462.187L294.153 462.187L259.361 503.485ZM234.55 445.338L288.438 448.826C289.696 429.38 280.381 410.765 264.062 400.115C247.742 389.466 226.952 388.435 209.659 397.417L234.55 445.338ZM189.029 451.956L178.831 504.985L178.832 504.985L189.029 451.956ZM183.574 450.681L169.204 502.734L169.204 502.734L183.574 450.681ZM163.656 441.664L133.998 486.79L133.998 486.79L163.656 441.664ZM141.406 348.056L188.245 374.928C199.116 355.98 197.5 332.348 184.149 315.056L141.406 348.056ZM160.538 245.083L188.503 291.277C209.156 278.774 219 254.082 212.615 230.8C206.229 207.517 185.165 191.302 161.024 191.085L160.538 245.083ZM98.833 156.68L146.819 131.913C134.575 108.191 106.835 96.9756 81.5451 105.522C56.255 114.068 41.0048 139.812 45.6606 166.098L98.833 156.68ZM159.676 177.319L147.993 124.598C147.821 124.636 147.649 124.675 147.477 124.715L159.676 177.319ZM171.512 175.87L172.888 229.853C191.615 229.375 208.757 219.226 218.181 203.036C227.605 186.846 227.965 166.929 219.132 150.409L171.512 175.87ZM126.1 70.429L113.988 117.279L218.55 144.311L230.662 97.4603L126.1 70.429ZM295.734 99.7964C273.985 59.7643 231.274 29.9447 178.381 29.9446L178.381 137.945C188.485 137.945 196.405 143.199 200.834 151.353L295.734 99.7964ZM213.226 83.2212C210.026 86.7134 207.056 90.3851 204.325 94.2126L292.243 156.937C292.432 156.673 292.637 156.42 292.859 156.177L213.226 83.2212ZM265.589 56.6882C220.148 85.8615 220.13 85.8333 220.112 85.8051C220.106 85.7958 220.088 85.7676 220.076 85.7491C220.052 85.7119 220.029 85.675 220.006 85.6384C219.959 85.5651 219.914 85.493 219.869 85.4221C219.78 85.2802 219.695 85.1428 219.613 85.0098C219.45 84.7439 219.301 84.4948 219.165 84.2619C218.894 83.7971 218.67 83.3914 218.486 83.0394C218.123 82.3445 217.888 81.8132 217.73 81.4069C217.437 80.6543 217.271 79.9811 217.222 79.2701C216.998 75.9974 219.001 77.0359 213.585 82.833L292.5 156.565C318.498 128.74 326.774 98.2727 324.97 71.9002C324.132 59.6393 321.213 49.5176 318.363 42.204C316.927 38.5172 315.464 35.4273 314.191 32.9939C313.553 31.7726 312.955 30.7026 312.422 29.7909C312.156 29.3346 311.905 28.9164 311.672 28.5372C311.556 28.3475 311.444 28.1675 311.337 27.9971C311.283 27.9119 311.231 27.8291 311.18 27.7487C311.155 27.7085 311.129 27.6689 311.105 27.63C311.092 27.6105 311.074 27.5816 311.067 27.5719C311.049 27.5433 311.031 27.5148 265.589 56.6882ZM341.896 202.08C366.098 178.498 372.706 148.836 368.892 122.244C365.503 98.614 354.281 78.5113 344.882 64.7057C335 50.1908 323.909 38.0066 315.763 29.7739C311.589 25.5559 307.945 22.1318 305.264 19.6925C303.918 18.4684 302.801 17.4798 301.964 16.7505C301.546 16.3855 301.196 16.0843 300.922 15.8499C300.785 15.7327 300.667 15.632 300.569 15.5484C300.519 15.5065 300.475 15.4689 300.435 15.4356C300.415 15.4189 300.397 15.4033 300.38 15.3888C300.371 15.3815 300.359 15.3714 300.355 15.3678C300.343 15.358 300.332 15.3484 265.589 56.6882C230.847 98.0279 230.836 98.0188 230.826 98.01C230.823 98.0074 230.813 97.9989 230.806 97.9936C230.794 97.9832 230.783 97.9737 230.773 97.9651C230.752 97.948 230.737 97.9347 230.725 97.9252C230.703 97.9061 230.698 97.9019 230.71 97.9124C230.735 97.9334 230.827 98.0125 230.981 98.1468C231.29 98.416 231.842 98.9026 232.591 99.5842C234.099 100.956 236.35 103.066 238.994 105.738C244.482 111.285 250.719 118.304 255.607 125.484C258.008 129.01 259.709 132.033 260.805 134.444C261.927 136.916 262.035 137.919 261.986 137.575C261.911 137.055 261.692 134.719 262.7 131.452C263.776 127.963 265.56 125.669 266.526 124.728L341.896 202.08ZM335.781 207.86C337.802 206.009 339.84 204.083 341.896 202.08L266.526 124.728C265.243 125.978 264.016 127.136 262.846 128.208L335.781 207.86ZM285.284 220.179C285.337 220.194 285.388 220.208 285.438 220.221L313.918 116.044C313.725 115.991 313.533 115.939 313.343 115.888L285.284 220.179ZM338.971 205.174C339.985 204.099 341.207 203.108 342.685 202.254L288.685 108.723C278.011 114.886 268.527 122.455 260.385 131.092L338.971 205.174ZM342.685 202.254C343.966 201.515 345.233 200.997 346.473 200.651L317.482 96.6153C307.571 99.3772 297.893 103.407 288.685 108.723L342.685 202.254ZM346.473 200.651C353.424 198.714 361.047 201.711 364.778 208.174L458.309 154.174C429.34 103.999 370.747 81.7721 317.482 96.6153L346.473 200.651ZM364.778 208.174C365.123 208.772 365.418 209.362 365.668 209.944L464.867 167.241C462.953 162.795 460.767 158.432 458.309 154.174L364.778 208.174ZM416.967 242.566C422.889 242.379 428.494 245.375 431.543 250.656L525.074 196.656C501.341 155.55 457.683 133.23 413.568 134.619L416.967 242.566ZM431.543 250.656C435.879 258.166 433.499 267.742 426.285 272.347L484.396 363.381C540.092 327.828 558.428 254.427 525.074 196.656L431.543 250.656ZM431.418 366.276C434.149 367.625 436.502 369.729 438.198 372.667L531.729 318.667C519.04 296.69 500.523 279.958 479.263 269.452L431.418 366.276ZM438.198 372.667C442.664 380.402 440.014 390.293 432.278 394.759L486.278 488.29C545.669 454 566.018 378.057 531.729 318.667L438.198 372.667ZM432.278 394.759C429.902 396.131 427.472 396.794 425.075 396.917L430.586 504.776C449.656 503.802 468.761 498.403 486.278 488.29L432.278 394.759ZM384.62 418.459C381.401 422.754 377.258 426.527 372.154 429.473L426.154 523.004C444.126 512.628 459.229 498.992 471.04 483.233L384.62 418.459ZM372.154 429.473C367.109 432.386 361.836 434.082 356.571 434.74L369.957 541.907C389.277 539.494 408.394 533.258 426.154 523.004L372.154 429.473ZM318.098 458.726C316.798 460.709 315.024 462.457 312.675 463.813L366.675 557.344C383.984 547.35 398.084 533.71 408.431 517.921L318.098 458.726ZM312.675 463.813C306.686 467.271 299.277 466.504 294.153 462.187L224.569 544.783C263.366 577.469 320.056 584.259 366.675 557.344L312.675 463.813ZM294.153 462.187C292.813 461.059 291.597 459.65 290.582 457.893L197.052 511.893C204.419 524.654 213.787 535.7 224.569 544.783L294.153 462.187ZM290.582 457.893C288.886 454.956 288.241 451.866 288.438 448.826L180.663 441.85C179.131 465.515 184.363 489.917 197.052 511.893L290.582 457.893ZM209.659 397.417C206.343 399.14 202.735 399.603 199.226 398.928L178.832 504.985C205.352 510.085 233.781 506.588 259.442 493.259L209.659 397.417ZM199.227 398.928C198.795 398.845 198.367 398.745 197.944 398.628L169.204 502.734C172.381 503.611 175.593 504.362 178.831 504.985L199.227 398.928ZM197.944 398.628C196.283 398.17 194.718 397.46 193.314 396.537L133.998 486.79C144.907 493.96 156.805 499.311 169.204 502.734L197.944 398.628ZM193.314 396.537C191.339 395.239 189.597 393.468 188.245 391.126L94.7139 445.126C104.678 462.384 118.267 476.451 133.998 486.79L193.314 396.537ZM188.245 391.126C185.291 386.009 185.39 379.904 188.245 374.928L94.5671 321.184C73.3521 358.163 71.7414 405.336 94.7139 445.126L188.245 391.126ZM184.149 315.056C183.712 314.489 183.292 313.868 182.897 313.184L89.3667 367.184C92.1784 372.054 95.287 376.684 98.6628 381.057L184.149 315.056ZM182.897 313.184C178.492 305.554 181.016 295.81 188.503 291.277L132.573 198.888C74.9128 233.794 55.5134 308.549 89.3667 367.184L182.897 313.184ZM98.833 156.68C45.6606 166.098 45.663 166.111 45.6654 166.125C45.6663 166.13 45.6689 166.144 45.6707 166.155C45.6743 166.175 45.6782 166.197 45.6823 166.22C45.6906 166.266 45.7 166.318 45.7104 166.375C45.7312 166.49 45.7561 166.627 45.7854 166.784C45.844 167.1 45.9197 167.501 46.0132 167.981C46.2 168.941 46.4586 170.225 46.7936 171.786C47.4613 174.899 48.4439 179.172 49.781 184.232C52.4052 194.161 56.6269 208.013 62.9299 222.398C69.018 236.292 78.3392 253.705 92.4184 268.423C106.991 283.657 129.629 298.807 160.052 299.081L161.024 191.085C168.386 191.151 171.781 195.147 170.46 193.767C168.646 191.87 165.424 187.208 161.851 179.054C158.492 171.39 155.935 163.218 154.196 156.637C153.352 153.441 152.757 150.837 152.392 149.137C152.211 148.291 152.089 147.684 152.025 147.355C151.993 147.191 151.976 147.098 151.973 147.08C151.971 147.072 151.973 147.082 151.979 147.112C151.981 147.127 151.985 147.147 151.989 147.172C151.992 147.184 151.994 147.198 151.997 147.213C151.998 147.221 152 147.233 152.001 147.237C152.003 147.249 152.005 147.262 98.833 156.68ZM147.477 124.715C139.749 126.507 139.851 124.253 142.573 126.084C143.165 126.481 143.665 126.961 144.17 127.592C144.443 127.932 144.785 128.401 145.205 129.063C145.418 129.398 145.658 129.795 145.925 130.262C146.058 130.496 146.2 130.75 146.348 131.024C146.423 131.161 146.499 131.304 146.577 131.452C146.617 131.526 146.656 131.601 146.696 131.678C146.717 131.717 146.737 131.755 146.757 131.795C146.767 131.814 146.783 131.844 146.788 131.854C146.803 131.883 146.819 131.913 98.833 156.68C50.8474 181.447 50.863 181.477 50.8786 181.507C50.8839 181.517 50.8996 181.547 50.9103 181.568C50.9316 181.609 50.9533 181.651 50.9753 181.693C51.0194 181.777 51.065 181.864 51.112 181.953C51.2061 182.131 51.3061 182.317 51.4122 182.513C51.6243 182.904 51.8609 183.331 52.1229 183.79C52.6461 184.707 53.2738 185.759 54.0122 186.923C55.4833 189.242 57.4276 192.054 59.9023 195.141C64.8115 201.266 72.1175 208.855 82.3165 215.711C104.254 230.46 134.777 238.526 171.874 229.923L147.477 124.715ZM170.136 121.888C162.723 122.077 155.307 122.977 147.993 124.598L171.358 230.04C171.865 229.928 172.377 229.866 172.888 229.853L170.136 121.888ZM113.988 117.279C106.244 147.233 110.795 176.839 123.892 201.332L219.132 150.409C218.649 149.505 218.374 148.614 218.264 147.748C218.16 146.925 218.162 145.814 218.55 144.311L113.988 117.279Z" fill="white" mask="url(#path-1-outside-1_73_1902)"/>
<mask id="path-3-outside-2_73_1902" maskUnits="userSpaceOnUse" x="-43.6769" y="-61.0742" width="661.238" height="684.297" fill="black">
<rect fill="white" x="-43.6769" y="-61.0742" width="661.238" height="684.297"/>
<path fill-rule="evenodd" clip-rule="evenodd" d="M166.271 130.794L178.383 83.9434C209.881 83.9434 235.197 101.481 248.286 125.574C249.746 123.528 251.334 121.565 253.044 119.698C284.459 86.0752 265.592 56.6869 265.592 56.6869C265.592 56.6869 345.132 123.533 304.213 163.403C302.543 165.03 300.91 166.573 299.314 168.034C299.435 168.067 299.557 168.1 299.678 168.133C304.256 163.277 309.609 158.998 315.686 155.489C320.93 152.462 326.403 150.188 331.978 148.634C362.086 140.244 395.194 152.855 411.544 181.174C412.946 183.602 414.186 186.08 415.268 188.593C440.286 187.805 464.918 200.463 478.309 223.657C497.154 256.297 486.796 297.785 455.341 317.864C467.336 323.792 477.771 333.21 484.964 345.667C504.341 379.23 492.842 422.147 459.279 441.525C449.332 447.268 438.564 450.299 427.83 450.847C420.315 460.874 410.692 469.578 399.154 476.239C387.752 482.822 375.557 486.788 363.265 488.324C357.441 497.21 349.504 504.904 339.675 510.579C313.371 525.766 281.322 521.987 259.361 503.486C253.301 498.38 248.008 492.153 243.817 484.894C236.625 472.437 233.687 458.691 234.551 445.339C220.062 452.864 204.044 454.844 189.029 451.957C180.029 450.226 171.39 446.747 163.656 441.664C154.803 435.846 147.138 427.927 141.48 418.126C128.516 395.673 129.372 369.034 141.406 348.057C139.5 345.587 137.736 342.962 136.132 340.185C117.002 307.051 127.965 264.8 160.541 245.081C114.42 244.668 98.8351 156.679 98.8351 156.679C98.8351 156.679 114.852 187.712 159.678 177.318C163.588 176.451 167.552 175.97 171.514 175.869C164.538 162.821 162.059 147.089 166.271 130.794Z"/>
</mask>
<path d="M178.383 83.9434L178.383 47.9434C161.971 47.9434 147.637 59.0434 143.529 74.933L178.383 83.9434ZM166.271 130.794L201.125 139.804L201.125 139.804L166.271 130.794ZM248.286 125.574L216.653 142.759C222.578 153.665 233.703 160.75 246.091 161.507C258.48 162.263 270.384 156.585 277.592 146.482L248.286 125.574ZM253.044 119.698L226.739 95.1205C226.659 95.2063 226.579 95.2926 226.5 95.3793L253.044 119.698ZM265.592 56.6869L288.753 29.1271C275.129 17.6771 255.183 17.9007 241.818 29.6531C228.454 41.4056 225.683 61.1598 235.297 76.1359L265.592 56.6869ZM304.213 163.403L279.09 137.619L279.09 137.619L304.213 163.403ZM299.314 168.034L275.002 141.484C265.312 150.356 261.225 163.803 264.339 176.567C267.453 189.331 277.273 199.385 289.96 202.798L299.314 168.034ZM299.678 168.133L290.185 202.859C303.021 206.368 316.746 202.51 325.874 192.827L299.678 168.133ZM331.978 148.634L341.642 183.313L331.978 148.634ZM415.268 188.593L382.201 202.827C388.05 216.414 401.615 225.041 416.401 224.575L415.268 188.593ZM455.341 317.864L435.97 287.52C425.02 294.51 418.685 306.857 419.394 319.829C420.103 332.8 427.746 344.384 439.392 350.139L455.341 317.864ZM427.83 450.847L425.993 414.894C415.317 415.439 405.436 420.702 399.024 429.256L427.83 450.847ZM363.265 488.324L358.803 452.601C348.321 453.911 338.943 459.757 333.154 468.592L363.265 488.324ZM259.361 503.486L282.556 475.954L282.556 475.954L259.361 503.486ZM234.551 445.339L270.476 447.664C271.315 434.7 265.104 422.29 254.225 415.19C243.345 408.091 229.485 407.403 217.956 413.391L234.551 445.339ZM189.029 451.957L195.828 416.605L195.828 416.605L189.029 451.957ZM163.656 441.664L143.884 471.749L143.884 471.749L163.656 441.664ZM141.406 348.057L172.633 365.972C179.88 353.339 178.802 337.585 169.902 326.057L141.406 348.057ZM160.541 245.081L179.183 275.879C192.953 267.544 199.516 251.082 195.259 235.56C191.002 220.037 176.959 209.227 160.864 209.083L160.541 245.081ZM98.8351 156.679L130.825 140.168C122.663 124.353 104.17 116.876 87.3099 122.573C70.4498 128.271 60.283 145.433 63.3869 162.957L98.8351 156.679ZM159.678 177.318L151.889 142.17C151.775 142.196 151.66 142.222 151.546 142.248L159.678 177.318ZM171.514 175.869L172.432 211.857C184.916 211.539 196.344 204.773 202.627 193.98C208.91 183.186 209.15 169.908 203.261 158.895L171.514 175.869ZM143.529 74.933L131.417 121.783L201.125 139.804L213.237 92.9538L143.529 74.933ZM279.919 108.388C261.057 73.6689 224.144 47.9434 178.383 47.9434L178.383 119.943C195.619 119.943 209.337 129.292 216.653 142.759L279.919 108.388ZM226.5 95.3793C223.797 98.3299 221.287 101.432 218.98 104.665L277.592 146.482C278.204 145.624 278.871 144.801 279.589 144.017L226.5 95.3793ZM265.592 56.6869C235.297 76.1359 235.285 76.1171 235.273 76.0983C235.269 76.0922 235.258 76.0736 235.25 76.0613C235.234 76.0368 235.219 76.0127 235.204 75.9889C235.173 75.9412 235.144 75.895 235.116 75.8501C235.06 75.7602 235.007 75.6757 234.959 75.5965C234.861 75.4381 234.779 75.3002 234.71 75.1822C234.573 74.9468 234.486 74.7871 234.439 74.6972C234.349 74.5237 234.397 74.596 234.504 74.8719C234.735 75.4637 235.083 76.5896 235.182 78.0406C235.296 79.7087 235.586 85.652 226.739 95.1205L279.349 144.275C301.917 120.121 308.48 94.5589 307.015 73.1272C306.324 63.0283 303.919 54.7058 301.593 48.7365C300.423 45.7319 299.242 43.2455 298.243 41.3335C297.741 40.3744 297.28 39.5504 296.882 38.8682C296.682 38.5267 296.498 38.2197 296.331 37.948C296.248 37.8122 296.169 37.685 296.094 37.5667C296.057 37.5075 296.021 37.4505 295.987 37.3957C295.969 37.3683 295.952 37.3415 295.935 37.3152C295.927 37.3021 295.915 37.2827 295.91 37.2762C295.898 37.257 295.886 37.238 265.592 56.6869ZM329.337 189.187C348.881 170.143 354.186 146.484 351.077 124.798C348.25 105.087 338.733 87.6538 330.005 74.8342C320.956 61.5418 310.673 50.2184 302.97 42.4333C299.051 38.473 295.64 35.268 293.154 33.0065C291.907 31.8728 290.884 30.968 290.136 30.3153C289.762 29.9887 289.455 29.7246 289.223 29.5257C289.106 29.4263 289.009 29.3431 288.93 29.2766C288.891 29.2433 288.856 29.2142 288.827 29.1893C288.812 29.1768 288.799 29.1654 288.786 29.155C288.78 29.1499 288.772 29.1429 288.769 29.1403C288.761 29.1336 288.753 29.1271 265.592 56.6869C242.43 84.2467 242.423 84.2408 242.416 84.2351C242.414 84.2335 242.408 84.2281 242.404 84.2249C242.397 84.2186 242.39 84.2133 242.385 84.209C242.375 84.2003 242.369 84.1955 242.368 84.1945C242.366 84.1925 242.381 84.2058 242.415 84.2341C242.481 84.2906 242.616 84.4067 242.814 84.5795C243.21 84.9254 243.857 85.4957 244.705 86.2677C246.409 87.8176 248.892 90.1464 251.791 93.0759C257.722 99.0704 264.768 106.95 270.489 115.353C276.531 124.229 279.227 130.983 279.806 135.019C280.101 137.08 280.005 136.727 279.09 137.619L329.337 189.187ZM323.625 194.585C325.505 192.864 327.408 191.066 329.337 189.187L279.09 137.619C277.677 138.995 276.315 140.282 275.002 141.484L323.625 194.585ZM289.96 202.798C290.034 202.818 290.109 202.838 290.185 202.859L309.171 133.407C309.004 133.362 308.836 133.316 308.667 133.271L289.96 202.798ZM325.874 192.827C328.076 190.492 330.674 188.405 333.686 186.666L297.686 124.312C288.544 129.59 280.437 136.063 273.483 143.439L325.874 192.827ZM333.686 186.666C336.288 185.164 338.957 184.061 341.642 183.313L322.314 113.955C313.848 116.314 305.572 119.759 297.686 124.312L333.686 186.666ZM341.642 183.313C356.311 179.225 372.429 185.426 380.367 199.174L442.721 163.174C417.958 120.285 367.86 101.263 322.314 113.955L341.642 183.313ZM380.367 199.174C381.064 200.382 381.674 201.602 382.201 202.827L448.334 174.359C446.698 170.557 444.827 166.823 442.721 163.174L380.367 199.174ZM416.401 224.575C428.688 224.188 440.636 230.404 447.132 241.657L509.486 205.657C489.2 170.521 451.884 151.422 414.135 152.611L416.401 224.575ZM447.132 241.657C456.305 257.544 451.265 277.757 435.97 287.52L474.711 348.209C522.327 317.814 538.004 255.051 509.486 205.657L447.132 241.657ZM439.392 350.139C445.212 353.015 450.259 357.556 453.787 363.667L516.14 327.667C505.284 308.863 489.461 294.569 471.289 285.59L439.392 350.139ZM453.787 363.667C463.223 380.012 457.623 400.912 441.279 410.348L477.279 472.702C528.06 443.383 545.459 378.449 516.14 327.667L453.787 363.667ZM441.279 410.348C436.379 413.177 431.169 414.629 425.993 414.894L429.668 486.8C445.959 485.968 462.285 481.359 477.279 472.702L441.279 410.348ZM399.024 429.256C394.373 435.461 388.403 440.877 381.154 445.062L417.154 507.416C432.981 498.278 446.258 486.286 456.637 472.438L399.024 429.256ZM381.154 445.062C373.99 449.198 366.41 451.651 358.803 452.601L367.726 524.046C384.704 521.926 401.514 516.446 417.154 507.416L381.154 445.062ZM333.154 468.592C330.346 472.876 326.518 476.606 321.675 479.402L357.675 541.756C372.491 533.202 384.536 521.544 393.375 508.055L333.154 468.592ZM321.675 479.402C308.914 486.769 293.292 484.999 282.556 475.954L236.166 531.018C269.352 558.975 317.828 564.762 357.675 541.756L321.675 479.402ZM282.556 475.954C279.643 473.5 277.067 470.485 274.994 466.894L212.64 502.894C218.949 513.821 226.959 523.26 236.166 531.018L282.556 475.954ZM274.994 466.894C271.466 460.783 270.056 454.142 270.476 447.664L198.626 443.013C197.317 463.24 201.784 484.09 212.64 502.894L274.994 466.894ZM217.956 413.391C210.916 417.048 203.172 418.017 195.828 416.605L182.231 487.309C204.916 491.672 229.208 488.681 251.145 477.286L217.956 413.391ZM195.828 416.605C191.408 415.755 187.184 414.048 183.428 411.58L143.884 471.749C155.595 479.445 168.65 484.698 182.231 487.309L195.828 416.605ZM183.428 411.58C179.16 408.775 175.444 404.955 172.656 400.126L110.303 436.126C118.831 450.898 130.446 462.917 143.884 471.749L183.428 411.58ZM172.656 400.126C166.366 389.231 166.718 376.282 172.633 365.972L110.18 330.142C92.0255 361.787 90.6666 402.116 110.303 436.126L172.656 400.126ZM169.902 326.057C168.975 324.856 168.107 323.566 167.309 322.185L104.955 358.185C107.364 362.357 110.025 366.319 112.911 370.057L169.902 326.057ZM167.309 322.185C157.995 306.053 163.333 285.473 179.183 275.879L141.899 214.284C92.5981 244.127 76.0092 308.049 104.955 358.185L167.309 322.185ZM98.8351 156.679C63.3869 162.957 63.3885 162.966 63.3902 162.976C63.3908 162.979 63.3926 162.989 63.3938 162.996C63.3964 163.011 63.3992 163.027 63.4023 163.044C63.4085 163.078 63.4157 163.118 63.4239 163.164C63.4403 163.254 63.4608 163.366 63.4855 163.499C63.5348 163.765 63.6008 164.114 63.684 164.542C63.8504 165.397 64.0861 166.568 64.3954 168.01C65.0127 170.888 65.9308 174.883 67.1858 179.632C69.6625 189.003 73.6068 201.908 79.4192 215.173C85.0882 228.111 93.3931 243.399 105.429 255.98C117.793 268.905 136.093 280.864 160.219 281.08L160.864 209.083C160.855 209.083 160.876 209.083 160.92 209.088C160.964 209.094 161.007 209.103 161.044 209.112C161.129 209.133 161.084 209.134 160.883 209.033C160.437 208.807 159.248 208.082 157.456 206.209C153.597 202.175 149.358 195.388 145.366 186.277C141.517 177.493 138.683 168.374 136.796 161.235C135.869 157.729 135.209 154.846 134.794 152.91C134.587 151.946 134.443 151.226 134.359 150.792C134.317 150.575 134.289 150.43 134.277 150.363C134.271 150.329 134.268 150.315 134.269 150.321C134.27 150.324 134.271 150.332 134.274 150.345C134.275 150.352 134.276 150.36 134.278 150.369C134.279 150.373 134.28 150.381 134.28 150.383C134.282 150.392 134.283 150.4 98.8351 156.679ZM151.546 142.248C138.922 145.176 133.92 141.953 132.533 141.02C131.326 140.209 130.525 139.344 130.127 138.849C129.942 138.618 129.904 138.54 130.009 138.705C130.063 138.791 130.158 138.945 130.293 139.182C130.361 139.301 130.439 139.441 130.528 139.604C130.572 139.686 130.619 139.774 130.669 139.867C130.694 139.914 130.719 139.963 130.745 140.013C130.758 140.038 130.771 140.063 130.785 140.089C130.791 140.102 130.802 140.121 130.805 140.128C130.815 140.148 130.825 140.168 98.8351 156.679C66.8448 173.19 66.8551 173.21 66.8656 173.23C66.8692 173.237 66.8797 173.257 66.8869 173.271C66.9013 173.299 66.916 173.327 66.931 173.356C66.9611 173.413 66.9924 173.473 67.0251 173.535C67.0904 173.658 67.1611 173.79 67.237 173.93C67.389 174.21 67.5627 174.524 67.7587 174.867C68.1503 175.553 68.6334 176.365 69.2132 177.279C70.3691 179.1 71.9322 181.366 73.949 183.882C77.9559 188.88 83.9609 195.124 92.3614 200.772C110.189 212.757 135.608 219.855 167.81 212.387L151.546 142.248ZM170.597 139.881C164.334 140.041 158.069 140.801 151.889 142.17L167.466 212.465C169.108 212.102 170.77 211.9 172.432 211.857L170.597 139.881ZM131.417 121.783C124.851 147.184 128.711 172.165 139.767 192.844L203.261 158.895C200.364 153.477 199.267 146.994 201.125 139.804L131.417 121.783Z" fill="#1E1C35" mask="url(#path-3-outside-2_73_1902)"/>
<path fill-rule="evenodd" clip-rule="evenodd" d="M455.341 317.864C467.337 323.792 477.772 333.21 484.964 345.667C504.342 379.23 492.842 422.147 459.279 441.525C449.333 447.268 438.565 450.298 427.831 450.847C420.316 460.873 410.693 469.578 399.155 476.239C387.753 482.822 375.557 486.788 363.265 488.324C357.442 497.21 349.505 504.904 339.676 510.579C306.113 529.957 263.196 518.457 243.818 484.894C236.626 472.437 233.687 458.691 234.551 445.339C201.435 462.54 160.326 450.767 141.48 418.126C128.517 395.673 129.372 369.034 141.407 348.057C139.5 345.587 137.736 342.962 136.133 340.185C116.755 306.622 128.255 263.705 161.818 244.327C168.258 240.609 175.042 238.028 181.938 236.521C188.108 212.521 203.552 190.923 226.708 177.554C249.709 164.274 275.935 161.644 299.679 168.133C304.257 163.277 309.61 158.997 315.686 155.489C349.25 136.112 392.167 147.611 411.544 181.174C412.946 183.602 414.186 186.079 415.268 188.593C440.287 187.805 464.919 200.463 478.31 223.656C497.155 256.297 486.796 297.785 455.341 317.864Z" fill="#40058A"/>
<path fill-rule="evenodd" clip-rule="evenodd" d="M424.663 317.705C416.651 305.759 405.607 297.063 393.24 291.954C423.277 269.808 430.827 227.719 409.833 196.416C394.915 174.174 369.489 163.199 344.58 165.664C343.332 163.229 341.929 160.841 340.367 158.513C337.937 154.89 335.228 151.565 332.287 148.549C326.605 150.104 321.027 152.406 315.686 155.489C309.61 158.997 304.257 163.277 299.679 168.133C275.935 161.644 249.709 164.274 226.708 177.554C203.552 190.923 188.108 212.521 181.938 236.521C175.042 238.028 168.258 240.609 161.818 244.327C128.255 263.705 116.755 306.622 136.133 340.185C137.736 342.962 139.5 345.587 141.407 348.057C129.372 369.034 128.517 395.673 141.48 418.126C147.138 427.927 154.804 435.846 163.657 441.664C169.806 439.977 175.815 437.421 181.507 433.96C181.521 439.552 182.202 445.167 183.575 450.682C200.106 455.245 218.292 453.784 234.551 445.339C233.687 458.691 236.626 472.437 243.818 484.894C248.009 492.153 253.301 498.38 259.362 503.486C270.259 502.296 281.038 498.528 290.774 491.998C300.2 485.676 307.602 477.467 312.816 468.209C324.978 465.852 336.879 461.077 347.813 453.743C358.878 446.322 367.895 436.992 374.72 426.484C385.392 425.216 395.933 421.469 405.471 415.071C437.658 393.484 446.251 349.892 424.663 317.705Z" fill="#4E20B0"/>
<g style="mix-blend-mode:overlay">
<path fill-rule="evenodd" clip-rule="evenodd" d="M186.705 285.13C195.994 279.767 203.16 291.978 205.192 302.51C206.39 308.718 208.759 315.149 212.334 321.342C215.909 327.535 220.294 332.801 225.072 336.943C233.176 343.968 240.168 356.28 230.879 361.642V361.642C216.402 370 194.778 359.648 182.579 338.52C170.381 317.392 172.228 293.488 186.705 285.13V285.13Z" fill="#F9FCFC"/>
</g>
<path fill-rule="evenodd" clip-rule="evenodd" d="M178.384 83.9457L163.116 143.005C160.062 154.817 160.976 166.294 164.795 176.409C163.082 176.641 161.375 176.944 159.678 177.32C114.853 187.715 98.8357 156.681 98.8357 156.681C98.8357 156.681 116.956 258.988 171.943 243.486C209.462 232.909 221.169 219.455 224.822 211.973C227.41 211.589 230.019 211.016 232.639 210.245C240.455 207.943 247.213 202.969 251.732 196.19L253.551 193.462C262.756 192.985 279.358 187.624 304.214 163.405C345.132 123.535 265.592 56.6892 265.592 56.6892C265.592 56.6892 283.648 84.8141 255.023 117.514C243.008 97.8809 221.539 83.9457 195.024 83.9457L178.384 83.9457Z" fill="#08A034"/>
</g>
<defs>
<clipPath id="clip0_73_1902">
<rect width="575" height="575" fill="white"/>
</clipPath>
</defs>
</svg>
