<svg width="575" height="575" viewBox="0 0 575 575" fill="none" xmlns="http://www.w3.org/2000/svg">
<path d="M287 466.396C414.025 466.396 517 386.611 517 288.194C517 189.777 414.025 110 287 110C159.974 110 57 189.777 57 288.194C57 386.611 159.974 466.396 287 466.396Z" fill="#499AF3"/>
<g style="mix-blend-mode:soft-light" opacity="0.3">
<path d="M78.6816 283.086C78.8128 302.867 83.8502 322.364 93.4057 340.117C98.6268 349.896 106.738 358.147 116.824 363.939C126.91 369.731 138.564 372.833 150.479 372.894C276.843 372.894 379.518 300.13 379.518 210.65C379.387 190.869 374.349 171.372 364.794 153.618C359.573 143.84 351.462 135.588 341.375 129.796C331.289 124.005 319.635 120.903 307.72 120.842C181.357 120.842 78.6816 193.606 78.6816 283.086Z" fill="white"/>
</g>
<path opacity="0.9" d="M349.771 168.953C354.518 169.607 356.506 176.055 352.92 179.234C341.221 189.603 338.688 197.128 345.155 203.417C348.572 206.739 348.294 213.516 343.82 215.158C325.264 221.969 317.965 229.156 319.417 239.239C320.001 243.29 316.943 247.748 312.851 247.79C303.489 247.884 294.228 250.153 285.808 254.478C276.131 259.448 267.98 266.919 262.161 276.081C260.545 278.626 257.145 279.473 254.522 277.986C239.265 269.337 227.31 272.124 211.613 287.572C209.488 289.663 206.029 289.579 203.88 287.513C190.967 275.103 174.425 271.967 146.409 277.272C141.837 278.138 138.276 272.808 140.06 268.509C144.283 258.331 139.434 253.515 124.271 252.32C119.406 251.937 117.064 245.392 120.598 242.027C132.864 230.349 135.072 221.613 127.429 213.308C124.395 210.011 125.341 203.991 129.638 202.721C150.001 196.703 157.376 189.785 154.674 179.18C153.724 175.451 156.066 171.239 159.909 171.051C185.753 169.785 200.008 162.344 210.993 144.416C212.554 141.87 215.92 141.052 218.51 142.539C233.553 151.174 245.148 148.844 260.809 133.656C263.175 131.361 267.084 131.77 269.224 134.278C279.245 146.02 293.721 147.621 319.468 139.484C323.568 138.188 327.578 142.243 326.922 146.493C324.83 160.071 332.364 166.555 349.771 168.953Z" fill="#074CB2"/>
<path opacity="0.6" d="M281.118 189.94C284.949 191.867 284.54 199.004 283.882 203.242V203.242C283.229 207.456 282.562 213 278.882 215.153C277.225 216.122 275.99 217.134 275.146 218.221C272.634 221.451 269.492 226.9 265.489 227.751C263.146 228.249 260.863 229.058 258.704 230.168C255.285 231.925 252.289 234.377 249.892 237.347C247.999 239.694 244.632 240.462 241.807 239.407C236.933 237.588 232.642 238.701 227.601 242.978C225.327 244.908 221.923 244.799 219.498 243.063C215.069 239.893 209.603 238.766 201.87 239.552C197.772 239.969 195.496 235.413 193.334 231.906V231.906C191.067 228.229 186.746 223.109 188.663 219.238C188.924 218.711 189.122 218.197 189.256 217.694C190.4 213.407 190.69 206.53 194.663 204.556C196.89 203.451 198.381 202.245 199.202 200.878C201.182 197.579 203.012 192.726 206.823 192.196C214.386 191.145 219.376 188.408 223.325 183.191C225.128 180.809 228.427 180.061 231.212 181.14C235.868 182.946 239.954 182.072 244.775 178.192C247.343 176.124 251.179 176.635 253.901 178.495C257.294 180.812 261.722 181.295 267.975 179.989C272.185 179.11 275.75 183.855 278.133 187.435C278.811 188.453 279.805 189.279 281.118 189.94Z" fill="black"/>
<path d="M406.504 135.902C426.184 150.294 442.3 168.991 453.632 190.563C464.964 212.134 471.208 236.009 471.88 260.36C471.88 358.761 369.053 438.463 241.977 438.463C200.671 438.697 159.817 429.909 122.271 412.713C169.667 448.489 227.695 467.375 287.097 466.359C414.173 466.359 517 386.656 517 288.255C515.051 254.979 503.614 222.955 484.035 195.96C464.455 168.965 437.555 148.126 406.504 135.902Z" fill="#074CB2"/>
<path d="M287 493.396C422.123 493.396 544 407.527 544 288.194C544 168.86 422.121 83 287 83C151.878 83 30 168.86 30 288.194C30 407.527 151.877 493.396 287 493.396Z" stroke="white" stroke-width="54"/>
<path d="M287 484.396C419.424 484.396 535 400.555 535 288.194C535 175.833 419.423 92 287 92C154.577 92 39 175.833 39 288.194C39 400.555 154.576 484.396 287 484.396Z" stroke="#1E1C35" stroke-width="36"/>
</svg>
