<svg width="575" height="575" viewBox="0 0 575 575" fill="none" xmlns="http://www.w3.org/2000/svg">
<g clip-path="url(#clip0_73_1894)">
<mask id="path-1-outside-1_73_1894" maskUnits="userSpaceOnUse" x="-57.9088" y="-78.3347" width="666.608" height="684.286" fill="black">
<rect fill="white" x="-57.9088" y="-78.3347" width="666.608" height="684.286"/>
<path fill-rule="evenodd" clip-rule="evenodd" d="M173.907 54.9637C179.893 53.503 186.21 55.2059 190.651 59.4773C241.598 108.478 280.421 141.359 324.305 174.966C324.614 174.431 324.976 173.929 325.402 173.467C354.327 142.13 402.06 133.812 440.542 156.029C485.156 181.788 500.442 238.836 474.684 283.45C448.926 328.065 391.878 343.351 347.263 317.593C308.782 295.376 292.119 249.879 304.794 209.162C305.102 208.173 305.593 207.278 306.215 206.45C266.181 175.949 230.286 146.163 186.541 105.213C165.551 174.268 160.544 223.565 164.419 267.458C166.41 290.014 170.74 311.36 176.749 333.6C177.587 333.179 178.465 332.878 179.397 332.739C221.574 326.435 263.989 349.855 280.065 391.28C298.702 439.307 274.877 493.349 226.85 511.986C178.823 530.624 124.781 506.799 106.144 458.772C90.068 417.346 105.584 371.446 140.973 347.65C141.607 347.224 142.286 346.899 143.001 346.656C136.072 321.545 130.87 296.81 128.558 270.624C123.626 214.749 131.814 153.315 161.123 66.6822C163.098 60.8454 167.921 56.4243 173.907 54.9637Z"/>
</mask>
<path fill-rule="evenodd" clip-rule="evenodd" d="M173.907 54.9637C179.893 53.503 186.21 55.2059 190.651 59.4773C241.598 108.478 280.421 141.359 324.305 174.966C324.614 174.431 324.976 173.929 325.402 173.467C354.327 142.13 402.06 133.812 440.542 156.029C485.156 181.788 500.442 238.836 474.684 283.45C448.926 328.065 391.878 343.351 347.263 317.593C308.782 295.376 292.119 249.879 304.794 209.162C305.102 208.173 305.593 207.278 306.215 206.45C266.181 175.949 230.286 146.163 186.541 105.213C165.551 174.268 160.544 223.565 164.419 267.458C166.41 290.014 170.74 311.36 176.749 333.6C177.587 333.179 178.465 332.878 179.397 332.739C221.574 326.435 263.989 349.855 280.065 391.28C298.702 439.307 274.877 493.349 226.85 511.986C178.823 530.624 124.781 506.799 106.144 458.772C90.068 417.346 105.584 371.446 140.973 347.65C141.607 347.224 142.286 346.899 143.001 346.656C136.072 321.545 130.87 296.81 128.558 270.624C123.626 214.749 131.814 153.315 161.123 66.6822C163.098 60.8454 167.921 56.4243 173.907 54.9637Z" fill="#1E1C35"/>
<path d="M190.651 59.4773L153.218 98.3972L153.218 98.3973L190.651 59.4773ZM173.907 54.9637L186.707 107.425L186.707 107.425L173.907 54.9637ZM324.305 174.966L291.472 217.838L340.304 255.236L371.066 201.974L324.305 174.966ZM325.402 173.467L365.082 210.094L365.083 210.093L325.402 173.467ZM440.542 156.029L413.542 202.795L413.542 202.795L440.542 156.029ZM347.263 317.593L374.263 270.828L374.263 270.828L347.263 317.593ZM304.794 209.162L356.354 225.212L356.354 225.212L304.794 209.162ZM306.215 206.45L349.361 238.923L381.643 196.03L338.941 163.497L306.215 206.45ZM186.541 105.213L223.445 65.7904L160.107 6.4984L134.875 89.5081L186.541 105.213ZM164.419 267.458L218.21 262.709L218.21 262.709L164.419 267.458ZM176.749 333.6L124.618 347.685L141.876 411.56L200.996 381.85L176.749 333.6ZM179.397 332.739L187.379 386.146L187.38 386.146L179.397 332.739ZM280.065 391.28L330.407 371.744L330.407 371.744L280.065 391.28ZM226.85 511.986L246.386 562.329L226.85 511.986ZM106.144 458.772L156.486 439.236L156.486 439.236L106.144 458.772ZM140.973 347.65L171.105 392.461L171.105 392.461L140.973 347.65ZM143.001 346.656L160.372 397.786L208.607 381.399L195.055 332.292L143.001 346.656ZM128.558 270.624L74.7674 275.372L74.7674 275.372L128.558 270.624ZM161.123 66.6822L212.275 83.9875L212.275 83.9874L161.123 66.6822ZM228.084 20.5574C210.32 3.47182 185.051 -3.33973 161.106 2.50274L186.707 107.425C174.735 110.346 162.1 106.94 153.218 98.3972L228.084 20.5574ZM357.138 132.095C314.898 99.7457 277.607 68.1884 228.084 20.5574L153.218 98.3973C205.588 148.767 245.944 182.972 291.472 217.838L357.138 132.095ZM285.722 136.841C282.38 140.462 279.691 144.241 277.544 147.959L371.066 201.974C369.537 204.621 367.573 207.395 365.082 210.094L285.722 136.841ZM467.542 109.264C406.723 74.1502 331.397 87.3564 285.722 136.842L365.083 210.093C377.256 196.904 397.396 193.473 413.542 202.795L467.542 109.264ZM521.45 310.45C562.12 240.008 537.984 149.934 467.542 109.264L413.542 202.795C432.329 213.641 438.765 237.664 427.919 256.45L521.45 310.45ZM320.263 364.358C390.705 405.028 480.78 380.893 521.45 310.45L427.919 256.45C417.072 275.237 393.05 281.674 374.263 270.828L320.263 364.358ZM253.235 193.112C233.219 257.41 259.445 329.245 320.263 364.358L374.263 270.828C358.118 261.506 351.019 242.349 356.354 225.212L253.235 193.112ZM263.07 173.978C259.357 178.911 255.674 185.275 253.235 193.112L356.354 225.212C354.53 231.071 351.829 235.644 349.361 238.923L263.07 173.978ZM149.637 144.635C194.806 186.918 232.108 217.876 273.49 249.404L338.941 163.497C300.255 134.022 265.766 105.408 223.445 65.7904L149.637 144.635ZM218.21 262.709C215.088 227.355 218.685 185.145 238.207 120.917L134.875 89.5081C112.418 163.392 105.999 219.776 110.628 272.207L218.21 262.709ZM228.88 319.515C223.451 299.421 219.85 281.292 218.21 262.709L110.628 272.207C112.97 298.736 118.03 323.299 124.618 347.685L228.88 319.515ZM171.416 279.332C164.046 280.434 157.702 282.737 152.502 285.35L200.996 381.85C197.472 383.621 192.884 385.323 187.379 386.146L171.416 279.332ZM330.407 371.744C305.001 306.274 238.017 269.378 171.415 279.332L187.38 386.146C205.131 383.493 222.978 393.435 229.722 410.816L330.407 371.744ZM246.386 562.329C322.216 532.902 359.834 447.575 330.407 371.744L229.722 410.816C237.57 431.04 227.538 453.796 207.314 461.644L246.386 562.329ZM55.8011 478.307C85.2278 554.138 170.555 591.755 246.386 562.329L207.314 461.644C187.09 469.492 164.334 459.46 156.486 439.236L55.8011 478.307ZM110.841 302.838C54.9575 340.415 30.3948 412.837 55.8012 478.307L156.486 439.236C149.741 421.855 156.21 402.476 171.105 392.461L110.841 302.838ZM125.63 295.527C120.883 297.14 115.832 299.482 110.841 302.838L171.105 392.461C167.381 394.965 163.689 396.659 160.372 397.786L125.63 295.527ZM74.7674 275.372C77.4476 305.733 83.4363 333.805 90.9466 361.021L195.055 332.292C188.707 309.286 184.292 287.887 182.349 265.875L74.7674 275.372ZM109.971 49.377C79.1106 140.596 68.9784 209.797 74.7674 275.372L182.349 265.875C178.273 219.702 184.517 166.035 212.275 83.9875L109.971 49.377ZM161.106 2.50273C137.162 8.34519 117.869 26.0297 109.971 49.377L212.275 83.9874C208.326 95.6611 198.679 104.503 186.707 107.425L161.106 2.50273Z" fill="white" mask="url(#path-1-outside-1_73_1894)"/>
<mask id="path-3-outside-2_73_1894" maskUnits="userSpaceOnUse" x="-35.8634" y="-56.2893" width="622.517" height="640.195" fill="black">
<rect fill="white" x="-35.8634" y="-56.2893" width="622.517" height="640.195"/>
<path fill-rule="evenodd" clip-rule="evenodd" d="M173.907 54.9637C179.893 53.503 186.21 55.2059 190.651 59.4773C241.598 108.478 280.421 141.359 324.305 174.966C324.614 174.431 324.976 173.929 325.402 173.467C354.327 142.13 402.06 133.812 440.542 156.029C485.156 181.788 500.442 238.836 474.684 283.45C448.926 328.065 391.878 343.351 347.263 317.593C308.782 295.376 292.119 249.879 304.794 209.162C305.102 208.173 305.593 207.278 306.215 206.45C266.181 175.949 230.286 146.163 186.541 105.213C165.551 174.268 160.544 223.565 164.419 267.458C166.41 290.014 170.74 311.36 176.749 333.6C177.587 333.179 178.465 332.878 179.397 332.739C221.574 326.435 263.989 349.855 280.065 391.28C298.702 439.307 274.877 493.349 226.85 511.986C178.823 530.624 124.781 506.799 106.144 458.772C90.068 417.346 105.584 371.446 140.973 347.65C141.607 347.224 142.286 346.899 143.001 346.656C136.072 321.545 130.87 296.81 128.558 270.624C123.626 214.749 131.814 153.315 161.123 66.6822C163.098 60.8454 167.921 56.4243 173.907 54.9637Z"/>
</mask>
<path fill-rule="evenodd" clip-rule="evenodd" d="M173.907 54.9637C179.893 53.503 186.21 55.2059 190.651 59.4773C241.598 108.478 280.421 141.359 324.305 174.966C324.614 174.431 324.976 173.929 325.402 173.467C354.327 142.13 402.06 133.812 440.542 156.029C485.156 181.788 500.442 238.836 474.684 283.45C448.926 328.065 391.878 343.351 347.263 317.593C308.782 295.376 292.119 249.879 304.794 209.162C305.102 208.173 305.593 207.278 306.215 206.45C266.181 175.949 230.286 146.163 186.541 105.213C165.551 174.268 160.544 223.565 164.419 267.458C166.41 290.014 170.74 311.36 176.749 333.6C177.587 333.179 178.465 332.878 179.397 332.739C221.574 326.435 263.989 349.855 280.065 391.28C298.702 439.307 274.877 493.349 226.85 511.986C178.823 530.624 124.781 506.799 106.144 458.772C90.068 417.346 105.584 371.446 140.973 347.65C141.607 347.224 142.286 346.899 143.001 346.656C136.072 321.545 130.87 296.81 128.558 270.624C123.626 214.749 131.814 153.315 161.123 66.6822C163.098 60.8454 167.921 56.4243 173.907 54.9637Z" fill="#1E1C35"/>
<path d="M190.651 59.4773L165.696 85.4239L165.696 85.424L190.651 59.4773ZM173.907 54.9637L182.44 89.9376L182.44 89.9376L173.907 54.9637ZM324.305 174.966L302.416 203.548L334.971 228.479L355.479 192.971L324.305 174.966ZM325.402 173.467L351.856 197.885L351.856 197.885L325.402 173.467ZM440.542 156.029L422.542 187.206L422.542 187.206L440.542 156.029ZM347.263 317.593L365.263 286.416L365.263 286.416L347.263 317.593ZM304.794 209.162L339.167 219.862L339.168 219.862L304.794 209.162ZM306.215 206.45L334.979 228.099L356.5 199.504L328.033 177.815L306.215 206.45ZM186.541 105.213L211.144 78.9311L168.918 39.4031L152.097 94.7429L186.541 105.213ZM164.419 267.458L200.279 264.292L200.279 264.292L164.419 267.458ZM176.749 333.6L141.995 342.99L153.5 385.573L192.914 365.767L176.749 333.6ZM179.397 332.739L184.719 368.344L184.719 368.344L179.397 332.739ZM280.065 391.28L313.626 378.256L313.626 378.256L280.065 391.28ZM226.85 511.986L239.874 545.548L226.85 511.986ZM106.144 458.772L139.705 445.748L139.705 445.748L106.144 458.772ZM140.973 347.65L161.061 377.524L161.061 377.524L140.973 347.65ZM143.001 346.656L154.581 380.743L186.738 369.818L177.704 337.08L143.001 346.656ZM128.558 270.624L92.6977 273.79L92.6977 273.79L128.558 270.624ZM161.123 66.6822L195.224 78.219L195.224 78.219L161.123 66.6822ZM215.607 33.5307C202.284 20.7165 183.332 15.6079 165.373 19.9897L182.44 89.9376C176.454 91.3982 170.137 89.6954 165.696 85.4239L215.607 33.5307ZM346.193 146.385C303.406 113.617 265.604 81.6181 215.607 33.5307L165.696 85.424C217.591 135.337 257.436 169.101 302.416 203.548L346.193 146.385ZM298.949 149.05C296.579 151.618 294.666 154.304 293.131 156.962L355.479 192.971C354.563 194.557 353.374 196.24 351.856 197.885L298.949 149.05ZM458.542 124.852C405.169 94.0374 339.04 105.614 298.948 149.05L351.856 197.885C369.613 178.646 398.951 173.586 422.542 187.206L458.542 124.852ZM505.861 301.45C541.561 239.617 520.375 160.552 458.542 124.852L422.542 187.206C449.938 203.023 459.324 238.054 443.507 265.45L505.861 301.45ZM329.263 348.77C391.096 384.469 470.162 363.284 505.861 301.45L443.507 265.45C427.69 292.847 392.659 302.233 365.263 286.416L329.263 348.77ZM270.421 198.462C252.853 254.9 275.891 317.955 329.263 348.77L365.263 286.416C341.672 272.796 331.386 244.859 339.167 219.862L270.421 198.462ZM277.452 184.802C274.769 188.367 272.15 192.907 270.421 198.462L339.168 219.862C338.054 223.438 336.417 226.189 334.979 228.099L277.452 184.802ZM161.939 131.494C206.633 173.333 243.465 203.9 284.398 235.086L328.033 177.815C288.897 147.997 253.939 118.993 211.144 78.9311L161.939 131.494ZM200.279 264.292C196.907 226.092 200.973 181.519 220.985 115.682L152.097 94.7429C130.129 167.017 124.181 221.039 128.558 270.624L200.279 264.292ZM211.503 324.21C205.881 303.401 202.037 284.199 200.279 264.292L128.558 270.624C130.783 295.828 135.6 319.319 141.995 342.99L211.503 324.21ZM174.076 297.135C168.853 297.915 164.33 299.551 160.584 301.433L192.914 365.767C190.844 366.807 188.078 367.842 184.719 368.344L174.076 297.135ZM313.626 378.256C291.33 320.801 232.536 288.397 174.076 297.135L184.719 368.344C210.612 364.474 236.648 378.909 246.503 404.304L313.626 378.256ZM239.874 545.548C306.436 519.718 339.457 444.819 313.626 378.256L246.503 404.304C257.948 433.795 243.318 466.98 213.826 478.425L239.874 545.548ZM72.5819 471.795C98.4121 538.358 173.311 571.378 239.874 545.548L213.826 478.425C184.335 489.869 151.15 475.239 139.705 445.748L72.5819 471.795ZM120.885 317.775C71.8329 350.758 50.2859 414.34 72.5819 471.795L139.705 445.748C129.85 420.352 139.335 392.133 161.061 377.524L120.885 317.775ZM131.421 312.57C128.017 313.726 124.424 315.396 120.885 317.775L161.061 377.524C158.79 379.051 156.555 380.073 154.581 380.743L131.421 312.57ZM92.6977 273.79C95.255 302.759 100.981 329.719 108.298 356.233L177.704 337.08C171.162 313.372 166.485 290.861 164.419 267.458L92.6977 273.79ZM127.022 55.1454C96.6784 144.836 87.1942 211.448 92.6977 273.79L164.419 267.458C160.057 218.051 166.95 161.795 195.224 78.219L127.022 55.1454ZM165.373 19.9897C147.415 24.3715 132.945 37.635 127.022 55.1454L195.224 78.219C193.25 84.0559 188.426 88.477 182.44 89.9376L165.373 19.9897Z" fill="#1E1C35" mask="url(#path-3-outside-2_73_1894)"/>
<path d="M187.928 428.407C148.011 307.828 120.589 242.658 178.173 72.449C261.741 152.825 313.314 190.492 405.642 257.153" stroke="#24B74F" stroke-width="36" stroke-linejoin="round"/>
<g filter="url(#filter0_i_73_1894)">
<path fill-rule="evenodd" clip-rule="evenodd" d="M179.397 332.74C172.631 333.751 168.709 343.255 162.332 345.729V345.729V345.729C155.955 348.204 146.649 343.834 140.972 347.651C105.583 371.446 90.0671 417.347 106.143 458.773C124.78 506.8 178.822 530.625 226.849 511.987C274.876 493.35 298.701 439.308 280.064 391.281C263.988 349.856 221.573 326.436 179.397 332.74Z" fill="#EF4723"/>
</g>
<g filter="url(#filter1_i_73_1894)">
<path fill-rule="evenodd" clip-rule="evenodd" d="M325.402 173.463C320.762 178.489 323.659 188.354 320.239 194.278V194.278V194.278C316.819 200.202 306.828 202.626 304.794 209.157C292.119 249.875 308.781 295.371 347.263 317.588C391.878 343.346 448.926 328.06 474.684 283.446C500.442 238.831 485.156 181.783 440.542 156.025C402.06 133.807 354.327 142.126 325.402 173.463Z" fill="#EF4723"/>
</g>
<g style="mix-blend-mode:overlay">
<path fill-rule="evenodd" clip-rule="evenodd" d="M354.733 193.901C362.82 196.068 360.035 206.764 355.344 213.698C352.579 217.785 350.337 222.642 348.893 228.032C347.448 233.423 346.962 238.75 347.313 243.672C347.908 252.022 344.972 262.675 336.886 260.509V260.509C324.283 257.132 318.062 239.484 322.99 221.091C327.919 202.698 342.131 190.525 354.733 193.901V193.901Z" fill="#F9FCFC"/>
</g>
<g style="mix-blend-mode:overlay">
<path fill-rule="evenodd" clip-rule="evenodd" d="M152.872 374.65C160.959 376.816 158.174 387.512 153.483 394.446C150.718 398.533 148.476 403.39 147.031 408.781C145.587 414.171 145.1 419.498 145.451 424.42C146.047 432.77 143.11 443.423 135.025 441.257V441.257C122.422 437.88 116.201 420.232 121.129 401.839C126.057 383.446 140.269 371.273 152.872 374.65V374.65Z" fill="#F9FCFC"/>
</g>
</g>
<defs>
<filter id="filter0_i_73_1894" x="99.7998" y="331.723" width="186.607" height="186.607" filterUnits="userSpaceOnUse" color-interpolation-filters="sRGB">
<feFlood flood-opacity="0" result="BackgroundImageFix"/>
<feBlend mode="normal" in="SourceGraphic" in2="BackgroundImageFix" result="shape"/>
<feColorMatrix in="SourceAlpha" type="matrix" values="0 0 0 0 0 0 0 0 0 0 0 0 0 0 0 0 0 0 127 0" result="hardAlpha"/>
<feOffset dx="-12" dy="-24"/>
<feComposite in2="hardAlpha" operator="arithmetic" k2="-1" k3="1"/>
<feColorMatrix type="matrix" values="0 0 0 0 0.509804 0 0 0 0 0.152941 0 0 0 0 0.0745098 0 0 0 0.5 0"/>
<feBlend mode="normal" in2="shape" result="effect1_innerShadow_73_1894"/>
</filter>
<filter id="filter1_i_73_1894" x="300.608" y="143.512" width="186.588" height="186.59" filterUnits="userSpaceOnUse" color-interpolation-filters="sRGB">
<feFlood flood-opacity="0" result="BackgroundImageFix"/>
<feBlend mode="normal" in="SourceGraphic" in2="BackgroundImageFix" result="shape"/>
<feColorMatrix in="SourceAlpha" type="matrix" values="0 0 0 0 0 0 0 0 0 0 0 0 0 0 0 0 0 0 127 0" result="hardAlpha"/>
<feOffset dx="-12" dy="-24"/>
<feComposite in2="hardAlpha" operator="arithmetic" k2="-1" k3="1"/>
<feColorMatrix type="matrix" values="0 0 0 0 0.509804 0 0 0 0 0.152941 0 0 0 0 0.0745098 0 0 0 0.5 0"/>
<feBlend mode="normal" in2="shape" result="effect1_innerShadow_73_1894"/>
</filter>
<clipPath id="clip0_73_1894">
<rect width="575" height="575" fill="white"/>
</clipPath>
</defs>
</svg>
