<svg width="575" height="575" viewBox="0 0 575 575" fill="none" xmlns="http://www.w3.org/2000/svg">
<g clip-path="url(#clip0_73_1896)">
<circle cx="234.073" cy="340.862" r="101.387" transform="rotate(-30 234.073 340.862)" fill="#4E20AF"/>
<path d="M265.071 252.467C266.021 250.634 265.992 248.538 265.381 246.566C258.72 225.058 245.719 206.03 228.048 191.997C209.554 177.31 186.892 168.847 163.299 167.815C145.527 167.211 130.943 163.915 118.996 159.106C106.235 153.97 67.3805 168.651 69.2599 182.278C76.2751 233.14 96.8562 289.7 153.768 288.961C239.552 287.848 260.461 261.358 265.071 252.467Z" fill="#08A034"/>
<path d="M280.664 273.338C231.929 222.417 204.665 145.809 236.08 78.2589C240.791 68.8187 248.938 61.5401 258.847 57.9164C268.756 54.2927 279.675 54.5987 289.365 58.7723C299.055 62.9459 306.779 70.6697 310.953 80.3593C315.128 90.0489 315.436 100.969 311.813 110.878C305.327 120.548 300.473 131.217 297.443 142.46C292.907 176.146 301.417 210.29 321.234 237.905L315.263 264.134C314.403 267.699 312.595 270.965 310.033 273.588C307.47 276.211 304.248 278.094 300.704 279.037C297.16 279.98 293.425 279.946 289.897 278.943C286.37 277.94 283.181 276.004 280.664 273.338Z" fill="#823B13"/>
<g filter="url(#filter0_i_73_1896)">
<ellipse cx="394.5" cy="248.239" rx="101.861" ry="101.387" transform="rotate(-30 394.5 248.239)" fill="#4E20AF"/>
</g>
<g filter="url(#filter1_i_73_1896)">
<circle cx="383.443" cy="417.647" r="101.387" transform="rotate(-30 383.443 417.647)" fill="#4E20AF"/>
</g>
<g style="mix-blend-mode:overlay">
<path fill-rule="evenodd" clip-rule="evenodd" d="M326.585 452.754C336.748 452.754 336.844 439.338 333.522 429.734C331.563 424.072 330.46 417.672 330.46 410.896C330.46 404.121 331.563 397.721 333.522 392.059C336.844 382.454 336.748 369.039 326.585 369.039V369.039C310.746 369.039 297.905 387.779 297.905 410.896C297.905 434.014 310.746 452.754 326.585 452.754V452.754Z" fill="#F9FCFC"/>
</g>
<g style="mix-blend-mode:overlay">
<path fill-rule="evenodd" clip-rule="evenodd" d="M189.191 387.373C199.354 387.373 199.449 373.958 196.127 364.353C194.169 358.691 193.066 352.291 193.066 345.516C193.066 338.74 194.169 332.34 196.127 326.678C199.449 317.074 199.354 303.658 189.191 303.658V303.658C173.351 303.658 160.511 322.398 160.511 345.516C160.511 368.633 173.351 387.373 189.191 387.373V387.373Z" fill="#F9FCFC"/>
</g>
<g style="mix-blend-mode:overlay">
<path fill-rule="evenodd" clip-rule="evenodd" d="M345.534 286.931C355.697 286.931 355.792 273.516 352.47 263.911C350.511 258.249 349.408 251.85 349.408 245.074C349.408 238.298 350.511 231.899 352.47 226.237C355.792 216.632 355.697 203.217 345.534 203.217V203.217C329.694 203.217 316.854 221.957 316.854 245.074C316.854 268.191 329.694 286.931 345.534 286.931V286.931Z" fill="#F9FCFC"/>
</g>
<mask id="path-9-outside-1_73_1896" maskUnits="userSpaceOnUse" x="14.1943" y="1.4043" width="537" height="572" fill="black">
<rect fill="white" x="14.1943" y="1.4043" width="537" height="572"/>
<path fill-rule="evenodd" clip-rule="evenodd" d="M146.27 391.556C173.882 439.382 234.576 456.201 282.76 429.796C284.347 442.996 288.572 456.099 295.64 468.341C323.637 516.834 385.644 533.449 434.137 505.452C482.63 477.454 499.245 415.447 471.248 366.954C464.184 354.718 454.954 344.512 444.323 336.54C444.614 336.376 444.904 336.21 445.194 336.043C493.914 307.915 510.712 245.801 482.715 197.308C454.717 148.815 392.526 132.306 343.807 160.435C325.731 170.871 312.049 185.985 303.419 203.347C296.787 183.953 294.662 163.121 297.444 142.46C300.473 131.218 305.328 120.549 311.814 110.879C315.437 100.97 315.129 90.0491 310.954 80.3595C306.78 70.6699 299.055 62.9461 289.365 58.7725C279.675 54.5989 268.756 54.2929 258.848 57.9166C248.939 61.5403 240.792 68.8189 236.081 78.2591C218.241 116.618 219.324 157.898 232.515 195.737C231.062 194.454 229.572 193.207 228.048 191.996C209.554 177.31 186.893 168.847 163.299 167.814C145.527 167.211 130.943 163.915 118.996 159.106C106.236 153.969 67.3808 168.651 69.2602 182.277C75.9929 231.091 95.2208 285.153 147.067 288.775C128.824 319.313 127.221 358.562 146.27 391.556Z"/>
</mask>
<path d="M282.76 429.796L336.375 423.352L326.845 344.059L256.809 382.44L282.76 429.796ZM146.27 391.556L193.035 364.556L193.035 364.556L146.27 391.556ZM295.64 468.341L248.874 495.341L248.874 495.341L295.64 468.341ZM434.137 505.452L461.137 552.217L461.137 552.217L434.137 505.452ZM471.248 366.954L518.013 339.954L518.013 339.954L471.248 366.954ZM444.323 336.54L417.775 289.517L345.797 330.154L411.926 379.743L444.323 336.54ZM445.194 336.043L418.194 289.277L418.194 289.278L445.194 336.043ZM482.715 197.308L435.949 224.308L435.949 224.308L482.715 197.308ZM343.807 160.435L316.807 113.669L316.807 113.669L343.807 160.435ZM303.419 203.347L252.324 220.819L294.186 343.235L351.774 227.383L303.419 203.347ZM297.444 142.46L245.303 128.413L244.394 131.788L243.927 135.253L297.444 142.46ZM311.814 110.879L356.66 140.959L360.292 135.544L362.531 129.421L311.814 110.879ZM310.954 80.3595L261.361 101.725L261.361 101.725L310.954 80.3595ZM289.365 58.7725L268.004 108.368L289.365 58.7725ZM258.848 57.9166L240.3 7.20165L240.3 7.20166L258.848 57.9166ZM236.081 78.2591L187.763 54.1463L187.431 54.8125L187.117 55.4876L236.081 78.2591ZM232.515 195.737L196.78 236.222L351.394 372.696L283.505 177.961L232.515 195.737ZM228.048 191.996L194.466 234.284L194.466 234.284L228.048 191.996ZM163.299 167.814L165.66 113.866L165.396 113.854L165.132 113.845L163.299 167.814ZM118.996 159.106L98.8325 209.2L98.8325 209.2L118.996 159.106ZM69.2602 182.277L15.7666 189.655L15.7666 189.655L69.2602 182.277ZM147.067 288.775L193.425 316.47L238.494 241.031L150.831 234.907L147.067 288.775ZM256.809 382.44C234.31 394.77 205.937 386.904 193.035 364.556L99.5042 418.556C141.827 491.861 234.843 517.632 308.712 477.151L256.809 382.44ZM342.405 441.341C339.052 435.533 337.106 429.441 336.375 423.352L229.146 436.239C231.587 456.551 238.092 476.665 248.874 495.341L342.405 441.341ZM407.137 458.686C384.472 471.772 355.491 464.006 342.405 441.341L248.874 495.341C291.783 569.662 386.817 595.126 461.137 552.217L407.137 458.686ZM424.482 393.954C437.568 416.619 429.802 445.601 407.137 458.686L461.137 552.217C535.458 509.308 560.922 414.274 518.013 339.954L424.482 393.954ZM411.926 379.743C416.83 383.42 421.131 388.149 424.482 393.954L518.013 339.954C507.236 321.288 493.078 305.605 476.72 293.338L411.926 379.743ZM418.194 289.278C418.051 289.36 417.912 289.439 417.775 289.517L470.871 383.563C471.316 383.313 471.757 383.061 472.195 382.808L418.194 289.278ZM435.949 224.308C448.917 246.768 441.292 275.942 418.194 289.277L472.194 382.808C546.536 339.887 572.508 244.834 529.48 170.308L435.949 224.308ZM370.807 207.2C393.904 193.865 422.982 201.848 435.949 224.308L529.48 170.308C486.453 95.7821 391.148 70.7482 316.807 113.669L370.807 207.2ZM351.774 227.383C355.816 219.253 362.198 212.171 370.807 207.2L316.807 113.669C289.264 129.571 268.282 152.718 255.064 179.31L351.774 227.383ZM243.927 135.253C240.017 164.288 243.005 193.568 252.324 220.819L354.514 185.874C350.569 174.339 349.306 161.953 350.961 149.668L243.927 135.253ZM266.968 80.7988C257.19 95.3761 249.871 111.461 245.303 128.413L349.585 156.508C351.076 150.974 353.466 145.721 356.66 140.959L266.968 80.7988ZM261.361 101.725C260.078 98.747 259.982 95.3879 261.097 92.3361L362.531 129.421C370.892 106.551 370.18 81.3512 360.547 58.9937L261.361 101.725ZM268.004 108.368C265.022 107.083 262.645 104.706 261.361 101.725L360.548 58.9937C350.914 36.6337 333.089 18.8087 310.727 9.1772L268.004 108.368ZM277.395 108.632C274.347 109.746 270.987 109.652 268.004 108.368L310.727 9.1772C288.364 -0.454655 263.165 -1.16032 240.3 7.20165L277.395 108.632ZM284.398 102.372C282.947 105.28 280.44 107.518 277.395 108.632L240.3 7.20166C217.438 15.5627 198.637 32.3576 187.763 54.1463L284.398 102.372ZM283.505 177.961C274.024 150.765 274.205 124.338 285.045 101.031L187.117 55.4876C162.277 108.898 164.623 165.032 181.525 213.513L283.505 177.961ZM194.466 234.284C195.256 234.911 196.027 235.557 196.78 236.222L268.25 155.252C266.096 153.351 263.888 151.502 261.63 149.708L194.466 234.284ZM160.939 221.763C173.156 222.297 184.89 226.68 194.466 234.284L261.63 149.708C234.218 127.94 200.629 115.396 165.66 113.866L160.939 221.763ZM98.8325 209.2C117.096 216.551 137.943 220.984 161.467 221.783L165.132 113.845C153.112 113.437 144.79 111.278 139.16 109.012L98.8325 209.2ZM122.754 174.899C124.423 187.002 121.088 196.766 117.944 202.641C114.994 208.151 111.742 211.27 110.521 212.366C108.198 214.452 107.528 214.307 109.855 213.313C111.782 212.489 113.53 212.058 114.126 211.962C114.386 211.921 113.485 212.099 111.615 212.047C110.137 212.006 105.216 211.769 98.8325 209.2L139.16 109.012C121.934 102.078 104.995 104.047 97.0291 105.324C86.809 106.963 76.568 110.09 67.4211 113.998C58.6743 117.736 47.8457 123.495 38.3675 132.005C31.0603 138.566 11.4949 158.684 15.7666 189.655L122.754 174.899ZM150.831 234.907C146.65 234.614 142.933 233.595 137.462 224.542C130.85 213.602 125.701 196.27 122.754 174.899L15.7666 189.655C19.5516 217.098 27.3834 251.204 45.0305 280.404C63.8183 311.491 95.6386 339.314 143.304 342.644L150.831 234.907ZM193.035 364.556C184.167 349.197 184.816 330.881 193.425 316.47L100.71 261.08C72.8316 307.745 70.2741 367.928 99.5042 418.556L193.035 364.556Z" fill="white" mask="url(#path-9-outside-1_73_1896)"/>
<mask id="path-11-outside-2_73_1896" maskUnits="userSpaceOnUse" x="32.1943" y="19.4043" width="501" height="536" fill="black">
<rect fill="white" x="32.1943" y="19.4043" width="501" height="536"/>
<path fill-rule="evenodd" clip-rule="evenodd" d="M146.27 391.556C173.882 439.382 234.576 456.201 282.76 429.796C284.347 442.996 288.572 456.099 295.64 468.341C323.637 516.834 385.644 533.449 434.137 505.452C482.63 477.454 499.245 415.447 471.248 366.954C464.184 354.718 454.954 344.512 444.323 336.54C444.614 336.376 444.904 336.21 445.194 336.043C493.914 307.915 510.712 245.801 482.715 197.308C454.717 148.815 392.526 132.306 343.807 160.435C325.731 170.871 312.049 185.985 303.419 203.347C296.787 183.953 294.662 163.121 297.444 142.46C300.473 131.218 305.328 120.549 311.814 110.879C315.437 100.97 315.129 90.0491 310.954 80.3595C306.78 70.6699 299.055 62.9461 289.365 58.7725C279.675 54.5989 268.756 54.2929 258.848 57.9166C248.939 61.5403 240.792 68.8189 236.081 78.2591C218.241 116.618 219.324 157.898 232.515 195.737C231.062 194.454 229.572 193.207 228.048 191.996C209.554 177.31 186.893 168.847 163.299 167.814C145.527 167.211 130.943 163.915 118.996 159.106C106.236 153.969 67.3808 168.651 69.2602 182.277C75.9929 231.091 95.2208 285.153 147.067 288.775C128.824 319.313 127.221 358.562 146.27 391.556Z"/>
</mask>
<path d="M282.76 429.796L318.503 425.5L312.15 372.638L265.459 398.225L282.76 429.796ZM146.27 391.556L177.446 373.556L177.446 373.556L146.27 391.556ZM295.64 468.341L264.463 486.341L264.463 486.341L295.64 468.341ZM434.137 505.452L452.137 536.629L452.137 536.628L434.137 505.452ZM471.248 366.954L502.425 348.954L502.425 348.954L471.248 366.954ZM444.323 336.54L426.624 305.191L378.639 332.283L422.725 365.342L444.323 336.54ZM445.194 336.043L427.194 304.866L427.194 304.866L445.194 336.043ZM482.715 197.308L451.538 215.308L451.538 215.308L482.715 197.308ZM343.807 160.435L325.807 129.258L325.807 129.258L343.807 160.435ZM303.419 203.347L269.355 214.995L297.263 296.606L335.656 219.371L303.419 203.347ZM297.444 142.46L262.684 133.095L262.077 135.345L261.766 137.655L297.444 142.46ZM311.814 110.879L341.712 130.932L344.133 127.322L345.625 123.24L311.814 110.879ZM310.954 80.3595L277.892 94.6034L277.892 94.6034L310.954 80.3595ZM289.365 58.7725L275.124 91.836L289.365 58.7725ZM258.848 57.9166L246.483 24.1066L246.483 24.1066L258.848 57.9166ZM236.081 78.2591L203.869 62.1839L203.647 62.628L203.438 63.0781L236.081 78.2591ZM232.515 195.737L208.692 222.727L311.768 313.71L266.509 183.886L232.515 195.737ZM228.048 191.996L205.66 220.188L205.66 220.188L228.048 191.996ZM163.299 167.814L164.873 131.849L164.697 131.841L164.521 131.835L163.299 167.814ZM118.996 159.106L105.554 192.502L105.554 192.502L118.996 159.106ZM69.2602 182.277L33.5978 187.196L33.5978 187.196L69.2602 182.277ZM147.067 288.775L177.972 307.238L208.018 256.946L149.577 252.863L147.067 288.775ZM265.459 398.225C234.399 415.247 195.252 404.397 177.446 373.556L115.093 409.556C152.512 474.368 234.754 497.155 300.061 461.366L265.459 398.225ZM326.816 450.341C322.225 442.388 319.52 433.959 318.503 425.5L247.018 434.091C249.174 452.032 254.918 469.81 264.463 486.341L326.816 450.341ZM416.137 474.275C384.863 492.331 344.873 481.616 326.816 450.341L264.463 486.341C302.401 552.053 386.426 574.567 452.137 536.629L416.137 474.275ZM440.071 384.954C458.127 416.228 447.412 456.218 416.137 474.275L452.137 536.628C517.849 498.69 540.363 414.665 502.425 348.954L440.071 384.954ZM422.725 365.342C429.538 370.451 435.482 377.005 440.071 384.954L502.425 348.954C492.885 332.431 480.37 318.574 465.921 307.738L422.725 365.342ZM427.194 304.866C427.002 304.977 426.813 305.085 426.624 305.191L462.022 367.889C462.415 367.667 462.806 367.444 463.195 367.219L427.194 304.866ZM451.538 215.308C469.515 246.446 458.832 286.6 427.194 304.866L463.194 367.22C528.995 329.23 551.909 245.156 513.892 179.308L451.538 215.308ZM361.807 191.612C393.445 173.345 433.561 184.171 451.538 215.308L513.892 179.308C475.874 113.46 391.608 91.2676 325.807 129.258L361.807 191.612ZM335.656 219.371C341.227 208.164 350.042 198.404 361.807 191.612L325.807 129.258C301.42 143.338 282.871 163.807 271.182 187.322L335.656 219.371ZM261.766 137.655C258.232 163.899 260.932 190.363 269.355 214.995L337.482 191.698C332.642 177.544 331.091 162.342 333.122 147.266L261.766 137.655ZM281.916 90.8254C273.236 103.767 266.738 118.046 262.684 133.095L332.205 151.826C334.208 144.389 337.42 137.33 341.712 130.932L281.916 90.8254ZM277.892 94.6034C278.428 95.8477 278.467 97.2485 278.003 98.5169L345.625 123.24C352.407 104.691 351.829 84.2505 344.016 66.1156L277.892 94.6034ZM275.124 91.836C276.367 92.371 277.357 93.3608 277.892 94.6034L344.016 66.1157C336.203 47.9791 321.744 33.5212 303.606 25.709L275.124 91.836ZM271.212 91.7266C272.484 91.2616 273.883 91.3012 275.124 91.836L303.606 25.709C285.468 17.8965 265.029 17.3241 246.483 24.1066L271.212 91.7266ZM268.292 94.3343C268.895 93.1264 269.939 92.1921 271.212 91.7266L246.483 24.1066C227.938 30.8886 212.689 44.5114 203.869 62.1839L268.292 94.3343ZM266.509 183.886C255.791 153.143 255.55 121.765 268.723 93.4401L203.438 63.0781C180.932 111.471 182.857 162.654 198.522 207.588L266.509 183.886ZM205.66 220.188C206.695 221.01 207.705 221.856 208.692 222.727L256.338 168.747C254.418 167.052 252.45 165.403 250.436 163.804L205.66 220.188ZM161.725 203.78C177.735 204.48 193.112 210.223 205.66 220.188L250.436 163.804C225.997 144.397 196.05 133.213 164.873 131.849L161.725 203.78ZM105.554 192.502C121.712 199.006 140.471 203.06 162.078 203.793L164.521 131.835C150.584 131.362 140.174 128.823 132.439 125.71L105.554 192.502ZM104.923 177.358C105.957 184.859 103.868 190.795 102.074 194.147C100.41 197.255 98.7129 198.777 98.4953 198.973C98.1547 199.278 98.3166 199.076 99.2318 198.531C100.093 198.018 101.292 197.397 102.783 196.76C105.913 195.423 109.077 194.542 111.276 194.189C112.351 194.017 112.603 194.067 112.116 194.054C111.89 194.048 109.278 194.001 105.554 192.502L132.439 125.71C119.891 120.659 106.992 121.957 99.8785 123.097C91.2626 124.479 82.4371 127.157 74.4935 130.551C66.8167 133.831 57.9045 138.654 50.393 145.399C44.329 150.843 30.5934 165.413 33.5978 187.196L104.923 177.358ZM149.577 252.863C138.148 252.064 129.747 246.578 122.056 233.853C113.606 219.869 108.01 199.742 104.923 177.358L33.5978 187.196C37.2433 213.626 44.6278 244.937 60.4357 271.093C77.004 298.508 104.14 321.864 144.558 324.688L149.577 252.863ZM177.446 373.556C165.185 352.319 166.152 327.025 177.972 307.238L116.163 270.312C91.4956 311.601 89.2563 364.806 115.093 409.556L177.446 373.556Z" fill="#1E1C35" mask="url(#path-11-outside-2_73_1896)"/>
</g>
<defs>
<filter id="filter0_i_73_1896" x="292.74" y="146.717" width="203.52" height="203.045" filterUnits="userSpaceOnUse" color-interpolation-filters="sRGB">
<feFlood flood-opacity="0" result="BackgroundImageFix"/>
<feBlend mode="normal" in="SourceGraphic" in2="BackgroundImageFix" result="shape"/>
<feColorMatrix in="SourceAlpha" type="matrix" values="0 0 0 0 0 0 0 0 0 0 0 0 0 0 0 0 0 0 127 0" result="hardAlpha"/>
<feOffset dx="-40" dy="-20"/>
<feComposite in2="hardAlpha" operator="arithmetic" k2="-1" k3="1"/>
<feColorMatrix type="matrix" values="0 0 0 0 0.25098 0 0 0 0 0.0196078 0 0 0 0 0.541176 0 0 0 1 0"/>
<feBlend mode="normal" in2="shape" result="effect1_innerShadow_73_1896"/>
</filter>
<filter id="filter1_i_73_1896" x="282.039" y="316.242" width="202.809" height="202.811" filterUnits="userSpaceOnUse" color-interpolation-filters="sRGB">
<feFlood flood-opacity="0" result="BackgroundImageFix"/>
<feBlend mode="normal" in="SourceGraphic" in2="BackgroundImageFix" result="shape"/>
<feColorMatrix in="SourceAlpha" type="matrix" values="0 0 0 0 0 0 0 0 0 0 0 0 0 0 0 0 0 0 127 0" result="hardAlpha"/>
<feOffset dx="-40" dy="-20"/>
<feComposite in2="hardAlpha" operator="arithmetic" k2="-1" k3="1"/>
<feColorMatrix type="matrix" values="0 0 0 0 0.25098 0 0 0 0 0.0196078 0 0 0 0 0.541176 0 0 0 1 0"/>
<feBlend mode="normal" in2="shape" result="effect1_innerShadow_73_1896"/>
</filter>
<clipPath id="clip0_73_1896">
<rect width="575" height="575" fill="white"/>
</clipPath>
</defs>
</svg>
