<svg width="575" height="575" viewBox="0 0 575 575" fill="none" xmlns="http://www.w3.org/2000/svg">
<mask id="path-1-outside-1_73_1903" maskUnits="userSpaceOnUse" x="17.957" y="9.91211" width="554" height="561" fill="black">
<rect fill="white" x="17.957" y="9.91211" width="554" height="561"/>
<path fill-rule="evenodd" clip-rule="evenodd" d="M411.375 90.5079C409.704 88.2172 407.88 86.0458 405.899 84.0012C361.482 38.162 255.302 73.4244 168.738 162.762C92.0349 241.923 56.4706 336.979 80.2641 389.499L79.3973 390.366C117.771 465.155 195.659 516.331 285.498 516.331C325.194 516.331 362.557 506.34 395.208 488.735C407.846 481.921 423.33 482.29 438.149 482.643C441.399 482.72 444.617 482.797 447.766 482.797C471.665 482.797 491.038 463.424 491.038 439.526C491.038 435.067 490.829 430.477 490.619 425.844C489.945 411.022 489.251 395.746 495.296 382.827C509.221 353.067 517 319.857 517 284.829C517 203.391 474.949 131.774 411.375 90.5079Z"/>
</mask>
<path d="M405.899 84.0012L367.118 121.578L367.118 121.578L405.899 84.0012ZM411.375 90.5079L367.746 122.328C371.628 127.65 376.45 132.216 381.974 135.802L411.375 90.5079ZM168.738 162.762L207.519 200.339L168.738 162.762ZM80.2641 389.499L118.448 427.682C134.347 411.783 138.73 387.696 129.452 367.215L80.2641 389.499ZM79.3973 390.366L41.2133 352.182C24.6315 368.764 20.6472 394.153 31.3525 415.017L79.3973 390.366ZM395.208 488.735L369.58 441.204L369.58 441.204L395.208 488.735ZM438.149 482.643L439.436 428.658L439.436 428.658L438.149 482.643ZM490.619 425.844L436.674 428.295L436.674 428.295L490.619 425.844ZM495.296 382.827L446.385 359.941L446.385 359.941L495.296 382.827ZM367.118 121.578C367.329 121.796 367.537 122.041 367.746 122.328L455.004 58.6877C451.872 54.3931 448.43 50.2951 444.68 46.4242L367.118 121.578ZM207.519 200.339C246.121 160.5 287.157 134.893 320.143 123.938C356.014 112.025 366.731 121.18 367.118 121.578L444.68 46.4242C400.65 0.983731 336.069 4.84946 286.104 21.4425C233.255 38.9937 177.919 75.6866 129.957 125.185L207.519 200.339ZM129.452 367.215C126.267 360.185 123.89 340.076 137.201 305.543C149.742 273.008 173.482 235.466 207.519 200.339L129.957 125.185C87.2906 169.218 54.8971 218.785 36.4285 266.699C18.73 312.614 10.4675 366.292 31.0764 411.783L129.452 367.215ZM117.581 428.549L118.448 427.682L42.0801 351.315L41.2133 352.182L117.581 428.549ZM285.498 462.331C216.692 462.331 156.934 423.193 127.442 365.714L31.3525 415.017C78.6088 507.118 174.625 570.331 285.498 570.331V462.331ZM369.58 441.204C344.609 454.668 316.029 462.331 285.498 462.331V570.331C334.36 570.331 380.504 558.012 420.835 536.266L369.58 441.204ZM439.436 428.658C428.116 428.388 397.136 426.346 369.58 441.204L420.835 536.266C418.69 537.423 418.026 537.047 421.125 536.744C422.601 536.599 424.564 536.503 427.286 536.487C430.081 536.47 433.024 536.536 436.862 536.628L439.436 428.658ZM447.766 428.797C445.372 428.797 442.805 428.739 439.436 428.658L436.862 536.628C439.993 536.702 443.863 536.797 447.766 536.797V428.797ZM437.038 439.526C437.038 433.6 441.841 428.797 447.766 428.797V536.797C501.488 536.797 545.038 493.247 545.038 439.526H437.038ZM436.674 428.295C436.896 433.164 437.038 436.508 437.038 439.526H545.038C545.038 433.626 544.763 427.791 544.563 423.392L436.674 428.295ZM446.385 359.941C433.671 387.114 436.145 416.649 436.674 428.295L544.563 423.392C544.2 415.406 544.06 410.995 544.312 407.303C544.541 403.96 544.969 404.083 544.206 405.713L446.385 359.941ZM463 284.829C463 311.785 457.028 337.197 446.385 359.941L544.206 405.713C561.414 368.938 571 327.928 571 284.829H463ZM381.974 135.802C430.857 167.533 463 222.442 463 284.829H571C571 184.339 519.041 96.0156 440.776 45.2135L381.974 135.802Z" fill="white" mask="url(#path-1-outside-1_73_1903)"/>
<mask id="path-3-outside-2_73_1903" maskUnits="userSpaceOnUse" x="35.957" y="27.9121" width="518" height="525" fill="black">
<rect fill="white" x="35.957" y="27.9121" width="518" height="525"/>
<path fill-rule="evenodd" clip-rule="evenodd" d="M411.375 90.5079C409.704 88.2172 407.88 86.0458 405.899 84.0012C361.482 38.162 255.302 73.4244 168.738 162.762C92.0349 241.923 56.4706 336.979 80.2641 389.499L79.3973 390.366C117.771 465.155 195.659 516.331 285.498 516.331C325.194 516.331 362.557 506.34 395.208 488.735C407.846 481.921 423.33 482.29 438.149 482.643C441.399 482.72 444.617 482.797 447.766 482.797C471.665 482.797 491.038 463.424 491.038 439.526C491.038 435.067 490.829 430.477 490.619 425.844C489.945 411.022 489.251 395.746 495.296 382.827C509.221 353.067 517 319.857 517 284.829C517 203.391 474.949 131.774 411.375 90.5079Z"/>
</mask>
<path d="M405.899 84.0012L380.045 109.053L380.045 109.053L405.899 84.0012ZM411.375 90.5079L382.289 111.721C384.877 115.269 388.091 118.313 391.775 120.704L411.375 90.5079ZM168.738 162.762L194.592 187.813L168.738 162.762ZM80.2641 389.499L105.72 414.954C116.319 404.355 119.242 388.297 113.056 374.643L80.2641 389.499ZM79.3973 390.366L53.9413 364.91C42.8868 375.965 40.2306 392.89 47.3674 406.8L79.3973 390.366ZM395.208 488.735L378.123 457.047L378.123 457.047L395.208 488.735ZM438.149 482.643L439.007 446.653L439.007 446.653L438.149 482.643ZM490.619 425.844L454.656 427.478L454.656 427.478L490.619 425.844ZM495.296 382.827L462.689 367.57L462.689 367.57L495.296 382.827ZM380.045 109.053C380.846 109.88 381.593 110.767 382.289 111.721L440.461 69.2944C437.816 65.6678 434.913 62.212 431.753 58.9498L380.045 109.053ZM194.592 187.813C234.754 146.364 278.174 118.91 314.47 106.856C352.69 94.1627 372.384 101.147 380.045 109.053L431.753 58.9499C394.997 21.0164 339.393 22.7121 291.778 38.5251C242.239 54.9769 189.286 89.8221 142.884 137.711L194.592 187.813ZM113.056 374.643C106.967 361.203 106.363 335.499 120.406 299.069C133.935 263.971 159.117 224.425 194.592 187.813L142.884 137.711C101.656 180.26 70.7046 227.823 53.2239 273.173C36.2567 317.191 29.7675 365.274 47.4723 404.355L113.056 374.643ZM104.853 415.821L105.72 414.954L54.8081 364.043L53.9413 364.91L104.853 415.821ZM285.498 480.331C209.681 480.331 143.88 437.18 111.427 373.931L47.3674 406.8C91.663 493.131 181.636 552.331 285.498 552.331V480.331ZM378.123 457.047C350.591 471.892 319.084 480.331 285.498 480.331V552.331C331.305 552.331 374.522 540.788 412.293 520.422L378.123 457.047ZM439.007 446.653C426.521 446.356 400.706 444.871 378.123 457.047L412.293 520.423C414.987 518.97 420.14 518.224 437.291 518.633L439.007 446.653ZM447.766 446.797C445.121 446.797 442.337 446.733 439.007 446.653L437.291 518.633C440.462 518.708 444.114 518.797 447.766 518.797V446.797ZM455.038 439.526C455.038 443.542 451.782 446.797 447.766 446.797V518.797C491.547 518.797 527.038 483.306 527.038 439.526H455.038ZM454.656 427.478C454.873 432.268 455.038 436.027 455.038 439.526H527.038C527.038 434.106 526.785 428.687 526.582 424.209L454.656 427.478ZM462.689 367.57C452.197 389.991 454.078 414.774 454.656 427.478L526.582 424.209C525.812 407.27 526.304 401.5 527.903 398.084L462.689 367.57ZM481 284.829C481 314.475 474.425 342.487 462.689 367.57L527.903 398.084C544.016 363.647 553 325.238 553 284.829H481ZM391.775 120.704C445.554 155.613 481 216.092 481 284.829H553C553 190.69 504.343 107.935 430.976 60.3117L391.775 120.704Z" fill="#1E1C35" mask="url(#path-3-outside-2_73_1903)"/>
<path fill-rule="evenodd" clip-rule="evenodd" d="M79.3975 390.366C117.771 465.156 195.659 516.331 285.499 516.331C325.194 516.331 362.557 506.34 395.208 488.736C407.846 481.921 423.33 482.29 438.149 482.644C441.399 482.721 444.618 482.798 447.767 482.798C471.665 482.798 491.038 463.424 491.038 439.526C491.038 435.067 490.829 430.478 490.619 425.844C489.945 411.022 489.251 395.746 495.296 382.828C509.221 353.068 517 319.857 517 284.83C517 194.99 465.825 117.103 391.035 78.7285L79.3975 390.366Z" fill="#592507"/>
<path fill-rule="evenodd" clip-rule="evenodd" d="M424.747 99.8733C414.177 91.9033 402.903 84.8184 391.034 78.7285L196.221 273.542L82.5303 396.262C121.907 467.832 198.039 516.331 285.498 516.331C303.262 516.331 320.559 514.33 337.175 510.542C345.246 506.998 353.097 502.992 360.7 498.552C369.152 493.616 379.064 492.152 389.241 491.841C391.247 490.834 393.236 489.799 395.207 488.736C407.846 481.921 423.33 482.29 438.149 482.644C439.115 482.667 440.078 482.69 441.038 482.71C452.012 473.945 459.127 459.872 459.127 444.004C459.127 439.033 458.91 433.932 458.691 428.787V428.786V428.786C457.99 412.314 457.269 395.386 463.588 380.78C477.887 347.73 485.873 310.86 485.873 271.977C485.873 205.811 462.748 145.476 424.747 99.8733Z" fill="#823B13"/>
<ellipse cx="225.24" cy="115.571" rx="225.24" ry="115.571" transform="matrix(0.695871 -0.718167 0.695871 0.718167 12 324.52)" fill="#89AC25"/>
<ellipse cx="183.308" cy="94.0556" rx="183.308" ry="94.0556" transform="matrix(0.695871 -0.718167 0.695871 0.718167 43.417 301.912)" fill="#B0DA39"/>
<ellipse cx="87.5897" cy="44.9423" rx="87.5897" ry="44.9423" transform="matrix(0.695871 -0.718167 0.695871 0.718167 131.389 259.111)" fill="#FBFE71"/>
</svg>
