<svg width="575" height="575" viewBox="0 0 575 575" fill="none" xmlns="http://www.w3.org/2000/svg">
<g clip-path="url(#clip0_73_1901)">
<mask id="path-1-outside-1_73_1901" maskUnits="userSpaceOnUse" x="16.3711" y="1.41406" width="562" height="580" fill="black">
<rect fill="white" x="16.3711" y="1.41406" width="562" height="580"/>
<path fill-rule="evenodd" clip-rule="evenodd" d="M161.414 160.698C152.879 165.993 140.686 171.486 123.266 176.397C100.344 182.859 83.4395 170.091 71.3551 152.162C64.2234 141.581 97.7786 108.842 110.209 105.959C122.705 103.19 135.711 104.118 147.652 108.591C144.717 95.0697 145.508 80.7442 151.572 67.0144C153.548 62.8424 156.982 59.5405 161.169 57.7859C165.356 56.0313 169.977 55.9571 174.087 57.5789C178.196 59.2007 181.48 62.3952 183.265 66.5069C185.051 70.6186 185.202 75.3358 183.688 79.6899C180.961 83.9947 178.927 88.7007 177.667 93.6204C175.975 106.987 178.878 120.314 185.806 131.332C189.685 129.963 193.858 129.218 198.206 129.218C207.373 129.218 217.312 131.157 227.36 133.117C242.685 136.106 258.263 139.145 271.742 135.43C288.635 130.773 306.427 128.286 324.8 128.286C434.816 128.286 524.001 217.471 524.001 327.486C524.001 357.626 517.307 386.203 505.324 411.811C500.123 422.927 500.72 436.071 501.3 448.824C501.481 452.811 501.661 456.76 501.661 460.596C501.661 481.16 484.99 497.83 464.427 497.83C461.718 497.83 458.949 497.764 456.154 497.697C443.403 497.394 430.079 497.076 419.204 502.94C391.108 518.089 358.958 526.686 324.8 526.686C214.785 526.686 125.6 437.501 125.6 327.486C125.6 289.156 136.426 253.354 155.188 222.972C162.73 210.757 162.012 194.299 161.342 178.926C161.155 174.645 160.972 170.449 160.972 166.451C160.972 164.494 161.123 162.573 161.414 160.698Z"/>
</mask>
<path d="M161.414 160.698L214.776 168.975L232.786 52.8704L132.946 114.811L161.414 160.698ZM123.266 176.397L137.918 228.372L137.918 228.372L123.266 176.397ZM71.3551 152.162L26.5769 182.343L26.5769 182.343L71.3551 152.162ZM110.209 105.959L98.526 53.2381L98.2679 53.2953L98.0103 53.3551L110.209 105.959ZM147.652 108.591L128.707 159.159L221.429 193.897L200.423 97.1354L147.652 108.591ZM151.572 67.0144L102.769 43.9021L102.464 44.5458L102.176 45.1974L151.572 67.0144ZM161.169 57.7859L140.297 7.98274L140.297 7.98276L161.169 57.7859ZM174.087 57.5789L154.262 107.808L174.087 57.5789ZM183.265 66.5069L232.797 44.9986L232.797 44.9986L183.265 66.5069ZM183.688 79.6899L229.308 108.583L232.644 103.316L234.692 97.4273L183.688 79.6899ZM177.667 93.6204L125.356 80.2195L124.519 83.4895L124.095 86.8384L177.667 93.6204ZM185.806 131.332L140.094 160.079L163.076 196.624L203.784 182.252L185.806 131.332ZM227.36 133.117L237.699 80.1158L237.699 80.1158L227.36 133.117ZM271.742 135.43L286.092 187.488L286.092 187.488L271.742 135.43ZM505.324 411.811L554.235 434.697L554.235 434.697L505.324 411.811ZM501.3 448.824L555.244 446.373L555.244 446.373L501.3 448.824ZM456.154 497.697L454.867 551.682L454.867 551.682L456.154 497.697ZM419.204 502.94L393.576 455.409L393.576 455.409L419.204 502.94ZM155.188 222.972L109.242 194.6L109.242 194.6L155.188 222.972ZM161.342 178.926L107.393 181.279L107.393 181.279L161.342 178.926ZM132.946 114.811C129.672 116.842 122.393 120.539 108.614 124.423L137.918 228.372C158.979 222.434 176.087 215.143 189.882 206.584L132.946 114.811ZM108.614 124.423C109.164 124.268 110.859 123.928 113.287 124.204C115.694 124.478 117.619 125.22 118.821 125.866C119.9 126.447 120.045 126.754 119.393 126.106C118.732 125.45 117.601 124.158 116.133 121.981L26.5769 182.343C35.412 195.452 48.6081 210.735 67.672 220.986C88.3302 232.095 112.687 235.484 137.918 228.372L108.614 124.423ZM116.133 121.981C124.913 135.007 124.865 147.966 123.978 154.508C123.13 160.766 121.173 164.633 120.817 165.335C120.046 166.853 120.387 165.787 123.241 162.675C125.733 159.958 128.516 157.459 130.596 155.876C131.626 155.092 131.904 154.976 131.396 155.265C131.114 155.426 130.324 155.863 129.075 156.403C127.916 156.904 125.617 157.819 122.407 158.563L98.0103 53.3551C82.8737 56.8651 70.6213 65.7999 65.1855 69.9373C57.7008 75.6342 50.2103 82.5214 43.6511 89.6724C37.4547 96.4279 29.9669 105.712 24.5217 116.434C21.8285 121.738 18.3227 129.921 16.9562 140.006C15.5512 150.375 16.0142 166.672 26.5769 182.343L116.133 121.981ZM121.891 158.68C124.167 158.176 126.535 158.345 128.707 159.159L166.597 58.0237C144.888 49.8905 121.243 48.2042 98.526 53.2381L121.891 158.68ZM200.423 97.1354C200.008 95.223 199.942 93.6579 200.047 92.4165C200.147 91.2209 200.425 90.0636 200.969 88.8314L102.176 45.1974C90.9886 70.5268 89.8011 96.646 94.8813 120.047L200.423 97.1354ZM200.376 90.1266C196.756 97.7709 190.361 104.102 182.041 107.589L140.297 7.98276C123.603 14.979 110.34 27.914 102.769 43.9021L200.376 90.1266ZM182.041 107.589C173.638 111.111 163.654 111.515 154.262 107.808L193.911 7.34966C176.301 0.399287 157.073 0.951749 140.297 7.98274L182.041 107.589ZM154.262 107.808C144.833 104.087 137.557 96.8194 133.733 88.0152L232.797 44.9986C225.403 27.9709 211.558 14.3145 193.911 7.34966L154.262 107.808ZM133.733 88.0152C129.954 79.3118 129.884 70.0029 132.684 61.9525L234.692 97.4273C240.52 80.6687 240.147 61.9254 232.797 44.9986L133.733 88.0152ZM138.068 50.797C132.324 59.8656 128.026 69.7969 125.356 80.2195L229.978 107.021C229.828 107.605 229.599 108.124 229.308 108.583L138.068 50.797ZM124.095 86.8384C120.878 112.245 126.325 138.184 140.094 160.079L231.519 102.585C231.43 102.444 231.071 101.729 231.239 100.402L124.095 86.8384ZM203.784 182.252C201.969 182.893 200.067 183.218 198.206 183.218V75.2176C187.65 75.2176 177.401 77.0327 167.828 80.4126L203.784 182.252ZM198.206 183.218C201.157 183.218 205.705 183.91 217.02 186.118L237.699 80.1158C228.918 78.4028 213.588 75.2176 198.206 75.2176V183.218ZM217.02 186.118C228.835 188.422 257.974 195.239 286.092 187.488L257.392 83.3715C259.221 82.8675 259.07 83.3609 255.045 83.0016C250.833 82.6256 245.91 81.7176 237.699 80.1158L217.02 186.118ZM286.092 187.488C298.355 184.108 311.322 182.286 324.8 182.286V74.286C301.533 74.286 278.916 77.4386 257.392 83.3715L286.092 187.488ZM324.8 182.286C404.992 182.286 470.001 247.294 470.001 327.486H578.001C578.001 187.648 464.639 74.286 324.8 74.286V182.286ZM470.001 327.486C470.001 349.555 465.114 370.333 456.414 388.925L554.235 434.697C569.5 402.074 578.001 365.698 578.001 327.486H470.001ZM456.414 388.925C444.543 414.295 446.92 441.698 447.356 451.276L555.244 446.373C555.094 443.058 554.985 440.597 554.945 438.275C554.905 436.023 554.944 434.48 555.019 433.385C555.178 431.059 555.419 432.165 554.235 434.697L456.414 388.925ZM447.356 451.276C447.547 455.497 447.661 458.2 447.661 460.596H555.661C555.661 455.319 555.415 450.125 555.244 446.373L447.356 451.276ZM447.661 460.596C447.661 451.337 455.167 443.83 464.427 443.83V551.83C514.814 551.83 555.661 510.983 555.661 460.596H447.661ZM464.427 443.83C462.472 443.83 460.355 443.782 457.44 443.713L454.867 551.682C457.544 551.746 460.963 551.83 464.427 551.83V443.83ZM457.44 443.713C448.188 443.492 419.368 441.502 393.576 455.409L444.833 550.471C441.805 552.103 440.161 551.952 442.24 551.749C443.206 551.654 444.65 551.576 446.852 551.563C449.126 551.549 451.545 551.603 454.867 551.682L457.44 443.713ZM393.576 455.409C373.16 466.417 349.793 472.686 324.8 472.686V580.686C368.124 580.686 409.057 569.761 444.833 550.471L393.576 455.409ZM324.8 472.686C244.609 472.686 179.6 407.678 179.6 327.486H71.6003C71.6003 467.325 184.962 580.686 324.8 580.686V472.686ZM179.6 327.486C179.6 299.462 187.486 273.445 201.134 251.344L109.242 194.6C85.3668 233.263 71.6003 278.849 71.6003 327.486H179.6ZM201.134 251.344C210.975 235.407 214.046 219.009 215.128 206.966C216.186 195.185 215.595 183.554 215.29 176.573L107.393 181.279C107.567 185.267 107.695 188.305 107.727 191.182C107.759 193.991 107.684 195.931 107.561 197.301C107.284 200.383 106.943 198.322 109.242 194.6L201.134 251.344ZM215.29 176.573C215.093 172.047 214.972 169.059 214.972 166.451H106.972C106.972 171.838 107.217 177.243 107.393 181.279L215.29 176.573ZM214.972 166.451C214.972 167.276 214.908 168.121 214.776 168.975L108.052 152.42C107.338 157.024 106.972 161.713 106.972 166.451H214.972Z" fill="white" mask="url(#path-1-outside-1_73_1901)"/>
<mask id="path-3-outside-2_73_1901" maskUnits="userSpaceOnUse" x="34.3711" y="19.4141" width="526" height="544" fill="black">
<rect fill="white" x="34.3711" y="19.4141" width="526" height="544"/>
<path fill-rule="evenodd" clip-rule="evenodd" d="M161.414 160.698C152.879 165.993 140.686 171.486 123.266 176.397C100.344 182.859 83.4395 170.091 71.3551 152.162C64.2234 141.581 97.7786 108.842 110.209 105.959C122.705 103.19 135.711 104.118 147.652 108.591C144.717 95.0697 145.508 80.7442 151.572 67.0144C153.548 62.8424 156.982 59.5405 161.169 57.7859C165.356 56.0313 169.977 55.9571 174.087 57.5789C178.196 59.2007 181.48 62.3952 183.265 66.5069C185.051 70.6186 185.202 75.3358 183.688 79.6899C180.961 83.9947 178.927 88.7007 177.667 93.6204C175.975 106.987 178.878 120.314 185.806 131.332C189.685 129.963 193.858 129.218 198.206 129.218C207.373 129.218 217.312 131.157 227.36 133.117C242.685 136.106 258.263 139.145 271.742 135.43C288.635 130.773 306.427 128.286 324.8 128.286C434.816 128.286 524.001 217.471 524.001 327.486C524.001 357.626 517.307 386.203 505.324 411.811C500.123 422.927 500.72 436.071 501.3 448.824C501.481 452.811 501.661 456.76 501.661 460.596C501.661 481.16 484.99 497.83 464.427 497.83C461.718 497.83 458.949 497.764 456.154 497.697C443.403 497.394 430.079 497.076 419.204 502.94C391.108 518.089 358.958 526.686 324.8 526.686C214.785 526.686 125.6 437.501 125.6 327.486C125.6 289.156 136.426 253.354 155.188 222.972C162.73 210.757 162.012 194.299 161.342 178.926C161.155 174.645 160.972 170.449 160.972 166.451C160.972 164.494 161.123 162.573 161.414 160.698Z"/>
</mask>
<path d="M161.414 160.698L196.988 166.216L208.995 88.8128L142.435 130.107L161.414 160.698ZM123.266 176.397L133.034 211.047L133.034 211.047L123.266 176.397ZM71.3551 152.162L41.5029 172.283L41.5029 172.283L71.3551 152.162ZM110.209 105.959L102.42 70.8118L102.248 70.85L102.076 70.8898L110.209 105.959ZM147.652 108.591L135.022 142.303L196.837 165.461L182.833 100.954L147.652 108.591ZM151.572 67.0144L119.036 51.6062L118.833 52.0353L118.641 52.4697L151.572 67.0144ZM161.169 57.7859L147.254 24.5838L147.254 24.5838L161.169 57.7859ZM174.087 57.5789L160.87 91.0651L174.087 57.5789ZM183.265 66.5069L216.286 52.168L216.286 52.168L183.265 66.5069ZM183.688 79.6899L214.101 98.9518L216.325 95.4405L217.69 91.5148L183.688 79.6899ZM177.667 93.6204L142.793 84.6865L142.235 86.8665L141.952 89.0991L177.667 93.6204ZM185.806 131.332L155.331 150.496L170.653 174.86L197.792 165.278L185.806 131.332ZM227.36 133.117L234.253 97.7827L234.253 97.7827L227.36 133.117ZM271.742 135.43L281.309 170.136L281.309 170.136L271.742 135.43ZM505.324 411.811L537.931 427.068L537.931 427.068L505.324 411.811ZM501.3 448.824L537.263 447.19L537.263 447.19L501.3 448.824ZM456.154 497.697L455.296 533.687L455.296 533.687L456.154 497.697ZM419.204 502.94L402.119 471.252L402.119 471.252L419.204 502.94ZM155.188 222.972L124.557 204.057L124.557 204.057L155.188 222.972ZM161.342 178.926L125.376 180.494L125.376 180.494L161.342 178.926ZM142.435 130.107C137.408 133.226 128.491 137.521 113.498 141.748L133.034 211.047C152.881 205.452 168.351 198.759 180.393 191.289L142.435 130.107ZM113.498 141.748C111.954 142.183 111.3 142.094 111.253 142.089C111.192 142.082 110.928 142.06 110.296 141.72C108.669 140.845 105.387 138.243 101.207 132.041L41.5029 172.283C49.4071 184.01 60.6202 196.757 76.1967 205.133C92.8362 214.08 112.393 216.866 133.034 211.047L113.498 141.748ZM101.207 132.041C106.763 140.284 106.646 148.368 106.141 152.091C105.881 154.009 105.463 155.374 105.218 156.076C104.964 156.803 104.769 157.181 104.768 157.185C104.759 157.202 104.856 157.01 105.112 156.607C105.363 156.21 105.718 155.687 106.192 155.045C107.155 153.742 108.428 152.196 109.976 150.508C113.146 147.052 116.714 143.821 119.695 141.553C121.178 140.423 122.131 139.827 122.49 139.623C123.227 139.203 121.648 140.262 118.341 141.029L102.076 70.8898C90.9495 73.47 81.3053 80.2888 76.0873 84.2604C69.5034 89.2716 62.7974 95.4275 56.9161 101.84C51.2767 107.988 44.9801 115.902 40.5709 124.584C38.3859 128.887 35.7906 135.062 34.7932 142.423C33.7701 149.974 34.164 161.395 41.5029 172.283L101.207 132.041ZM117.997 141.107C123.68 139.847 129.593 140.269 135.022 142.303L160.282 74.8796C141.829 67.9663 121.73 66.5329 102.42 70.8118L117.997 141.107ZM182.833 100.954C181.327 94.0189 181.855 87.5557 184.503 81.559L118.641 52.4697C109.162 73.9326 108.106 96.1206 112.472 116.229L182.833 100.954ZM184.108 82.4225C182.354 86.1281 179.235 89.2482 175.084 90.988L147.254 24.5838C134.729 29.8328 124.743 39.5568 119.036 51.6062L184.108 82.4225ZM175.084 90.988C170.877 92.751 165.761 92.9957 160.87 91.0651L187.303 24.0928C174.193 18.9186 159.834 19.3116 147.254 24.5838L175.084 90.988ZM160.87 91.0651C155.954 89.1249 152.198 85.3447 150.244 80.8458L216.286 52.168C210.762 39.4457 200.437 29.2766 187.303 24.0928L160.87 91.0651ZM150.244 80.8458C148.32 76.414 148.324 71.7805 149.685 67.8649L217.69 91.5148C222.081 78.8911 221.782 64.8231 216.286 52.168L150.244 80.8458ZM153.274 60.4279C148.537 67.9086 144.993 76.0981 142.793 84.6865L212.541 102.554C212.861 101.303 213.386 100.081 214.101 98.9518L153.274 60.4279ZM141.952 89.0991C139.244 110.493 143.843 132.228 155.331 150.496L216.281 112.168C213.913 108.401 212.706 103.482 213.382 98.1417L141.952 89.0991ZM197.792 165.278C197.84 165.261 197.892 165.247 197.951 165.237C198.01 165.227 198.092 165.218 198.206 165.218V93.2176C189.719 93.2176 181.496 94.676 173.821 97.3858L197.792 165.278ZM198.206 165.218C203.229 165.218 209.574 166.326 220.467 168.451L234.253 97.7827C225.05 95.9874 211.516 93.2176 198.206 93.2176V165.218ZM220.467 168.451C233.452 170.984 258.07 176.541 281.309 170.136L262.176 100.724C258.457 101.749 251.918 101.229 234.253 97.7827L220.467 168.451ZM281.309 170.136C295.115 166.33 309.69 164.286 324.8 164.286V92.286C303.165 92.286 282.156 95.2169 262.176 100.724L281.309 170.136ZM324.8 164.286C414.933 164.286 488.001 237.353 488.001 327.486H560.001C560.001 197.589 454.698 92.286 324.8 92.286V164.286ZM488.001 327.486C488.001 352.245 482.511 375.623 472.717 396.554L537.931 427.068C552.102 396.783 560.001 363.007 560.001 327.486H488.001ZM472.717 396.554C463.07 417.172 464.854 439.822 465.337 450.459L537.263 447.19C536.956 440.43 536.796 436.031 537.061 432.158C537.309 428.517 537.854 427.233 537.931 427.068L472.717 396.554ZM465.337 450.459C465.525 454.602 465.661 457.72 465.661 460.596H537.661C537.661 455.799 537.437 451.021 537.263 447.19L465.337 450.459ZM465.661 460.596C465.661 461.278 465.108 461.83 464.427 461.83V533.83C504.873 533.83 537.661 501.042 537.661 460.596H465.661ZM464.427 461.83C462.221 461.83 459.886 461.776 457.011 461.708L455.296 533.687C458.013 533.752 461.215 533.83 464.427 533.83V461.83ZM457.011 461.708C446.593 461.459 422.939 460.027 402.119 471.252L436.29 534.627C436.084 534.738 437.004 534.175 440.485 533.834C444.214 533.469 448.511 533.526 455.296 533.687L457.011 461.708ZM402.119 471.252C379.143 483.641 352.848 490.686 324.8 490.686V562.686C365.069 562.686 403.074 552.537 436.29 534.627L402.119 471.252ZM324.8 490.686C234.668 490.686 161.6 417.619 161.6 327.486H89.6003C89.6003 457.384 194.903 562.686 324.8 562.686V490.686ZM161.6 327.486C161.6 296.027 170.466 266.748 185.818 241.886L124.557 204.057C102.387 239.96 89.6003 282.285 89.6003 327.486H161.6ZM185.818 241.886C193.636 229.226 196.252 215.905 197.2 205.355C198.132 194.98 197.622 184.574 197.308 177.357L125.376 180.494C125.732 188.651 125.916 194.16 125.489 198.912C125.078 203.487 124.282 204.503 124.557 204.057L185.818 241.886ZM197.308 177.357C197.114 172.913 196.972 169.522 196.972 166.451H124.972C124.972 171.375 125.196 176.377 125.376 180.494L197.308 177.357ZM196.972 166.451C196.972 166.349 196.98 166.272 196.988 166.216L125.839 155.179C125.266 158.874 124.972 162.64 124.972 166.451H196.972Z" fill="#1E1C35" mask="url(#path-3-outside-2_73_1901)"/>
<path fill-rule="evenodd" clip-rule="evenodd" d="M464.427 497.831C449.363 497.831 432.464 495.792 419.205 502.941C391.109 518.09 358.959 526.687 324.801 526.687C214.786 526.687 125.601 437.502 125.601 327.487C125.601 289.157 136.427 253.355 155.188 222.973C164.831 207.357 160.972 184.805 160.972 166.452V166.452C160.972 145.889 177.642 129.219 198.206 129.219V129.219C221.355 129.219 249.426 141.583 271.743 135.431C288.635 130.775 306.428 128.287 324.801 128.287C434.816 128.287 524.001 217.472 524.001 327.487C524.001 357.627 517.307 386.204 505.325 411.812C498.497 426.403 501.661 444.488 501.661 460.597V460.597C501.661 481.161 484.991 497.831 464.427 497.831V497.831Z" fill="#F4C419"/>
<path fill-rule="evenodd" clip-rule="evenodd" d="M393.062 468.287C395.82 468.755 398.55 469.219 401.231 469.608C421.581 472.567 440.476 458.469 443.434 438.119C443.986 434.322 444.377 430.389 444.771 426.417C446.033 413.713 447.333 400.62 454.079 390.368C469.621 366.75 480.357 339.434 484.693 309.608C491.407 263.431 481.704 218.654 459.996 181.189C424.48 148.354 376.984 128.289 324.802 128.289C306.429 128.289 288.636 130.777 271.744 135.433C258.265 139.148 242.686 136.109 227.361 133.12C217.313 131.16 207.374 129.221 198.207 129.221C177.643 129.221 160.973 145.891 160.973 166.454C160.973 170.452 161.156 174.648 161.343 178.929C162.014 194.302 162.731 210.76 155.189 222.975C136.428 253.357 125.602 289.159 125.602 327.489C125.602 363.835 135.336 397.908 152.339 427.242C180.896 453.685 217.479 472.052 258.905 478.075C292.708 482.99 325.76 479.107 355.743 468.158C367.348 463.92 380.487 466.152 393.062 468.287Z" fill="#F9DE32"/>
<g style="mix-blend-mode:overlay">
<path fill-rule="evenodd" clip-rule="evenodd" d="M221.942 252.086C240.249 252.086 240.421 276.252 234.437 293.554C230.91 303.752 228.923 315.28 228.923 327.484C228.923 339.689 230.91 351.216 234.437 361.414C240.421 378.716 240.249 402.882 221.942 402.882V402.882C193.41 402.882 170.28 369.125 170.28 327.484C170.28 285.843 193.41 252.086 221.942 252.086V252.086Z" fill="#F9FCFC"/>
</g>
<path d="M170.818 150.539C150.094 129.438 138.408 96.8213 151.573 67.0126C153.549 62.8407 156.983 59.5387 161.17 57.7841C165.356 56.0295 169.978 55.9554 174.087 57.5772C178.196 59.199 181.48 62.3934 183.266 66.5051C185.051 70.6168 185.203 75.334 183.689 79.6881C180.962 83.9929 178.928 88.6989 177.668 93.6186C175.813 108.273 179.48 122.879 187.921 134.448L185.444 145.905C185.087 147.463 184.328 148.909 183.249 150.092C182.169 151.275 180.809 152.15 179.311 152.625C177.813 153.1 176.232 153.156 174.737 152.789C173.242 152.422 171.889 151.645 170.818 150.539Z" fill="#24B74F"/>
<path d="M180.502 140.614C181.36 138.199 180.664 135.629 179.231 133.504C172.208 123.089 162.341 114.869 150.768 109.848C137.997 104.307 123.801 102.945 110.209 105.957V105.957C97.7791 108.84 64.2239 141.579 71.3556 152.16C83.44 170.089 100.344 182.857 123.266 176.395C167.289 163.985 177.931 147.852 180.502 140.614Z" fill="#08A034"/>
</g>
<defs>
<clipPath id="clip0_73_1901">
<rect width="575" height="575" fill="white"/>
</clipPath>
</defs>
</svg>
