<svg width="575" height="575" viewBox="0 0 575 575" fill="none" xmlns="http://www.w3.org/2000/svg">
<g clip-path="url(#clip0_73_2160)">
<mask id="path-1-outside-1_73_2160" maskUnits="userSpaceOnUse" x="-27.0513" y="-55.563" width="631.077" height="685.524" fill="black">
<rect fill="white" x="-27.0513" y="-55.563" width="631.077" height="685.524"/>
<path fill-rule="evenodd" clip-rule="evenodd" d="M189.08 178.255C200.69 171.345 213.491 165.874 227.274 162.181C303.555 141.742 381.022 183.5 400.302 255.451C410.82 294.704 421.285 312.276 467.927 345.158C469.49 346.26 471.021 347.337 472.521 348.391C515.803 378.825 532.888 390.838 509.202 443.304C484.696 497.587 193.587 588.942 124.062 329.469C118.355 308.17 118.386 286.613 123.238 266.287C64.4525 269.341 54.8168 158.284 54.8168 158.284C54.8168 158.284 70.0444 195.571 122.6 188.213C129.184 187.357 135.813 187.426 142.301 188.387C126.539 163.325 119.135 133.653 126.49 103.328C128.442 96.149 133.069 89.9894 139.419 86.1134C145.769 82.2374 153.362 80.939 160.64 82.4849C167.917 84.0307 174.326 88.3034 178.553 94.4262C182.78 100.549 184.503 108.058 183.368 115.41C180.22 122.994 178.339 131.043 177.799 139.236C178.677 153.03 182.576 166.33 189.08 178.255Z"/>
</mask>
<path d="M189.08 178.255L141.673 204.113C148.699 216.994 160.665 226.462 174.817 230.337C188.969 234.213 204.089 232.163 216.698 224.658L189.08 178.255ZM467.927 345.158L436.812 389.293L436.813 389.293L467.927 345.158ZM472.521 348.391L441.46 392.564L441.46 392.564L472.521 348.391ZM509.202 443.304L459.985 421.085L459.985 421.085L509.202 443.304ZM123.238 266.287L175.762 278.824C179.714 262.269 175.629 244.82 164.74 231.739C153.851 218.658 137.433 211.476 120.436 212.36L123.238 266.287ZM54.8168 158.284L104.809 137.868C94.716 113.154 68.0796 99.5237 42.1314 105.795C16.1833 112.066 -1.28863 136.356 1.01887 162.951L54.8168 158.284ZM122.6 188.213L115.637 134.664C115.462 134.687 115.287 134.71 115.113 134.735L122.6 188.213ZM142.301 188.387L134.391 241.805C155.25 244.894 175.999 235.558 187.523 217.899C199.047 200.24 199.238 177.488 188.012 159.638L142.301 188.387ZM126.49 103.328L74.3816 89.1592C74.2514 89.6382 74.1278 90.1189 74.0108 90.6013L126.49 103.328ZM139.419 86.1134L167.552 132.206L139.419 86.1134ZM160.64 82.4849L149.419 135.306L149.419 135.306L160.64 82.4849ZM178.553 94.4262L134.113 125.103L134.113 125.103L178.553 94.4262ZM183.368 115.41L233.243 136.111C234.903 132.112 236.076 127.927 236.736 123.647L183.368 115.41ZM177.799 139.236L123.916 135.686C123.763 138.009 123.76 140.34 123.908 142.663L177.799 139.236ZM213.297 110.021C194.696 115.005 177.308 122.421 161.462 131.852L216.698 224.658C224.072 220.269 232.286 216.743 241.25 214.341L213.297 110.021ZM452.462 241.475C424.705 137.886 315.472 82.6436 213.297 110.021L241.25 214.341C291.638 200.84 337.34 229.113 348.142 269.427L452.462 241.475ZM499.042 301.024C477.229 285.646 468.732 277.104 464.226 270.914C460.294 265.513 457.127 258.886 452.462 241.475L348.142 269.427C353.994 291.27 361.319 313.055 376.91 334.474C391.926 355.103 411.983 371.788 436.812 389.293L499.042 301.024ZM503.581 304.218C502.078 303.161 500.573 302.103 499.042 301.024L436.813 389.293C438.406 390.417 439.964 391.512 441.46 392.564L503.581 304.218ZM558.42 465.523C571.81 435.86 582.463 399.61 564.218 363.327C556.208 347.396 544.626 335.884 534.833 327.553C525.216 319.371 513.745 311.365 503.581 304.218L441.46 392.564C452.938 400.635 459.833 405.543 464.852 409.813C469.696 413.933 469.02 414.409 467.73 411.845C466.979 410.352 466.38 408.56 466.089 406.736C465.813 405.001 465.948 404.066 465.917 404.332C465.784 405.468 464.855 410.299 459.985 421.085L558.42 465.523ZM71.9017 343.446C92.0851 418.771 129.758 472.887 178.487 508.116C226.599 542.899 281.4 556.343 331.72 558.015C381.831 559.681 429.831 549.814 467.715 535.358C486.678 528.122 504.35 519.264 519.085 509.122C532.302 500.025 549.278 485.771 558.42 465.523L459.985 421.085C463 414.407 465.518 414.882 457.853 420.158C451.706 424.389 442.071 429.547 429.211 434.455C403.446 444.286 369.728 451.219 335.308 450.075C301.097 448.938 268.553 439.962 241.762 420.593C215.589 401.671 190.801 369.904 176.222 315.493L71.9017 343.446ZM70.7133 253.75C63.8544 282.486 63.7877 313.164 71.9017 343.446L176.222 315.493C172.922 303.177 172.918 290.74 175.762 278.824L70.7133 253.75ZM54.8168 158.284C1.01887 162.951 1.02011 162.966 1.02139 162.98C1.02187 162.986 1.0232 163.001 1.02417 163.012C1.0261 163.034 1.0282 163.058 1.03046 163.083C1.03499 163.134 1.0402 163.192 1.04609 163.257C1.05789 163.387 1.07246 163.544 1.08997 163.727C1.12498 164.095 1.17182 164.569 1.23179 165.143C1.35165 166.29 1.52457 167.841 1.7614 169.738C2.23362 173.521 2.96781 178.746 4.05636 184.938C6.19227 197.088 9.87962 214.055 16.1156 231.556C22.1205 248.408 31.836 269.658 47.9799 287.232C65.3152 306.102 91.6421 322.001 126.04 320.214L120.436 212.36C125.441 212.099 128.519 215.262 127.514 214.168C125.318 211.777 121.602 205.836 117.85 195.305C114.329 185.424 111.933 174.817 110.425 166.239C109.692 162.068 109.214 158.64 108.93 156.361C108.788 155.228 108.697 154.396 108.647 153.918C108.622 153.679 108.607 153.53 108.602 153.477C108.6 153.451 108.6 153.448 108.602 153.471C108.603 153.483 108.604 153.5 108.607 153.524C108.608 153.536 108.609 153.55 108.61 153.565C108.611 153.573 108.612 153.586 108.612 153.589C108.613 153.603 108.615 153.616 54.8168 158.284ZM115.113 134.735C108.685 135.634 105.413 134.924 104.352 134.628C103.741 134.458 103.407 134.296 103.265 134.221C103.112 134.141 103.027 134.077 102.982 134.041C102.846 133.931 102.831 133.864 102.979 134.088C103.071 134.226 103.264 134.534 103.555 135.097C103.703 135.383 103.881 135.746 104.089 136.199C104.193 136.427 104.305 136.678 104.425 136.955C104.485 137.093 104.547 137.238 104.611 137.391C104.643 137.467 104.675 137.544 104.708 137.624C104.725 137.664 104.741 137.704 104.758 137.745C104.766 137.765 104.779 137.796 104.783 137.806C104.796 137.837 104.809 137.868 54.8168 158.284C4.82482 178.699 4.83763 178.731 4.85053 178.762C4.85492 178.773 4.86795 178.805 4.87676 178.826C4.89442 178.869 4.91242 178.913 4.93076 178.957C4.96745 179.046 5.00552 179.137 5.04499 179.231C5.12393 179.419 5.2085 179.617 5.29885 179.826C5.47948 180.244 5.68349 180.703 5.91197 181.202C6.36845 182.198 6.92548 183.355 7.59228 184.646C8.92111 187.22 10.7148 190.383 13.0556 193.902C17.7015 200.887 24.7774 209.682 35.0181 217.975C56.9411 235.726 88.8818 247.461 130.088 241.691L115.113 134.735ZM150.211 134.97C138.824 133.283 127.19 133.161 115.637 134.664L129.564 241.762C131.178 241.552 132.801 241.569 134.391 241.805L150.211 134.97ZM188.012 159.638C178.366 144.301 175.718 129.459 178.968 116.055L74.0108 90.6013C62.553 137.847 74.7113 182.349 96.5898 217.136L188.012 159.638ZM178.598 117.497C176.929 123.635 172.974 128.897 167.552 132.206L111.286 40.0206C93.1627 51.0823 79.9549 68.6629 74.3816 89.1592L178.598 117.497ZM167.552 132.206C162.127 135.517 155.639 136.627 149.419 135.306L171.86 29.6634C151.086 25.2505 129.412 28.9575 111.286 40.0206L167.552 132.206ZM149.419 135.306C143.201 133.985 137.724 130.334 134.113 125.103L222.993 63.7494C210.929 46.2727 192.634 34.0762 171.86 29.6634L149.419 135.306ZM134.113 125.103C130.503 119.874 129.03 113.46 130 107.174L236.736 123.647C239.976 102.656 235.056 81.2238 222.993 63.7493L134.113 125.103ZM133.493 94.7096C128.081 107.751 124.844 121.593 123.916 135.686L231.682 142.785C231.834 140.492 232.36 138.237 233.243 136.111L133.493 94.7096ZM123.908 142.663C125.29 164.388 131.431 185.335 141.673 204.113L236.486 152.398C233.72 147.325 232.063 141.673 231.69 135.808L123.908 142.663Z" fill="white" mask="url(#path-1-outside-1_73_2160)"/>
<mask id="path-3-outside-2_73_2160" maskUnits="userSpaceOnUse" x="-5.00585" y="-33.5176" width="586.986" height="641.433" fill="black">
<rect fill="white" x="-5.00585" y="-33.5176" width="586.986" height="641.433"/>
<path fill-rule="evenodd" clip-rule="evenodd" d="M189.08 178.255C200.69 171.345 213.491 165.874 227.274 162.181C303.555 141.742 381.022 183.5 400.302 255.451C410.82 294.704 421.285 312.276 467.927 345.158C469.49 346.26 471.021 347.337 472.521 348.391C515.803 378.825 532.888 390.838 509.202 443.304C484.696 497.587 193.587 588.942 124.062 329.469C118.355 308.17 118.386 286.613 123.238 266.287C64.4525 269.341 54.8168 158.284 54.8168 158.284C54.8168 158.284 70.0444 195.571 122.6 188.213C129.184 187.357 135.813 187.426 142.301 188.387C126.539 163.325 119.135 133.653 126.49 103.328C128.442 96.149 133.069 89.9894 139.419 86.1134C145.769 82.2374 153.362 80.939 160.64 82.4849C167.917 84.0307 174.326 88.3034 178.553 94.4262C182.78 100.549 184.503 108.058 183.368 115.41C180.22 122.994 178.339 131.043 177.799 139.236C178.677 153.03 182.576 166.33 189.08 178.255Z"/>
</mask>
<path d="M189.08 178.255L157.475 195.493C162.159 204.081 170.136 210.393 179.571 212.977C189.006 215.56 199.086 214.194 207.492 209.191L189.08 178.255ZM467.927 345.158L447.184 374.582L447.184 374.582L467.927 345.158ZM472.521 348.391L451.814 377.84L451.814 377.84L472.521 348.391ZM509.202 443.304L476.391 428.491L476.391 428.491L509.202 443.304ZM123.238 266.287L158.254 274.645C160.888 263.608 158.165 251.975 150.906 243.255C143.647 234.534 132.701 229.747 121.37 230.335L123.238 266.287ZM54.8168 158.284L88.1447 144.673C81.4163 128.197 63.6586 119.11 46.3599 123.291C29.0611 127.472 17.4132 143.665 18.9515 161.395L54.8168 158.284ZM122.6 188.213L117.958 152.513C117.842 152.529 117.725 152.544 117.609 152.561L122.6 188.213ZM142.301 188.387L137.027 223.999C150.933 226.058 164.766 219.834 172.449 208.062C180.132 196.289 180.259 181.121 172.775 169.221L142.301 188.387ZM126.49 103.328L91.7509 93.8822C91.6641 94.2015 91.5817 94.522 91.5037 94.8436L126.49 103.328ZM139.419 86.1134L158.174 116.842L139.419 86.1134ZM160.64 82.4849L153.159 117.699L153.159 117.699L160.64 82.4849ZM178.553 94.4262L148.926 114.877L148.926 114.877L178.553 94.4262ZM183.368 115.41L216.618 129.211C217.725 126.545 218.507 123.755 218.947 120.901L183.368 115.41ZM177.799 139.236L141.877 136.869C141.775 138.418 141.773 139.972 141.872 141.521L177.799 139.236ZM217.956 127.408C200.961 131.962 185.102 138.729 170.668 147.32L207.492 209.191C216.278 203.961 226.021 199.787 236.591 196.955L217.956 127.408ZM435.075 246.134C410.144 153.091 311.5 102.343 217.956 127.408L236.591 196.955C295.61 181.14 351.901 213.909 365.528 264.769L435.075 246.134ZM488.67 315.735C466.355 300.003 455.931 290.104 449.673 281.507C443.798 273.436 439.938 264.283 435.075 246.134L365.528 264.769C371.183 285.872 377.815 305.131 391.462 323.88C404.727 342.103 422.857 357.431 447.184 374.582L488.67 315.735ZM493.228 318.943C491.725 317.886 490.212 316.822 488.67 315.735L447.184 374.582C448.767 375.698 450.316 376.787 451.814 377.84L493.228 318.943ZM542.014 458.116C554.889 429.597 562.54 400.057 548.137 371.413C541.677 358.565 532.137 348.892 523.17 341.263C514.319 333.733 503.61 326.243 493.228 318.943L451.814 377.84C463.072 385.756 470.73 391.181 476.516 396.103C482.184 400.925 483.551 403.241 483.812 403.758C483.871 403.877 483.857 403.853 483.865 403.904C483.883 404.015 483.991 404.754 483.794 406.428C483.355 410.178 481.611 416.928 476.391 428.491L542.014 458.116ZM89.2884 338.787C108.538 410.627 144.063 461.018 189.033 493.529C233.592 525.743 284.683 538.442 332.318 540.025C379.814 541.604 425.434 532.226 461.297 518.541C479.244 511.693 495.576 503.452 508.88 494.295C521.172 485.835 534.899 473.877 542.014 458.116L476.391 428.491C477.38 426.301 476.649 429.073 468.059 434.985C460.48 440.201 449.506 445.976 435.628 451.272C407.844 461.874 371.746 469.296 334.71 468.065C297.814 466.838 261.561 457.118 231.217 435.18C201.284 413.54 174.348 378.049 158.835 320.152L89.2884 338.787ZM88.2215 257.929C82.0317 283.862 81.9767 311.499 89.2884 338.787L158.835 320.152C154.733 304.842 154.741 289.364 158.254 274.645L88.2215 257.929ZM54.8168 158.284C18.9515 161.395 18.9523 161.405 18.9532 161.415C18.9536 161.419 18.9545 161.43 18.9552 161.438C18.9566 161.453 18.9581 161.471 18.9598 161.49C18.9632 161.529 18.9673 161.574 18.972 161.626C18.9815 161.73 18.9937 161.862 19.0087 162.019C19.0387 162.334 19.0802 162.754 19.1343 163.272C19.2425 164.307 19.4019 165.739 19.6228 167.509C20.0637 171.041 20.7552 175.966 21.7845 181.822C23.8158 193.376 27.2878 209.283 33.0713 225.514C38.7008 241.313 47.4163 260.012 61.2356 275.055C75.8491 290.962 97.2753 303.684 125.106 302.238L121.37 230.335C119.808 230.416 117.985 230.402 114.258 226.345C109.738 221.424 105.022 212.931 100.894 201.347C96.9207 190.196 94.3097 178.529 92.6972 169.356C91.9047 164.847 91.3841 161.12 91.0684 158.591C90.911 157.33 90.806 156.378 90.7443 155.788C90.7135 155.494 90.6937 155.291 90.6837 155.185C90.6787 155.133 90.6761 155.105 90.6759 155.102C90.6758 155.101 90.6762 155.106 90.6773 155.118C90.6778 155.123 90.6784 155.131 90.6792 155.14C90.6796 155.144 90.6803 155.152 90.6805 155.155C90.6812 155.163 90.682 155.172 54.8168 158.284ZM117.609 152.561C101.283 154.846 94.3334 150.199 91.6547 148.03C89.8348 146.556 88.6424 145.035 87.9917 144.057C87.6783 143.585 87.5405 143.315 87.5613 143.355C87.5733 143.378 87.6293 143.488 87.7263 143.7C87.775 143.806 87.8344 143.939 87.9042 144.1C87.9391 144.181 87.9766 144.268 88.0167 144.364C88.0367 144.412 88.0574 144.461 88.0787 144.513C88.0894 144.538 88.1003 144.565 88.1112 144.591C88.1167 144.605 88.1251 144.625 88.1279 144.632C88.1363 144.652 88.1447 144.673 54.8168 158.284C21.4888 171.894 21.4974 171.915 21.506 171.936C21.509 171.944 21.5177 171.965 21.5237 171.979C21.5356 172.008 21.5478 172.038 21.5604 172.068C21.5854 172.129 21.6118 172.192 21.6393 172.257C21.6945 172.389 21.7546 172.53 21.8199 172.681C21.9505 172.983 22.1018 173.324 22.2748 173.701C22.6206 174.456 23.0551 175.359 23.5861 176.388C24.645 178.439 26.1075 181.024 28.0428 183.933C31.8897 189.716 37.7889 197.057 46.3454 203.986C64.4195 218.621 91.362 228.938 127.592 223.865L117.609 152.561ZM147.574 152.775C137.82 151.331 127.855 151.227 117.958 152.513L127.243 223.912C130.513 223.487 133.805 223.522 137.027 223.999L147.574 152.775ZM172.775 169.221C161.09 150.643 156.857 130.857 161.475 111.813L91.5037 94.8436C81.4137 136.449 91.9871 176.008 111.827 207.553L172.775 169.221ZM161.228 112.774C160.766 114.473 159.672 115.927 158.174 116.842L120.664 55.3849C106.465 64.0514 96.1172 77.8249 91.7509 93.8822L161.228 112.774ZM158.174 116.842C156.674 117.757 154.88 118.065 153.159 117.699L168.12 47.2706C151.844 43.8133 134.865 46.7175 120.664 55.3849L158.174 116.842ZM153.159 117.699C151.439 117.334 149.925 116.324 148.926 114.877L208.18 73.975C198.728 60.283 184.395 50.7277 168.12 47.2706L153.159 117.699ZM148.926 114.877C147.929 113.432 147.521 111.659 147.789 109.919L218.947 120.901C221.485 104.456 217.63 87.6655 208.18 73.9749L148.926 114.877ZM150.118 101.61C145.461 112.832 142.676 124.743 141.877 136.869L213.721 141.602C214.002 137.342 214.98 133.156 216.618 129.211L150.118 101.61ZM141.872 141.521C143.085 160.602 148.479 179 157.475 195.493L220.684 161.017C216.672 153.66 214.268 145.458 213.727 136.951L141.872 141.521Z" fill="#1E1C35" mask="url(#path-3-outside-2_73_2160)"/>
<g filter="url(#filter0_i_73_2160)">
<path d="M400.302 255.45C410.819 294.704 421.285 312.275 467.927 345.158C514.57 378.04 533.708 389.019 509.202 443.303C484.696 497.586 193.587 588.941 124.061 329.469C104.782 257.517 150.992 182.62 227.273 162.18C303.555 141.741 381.022 183.499 400.302 255.45Z" fill="#FFAD07"/>
</g>
<path d="M196.37 228.332C189.874 214.72 179.241 203.51 165.991 196.305C152.742 189.099 137.554 186.267 122.598 188.212C70.0421 195.57 54.8145 158.282 54.8145 158.282C54.8145 158.282 65.1721 277.66 129.924 265.474C194.675 253.288 196.37 228.332 196.37 228.332Z" fill="#08A034"/>
<path d="M184.294 232.054C143.553 203.583 114.106 154.381 126.487 103.327C128.44 96.1482 133.066 89.9886 139.417 86.1126C145.767 82.2366 153.36 80.9382 160.637 82.4841C167.915 84.0299 174.324 88.3026 178.551 94.4254C182.777 100.548 184.501 108.057 183.366 115.41C180.218 122.993 178.337 131.042 177.797 139.235C179.318 163.155 189.925 185.588 207.447 201.942L206.945 220.905C206.844 223.489 206.045 225.997 204.636 228.165C203.227 230.333 201.259 232.081 198.939 233.223C196.619 234.365 194.031 234.858 191.454 234.653C188.876 234.447 186.403 233.549 184.294 232.054Z" fill="#823B13"/>
<g style="mix-blend-mode:overlay">
<path fill-rule="evenodd" clip-rule="evenodd" d="M214.577 399.675C230.099 395.516 224.755 374.986 215.75 361.676C210.442 353.83 206.139 344.508 203.366 334.16C200.593 323.812 199.659 313.587 200.333 304.138C201.476 288.109 195.84 267.659 180.318 271.818V271.818C156.126 278.3 144.184 312.177 153.644 347.483C163.105 382.79 190.385 406.157 214.577 399.675V399.675Z" fill="#E3BE5F"/>
</g>
</g>
<defs>
<filter id="filter0_i_73_2160" x="119.685" y="156.99" width="400.226" height="347.207" filterUnits="userSpaceOnUse" color-interpolation-filters="sRGB">
<feFlood flood-opacity="0" result="BackgroundImageFix"/>
<feBlend mode="normal" in="SourceGraphic" in2="BackgroundImageFix" result="shape"/>
<feColorMatrix in="SourceAlpha" type="matrix" values="0 0 0 0 0 0 0 0 0 0 0 0 0 0 0 0 0 0 127 0" result="hardAlpha"/>
<feOffset dx="-40" dy="-20"/>
<feComposite in2="hardAlpha" operator="arithmetic" k2="-1" k3="1"/>
<feColorMatrix type="matrix" values="0 0 0 0 0.817535 0 0 0 0 0.536391 0 0 0 0 0.0408767 0 0 0 0.5 0"/>
<feBlend mode="normal" in2="shape" result="effect1_innerShadow_73_2160"/>
</filter>
<clipPath id="clip0_73_2160">
<rect width="575" height="575" fill="white"/>
</clipPath>
</defs>
</svg>
