<svg width="575" height="575" viewBox="0 0 575 575" fill="none" xmlns="http://www.w3.org/2000/svg">
<g clip-path="url(#clip0_73_1898)">
<mask id="path-1-outside-1_73_1898" maskUnits="userSpaceOnUse" x="-52.0622" y="-84.024" width="666.597" height="733.579" fill="black">
<rect fill="white" x="-52.0622" y="-84.024" width="666.597" height="733.579"/>
<path fill-rule="evenodd" clip-rule="evenodd" d="M323.074 169.652C297.106 124.673 245.296 105.368 204.26 124.026C200.407 114.613 198.919 104.311 200.049 94.0369C201.32 88.8195 203.438 83.8463 206.32 79.3152C207.879 74.7061 207.614 69.6747 205.581 65.2543C203.547 60.8339 199.899 57.3596 195.385 55.5442C190.871 53.7288 185.833 53.7103 181.305 55.4922C176.778 57.2742 173.104 60.7213 171.037 65.1266C162.165 85.4856 164.64 107.314 173.722 126.399C170.194 123.59 166.292 121.238 162.105 119.421C152.114 115.087 141.009 114.021 130.376 116.378C120.652 118.633 94.4015 144.245 99.9806 152.522C109.434 166.548 122.658 176.537 140.59 171.481C151.272 168.47 159.442 165.179 165.69 161.901C152.081 189.745 153.047 225.872 171.21 257.331C180.83 273.994 184.107 294.689 178.1 312.968C164.713 353.706 168.069 399.754 191.197 439.813C234.306 514.48 329.782 540.063 404.449 496.954C479.116 453.845 504.699 358.369 461.59 283.702C441.457 248.83 409.901 224.664 374.378 213.202C352.696 206.206 334.466 189.382 323.074 169.652Z"/>
</mask>
<path d="M204.26 124.026L154.285 144.482C159.846 158.068 170.698 168.804 184.342 174.218C197.986 179.633 213.247 179.259 226.61 173.183L204.26 124.026ZM200.049 94.0369L147.582 81.2626C147.031 83.5246 146.627 85.82 146.373 88.1341L200.049 94.0369ZM206.32 79.3152L251.885 108.294C254.209 104.64 256.085 100.72 257.473 96.6176L206.32 79.3152ZM205.581 65.2543L156.522 87.8211L205.581 65.2543ZM195.385 55.5442L215.533 5.44366L215.533 5.44361L195.385 55.5442ZM181.305 55.4922L161.529 5.24386L161.529 5.24387L181.305 55.4922ZM171.037 65.1266L122.147 42.1971C121.937 42.6465 121.732 43.0988 121.534 43.5538L171.037 65.1266ZM173.722 126.399L140.084 168.642C159.75 184.302 187.622 184.32 207.308 168.684C226.993 153.048 233.285 125.895 222.482 103.195L173.722 126.399ZM162.105 119.421L140.613 168.96L140.613 168.96L162.105 119.421ZM130.376 116.378L118.693 63.6566C118.521 63.6947 118.349 63.7337 118.178 63.7735L130.376 116.378ZM99.9806 152.522L55.2025 182.704L55.2025 182.704L99.9806 152.522ZM140.59 171.481L125.938 119.507L125.938 119.507L140.59 171.481ZM165.69 161.901L214.205 185.615C224.457 164.64 220.069 139.451 203.328 123.179C186.587 106.907 161.284 103.236 140.609 114.08L165.69 161.901ZM178.1 312.968L126.8 296.109L126.8 296.109L178.1 312.968ZM374.378 213.202L390.959 161.811L390.959 161.811L374.378 213.202ZM226.61 173.183C237.754 168.117 261.57 171.123 276.309 196.652L369.84 142.652C332.642 78.2232 252.838 42.6196 181.91 74.8684L226.61 173.183ZM146.373 88.1341C144.25 107.44 147.046 126.799 154.285 144.482L254.235 103.57C253.768 102.428 253.589 101.182 253.726 99.9397L146.373 88.1341ZM160.754 50.336C154.702 59.853 150.251 70.3005 147.582 81.2626L252.516 106.811C252.388 107.339 252.174 107.839 251.885 108.294L160.754 50.336ZM156.522 87.8211C152.791 79.7103 152.304 70.4761 155.167 62.0128L257.473 96.6176C263.453 78.9361 262.437 59.6392 254.639 42.6875L156.522 87.8211ZM175.237 105.645C166.951 102.312 160.254 95.9345 156.522 87.8211L254.639 42.6875C246.84 25.7333 232.848 12.4069 215.533 5.44366L175.237 105.645ZM201.082 105.741C192.772 109.011 183.525 108.978 175.237 105.645L215.533 5.44361C198.217 -1.5199 178.894 -1.59033 161.529 5.24386L201.082 105.741ZM219.928 88.056C216.134 96.1455 209.389 102.471 201.082 105.741L161.529 5.24387C144.167 12.0771 130.073 25.2971 122.147 42.1971L219.928 88.056ZM222.482 103.195C218.497 94.8209 219.277 89.6009 220.541 86.6994L121.534 43.5538C105.054 81.3702 110.782 119.808 124.962 149.603L222.482 103.195ZM207.36 84.1557C200.143 78.4094 192.162 73.5983 183.598 69.8828L140.613 168.96C140.423 168.878 140.244 168.77 140.084 168.642L207.36 84.1557ZM183.598 69.8828C163.16 61.0157 140.443 58.837 118.693 63.6566L142.058 169.099C141.575 169.206 141.068 169.158 140.613 168.96L183.598 69.8828ZM118.178 63.7735C103.717 67.1267 92.429 75.4984 88.0343 78.8433C81.5906 83.7478 75.2184 89.6133 69.6445 95.6902C64.4333 101.372 57.7976 109.529 52.8612 119.25C50.4223 124.052 47.0852 131.766 45.7751 141.434C44.4265 151.387 44.8339 167.32 55.2025 182.704L144.759 122.341C153.733 135.655 153.74 148.978 152.797 155.936C151.893 162.611 149.767 166.948 149.156 168.15C147.877 170.67 147.365 170.731 149.235 168.693C150.741 167.05 152.406 165.573 153.445 164.782C153.954 164.394 153.731 164.617 152.767 165.166C152.371 165.391 148.65 167.573 142.574 168.982L118.178 63.7735ZM55.2025 182.704C62.7223 193.86 74.3406 207.473 91.5319 216.717C110.318 226.819 132.507 229.865 155.242 223.456L125.938 119.507C127.736 119.001 130.597 118.57 134.113 118.97C137.608 119.368 140.543 120.448 142.68 121.597C146.413 123.604 146.693 125.21 144.759 122.341L55.2025 182.704ZM155.242 223.456C168.824 219.627 180.604 215.056 190.772 209.723L140.609 114.08C138.28 115.301 133.721 117.313 125.938 119.507L155.242 223.456ZM217.975 230.331C208.185 213.375 209.008 196.248 214.205 185.615L117.176 138.188C95.1543 183.242 97.9082 238.369 124.444 284.331L217.975 230.331ZM229.401 329.827C240.905 294.82 234.082 258.23 217.975 230.331L124.444 284.331C127.578 289.758 127.309 294.558 126.8 296.109L229.401 329.827ZM237.962 412.813C222.837 386.616 220.608 356.583 229.401 329.827L126.8 296.109C108.817 350.828 113.301 412.893 144.432 466.813L237.962 412.813ZM377.449 450.189C328.61 478.386 266.16 461.652 237.962 412.813L144.432 466.813C202.452 567.308 330.954 601.74 431.449 543.719L377.449 450.189ZM414.825 310.702C443.022 359.541 426.288 421.991 377.449 450.189L431.449 543.719C531.944 485.699 566.376 357.197 508.355 256.702L414.825 310.702ZM357.796 264.593C381.08 272.106 401.639 287.864 414.825 310.702L508.355 256.702C481.274 209.796 438.722 177.222 390.959 161.811L357.796 264.593ZM276.309 196.652C292.966 225.502 320.902 252.689 357.796 264.593L390.959 161.811C384.49 159.723 375.966 153.263 369.84 142.652L276.309 196.652Z" fill="white" mask="url(#path-1-outside-1_73_1898)"/>
<mask id="path-3-outside-2_73_1898" maskUnits="userSpaceOnUse" x="-27.4738" y="-59.4355" width="617.42" height="684.402" fill="black">
<rect fill="white" x="-27.4738" y="-59.4355" width="617.42" height="684.402"/>
<path fill-rule="evenodd" clip-rule="evenodd" d="M323.074 169.652C297.106 124.673 245.296 105.368 204.26 124.026C200.407 114.613 198.919 104.311 200.049 94.0369C201.32 88.8195 203.438 83.8463 206.32 79.3152C207.879 74.7061 207.614 69.6747 205.581 65.2543C203.547 60.8339 199.899 57.3596 195.385 55.5442C190.871 53.7288 185.833 53.7103 181.305 55.4922C176.778 57.2742 173.104 60.7213 171.037 65.1266C162.165 85.4856 164.64 107.314 173.722 126.399C170.194 123.59 166.292 121.238 162.105 119.421C152.114 115.087 141.009 114.021 130.376 116.378C120.652 118.633 94.4015 144.245 99.9806 152.522C109.434 166.548 122.658 176.537 140.59 171.481C151.272 168.47 159.442 165.179 165.69 161.901C152.081 189.745 153.047 225.872 171.21 257.331C180.83 273.994 184.107 294.689 178.1 312.968C164.713 353.706 168.069 399.754 191.197 439.813C234.306 514.48 329.782 540.063 404.449 496.954C479.116 453.845 504.699 358.369 461.59 283.702C441.457 248.83 409.901 224.664 374.378 213.202C352.696 206.206 334.466 189.382 323.074 169.652Z"/>
</mask>
<path d="M204.26 124.026L170.943 137.663C174.65 146.72 181.885 153.878 190.981 157.488C200.078 161.097 210.251 160.848 219.16 156.798L204.26 124.026ZM200.049 94.0369L165.071 85.5207C164.704 87.0287 164.435 88.559 164.265 90.1017L200.049 94.0369ZM206.32 79.3152L236.697 98.6347C238.246 96.1986 239.497 93.585 240.422 90.8501L206.32 79.3152ZM205.581 65.2543L172.875 80.2988L205.581 65.2543ZM195.385 55.5442L208.817 22.1438L208.817 22.1438L195.385 55.5442ZM181.305 55.4922L168.121 21.9933L168.121 21.9933L181.305 55.4922ZM171.037 65.1266L138.444 49.8403C138.304 50.1399 138.167 50.4414 138.035 50.7447L171.037 65.1266ZM173.722 126.399L151.297 154.561C164.408 165.001 182.989 165.013 196.112 154.589C209.236 144.165 213.431 126.063 206.229 110.93L173.722 126.399ZM162.105 119.421L147.777 152.447L147.777 152.447L162.105 119.421ZM130.376 116.378L122.587 81.2303C122.473 81.2557 122.358 81.2817 122.244 81.3083L130.376 116.378ZM99.9806 152.522L70.1285 172.643L70.1285 172.643L99.9806 152.522ZM140.59 171.481L130.822 136.832L130.822 136.832L140.59 171.481ZM165.69 161.901L198.034 177.71C204.868 163.727 201.943 146.935 190.782 136.087C179.621 125.238 162.753 122.791 148.969 130.02L165.69 161.901ZM178.1 312.968L143.9 301.729L143.9 301.729L178.1 312.968ZM374.378 213.202L385.432 178.941L385.432 178.941L374.378 213.202ZM219.16 156.798C240.268 147.2 273.415 155.64 291.898 187.652L354.251 151.652C320.796 93.7065 250.324 63.5357 189.36 91.2542L219.16 156.798ZM164.265 90.1017C162.473 106.397 164.833 122.737 170.943 137.663L237.577 110.388C235.981 106.49 235.366 102.225 235.833 97.9721L164.265 90.1017ZM175.943 59.9957C170.947 67.8508 167.274 76.4735 165.071 85.5207L235.027 102.553C235.365 101.166 235.929 99.8417 236.697 98.6347L175.943 59.9957ZM172.875 80.2988C171.065 76.3651 170.829 71.8861 172.218 67.7802L240.422 90.8501C244.929 77.5261 244.163 62.9843 238.286 50.2098L172.875 80.2988ZM181.953 88.9446C177.934 87.3281 174.685 84.2343 172.875 80.2988L238.286 50.2098C232.409 37.4335 221.865 27.3911 208.817 22.1438L181.953 88.9446ZM194.49 88.9912C190.459 90.5774 185.973 90.5613 181.953 88.9446L208.817 22.1438C195.768 16.8963 181.207 16.8432 168.121 21.9933L194.49 88.9912ZM203.631 80.4129C201.79 84.3375 198.518 87.4056 194.49 88.9912L168.121 21.9933C155.037 27.1428 144.417 37.1052 138.444 49.8403L203.631 80.4129ZM206.229 110.93C200.545 98.9854 200.24 88.2291 204.04 79.5084L138.035 50.7447C124.091 82.742 128.735 115.643 141.215 141.868L206.229 110.93ZM196.147 98.2368C190.16 93.4695 183.539 89.4782 176.434 86.3957L147.777 152.447C149.046 152.998 150.228 153.71 151.297 154.561L196.147 98.2368ZM176.434 86.3957C159.478 79.0393 140.632 77.2318 122.587 81.2303L138.164 151.525C141.386 150.811 144.75 151.134 147.777 152.447L176.434 86.3957ZM122.244 81.3083C111.793 83.7316 103.113 89.9872 98.9361 93.1664C93.3932 97.3853 87.8056 102.519 82.9095 107.857C78.2553 112.931 72.8107 119.719 68.9104 127.4C66.9798 131.201 64.5531 136.907 63.6121 143.851C62.6454 150.985 62.9837 162.043 70.1285 172.643L129.833 132.401C135.583 140.932 135.521 149.379 134.96 153.519C134.425 157.47 133.209 159.798 133.107 160C132.863 160.48 133.543 159.171 135.97 156.526C138.154 154.144 140.604 151.935 142.543 150.459C143.506 149.726 143.958 149.468 143.861 149.524C143.794 149.561 143.382 149.795 142.657 150.108C141.991 150.396 140.558 150.972 138.508 151.447L122.244 81.3083ZM70.1285 172.643C76.7173 182.419 86.3527 193.495 100.057 200.864C114.823 208.804 132.213 211.246 150.358 206.131L130.822 136.832C130.526 136.915 131.038 136.736 132.079 136.855C133.105 136.972 133.852 137.287 134.156 137.451C134.378 137.57 134.017 137.42 133.161 136.569C132.299 135.714 131.16 134.371 129.833 132.401L70.1285 172.643ZM150.358 206.131C162.973 202.575 173.55 198.43 182.412 193.782L148.969 130.02C145.334 131.927 139.571 134.366 130.822 136.832L150.358 206.131ZM202.387 239.331C189.806 217.54 190.032 194.08 198.034 177.71L133.347 146.093C114.13 185.409 116.288 234.203 140.033 275.331L202.387 239.331ZM212.301 324.207C221.973 294.776 216.332 263.484 202.387 239.331L140.033 275.331C145.329 284.504 146.242 294.602 143.9 301.729L212.301 324.207ZM222.374 421.813C204.581 390.995 201.976 355.624 212.301 324.207L143.9 301.729C127.449 351.787 131.557 408.514 160.02 457.813L222.374 421.813ZM386.449 465.777C329.001 498.945 255.542 479.262 222.374 421.813L160.02 457.813C213.07 549.699 330.564 581.181 422.449 528.131L386.449 465.777ZM430.413 301.702C463.581 359.15 443.898 432.609 386.449 465.777L422.449 528.131C514.335 475.081 545.817 357.587 492.767 265.702L430.413 301.702ZM363.323 247.463C390.687 256.292 414.912 274.853 430.413 301.702L492.767 265.702C468.002 222.807 429.115 193.036 385.432 178.941L363.323 247.463ZM291.898 187.652C306.799 213.462 331.5 237.195 363.323 247.463L385.432 178.941C373.892 175.218 362.132 165.303 354.251 151.652L291.898 187.652Z" fill="#1E1C35" mask="url(#path-3-outside-2_73_1898)"/>
<path fill-rule="evenodd" clip-rule="evenodd" d="M374.378 213.202C352.696 206.206 334.466 189.382 323.074 169.652V169.652C295.657 122.163 239.434 103.293 197.498 127.505C155.562 151.717 143.792 209.842 171.21 257.331V257.331C180.83 273.994 184.107 294.689 178.1 312.967C164.713 353.705 168.069 399.754 191.197 439.813C234.306 514.48 329.782 540.063 404.449 496.954C479.116 453.845 504.699 358.368 461.59 283.701C441.457 248.829 409.901 224.664 374.378 213.202Z" fill="#89AC25"/>
<path fill-rule="evenodd" clip-rule="evenodd" d="M279.296 153.736C290.23 173.722 308.068 190.958 329.582 198.449C364.834 210.724 395.828 235.609 415.155 270.936C456.537 346.574 428.766 441.438 353.128 482.819C321.671 500.029 286.888 505.279 254.011 500.098C228.622 486.845 206.577 466.454 191.197 439.815C168.069 399.756 164.713 353.707 178.1 312.969C184.107 294.691 180.83 273.995 171.21 257.333C143.792 209.844 155.562 151.719 197.498 127.507C213.006 118.554 230.467 115.492 247.703 117.589C260.207 126.663 271.159 138.864 279.296 153.736Z" fill="#B0DA39"/>
<g style="mix-blend-mode:overlay">
<path fill-rule="evenodd" clip-rule="evenodd" d="M231.283 290.625C245.949 290.625 246.087 309.985 241.293 323.845C238.467 332.015 236.876 341.25 236.876 351.027C236.876 360.804 238.467 370.038 241.293 378.208C246.087 392.069 245.949 411.429 231.283 411.429V411.429C208.426 411.429 189.896 384.386 189.896 351.027C189.896 317.668 208.426 290.625 231.283 290.625V290.625Z" fill="#F9FCFC"/>
</g>
<path d="M193.784 154.562C170.744 131.633 157.314 96.6195 171.039 65.1236C173.105 60.7184 176.78 57.2712 181.307 55.4893C185.835 53.7074 190.872 53.7258 195.387 55.5412C199.901 57.3567 203.549 60.8309 205.582 65.2514C207.616 69.6718 207.88 74.7031 206.321 79.3122C203.44 83.8433 201.321 88.8166 200.051 94.034C198.337 109.615 202.644 125.262 212.091 137.771L209.633 149.931C209.276 151.584 208.479 153.11 207.327 154.348C206.175 155.586 204.711 156.49 203.088 156.965C201.464 157.439 199.742 157.466 198.104 157.043C196.467 156.62 194.975 155.763 193.784 154.562Z" fill="#823B13"/>
<path d="M185.338 143.574C186.041 141.633 185.481 139.563 184.324 137.854C178.834 129.741 171.134 123.337 162.108 119.421C152.116 115.086 141.011 114.021 130.378 116.378V116.378C120.654 118.632 94.4037 144.245 99.9828 152.522C109.437 166.548 122.661 176.536 140.592 171.481C174.863 161.82 183.275 149.276 185.338 143.574Z" fill="#08A034"/>
</g>
<defs>
<clipPath id="clip0_73_1898">
<rect width="575" height="575" fill="white"/>
</clipPath>
</defs>
</svg>
