<svg width="575" height="575" viewBox="0 0 575 575" fill="none" xmlns="http://www.w3.org/2000/svg">
<g clip-path="url(#clip0_73_2079)">
<mask id="path-1-outside-1_73_2079" maskUnits="userSpaceOnUse" x="-119.55" y="-115.637" width="774.282" height="774.282" fill="black">
<rect fill="white" x="-119.55" y="-115.637" width="774.282" height="774.282"/>
<path fill-rule="evenodd" clip-rule="evenodd" d="M67.8868 71.6923L75.1494 115.896C77.0688 127.579 83.4167 139.271 92.7682 149.368C66.6396 166.164 64.8318 214.644 64.8318 214.644C64.8318 214.644 71.2126 206.514 91.4294 210.724C66.6789 239.844 52.4789 276.506 52.4789 276.506C52.4789 276.506 84.7619 240.294 150.469 277.935C143.991 318.294 154.423 360.985 182.296 394.605L236.857 460.415C295.254 530.853 401.578 535.811 466.276 471.112C531.989 405.4 525.683 297.077 452.79 239.434L385.737 186.408C353.792 161.147 314.248 151.202 276.387 156.034C236.336 88.6225 273.48 55.5095 273.48 55.5095C273.48 55.5095 237.148 69.5813 208.093 94.1249C203.858 73.8667 212.002 67.4749 212.002 67.4749C212.002 67.4749 156.119 69.5588 143.564 101.588C129.642 89.1721 111.81 79.974 93.285 76.481L67.8868 71.6923Z"/>
</mask>
<path d="M75.1494 115.896L21.8637 124.651L21.8637 124.651L75.1494 115.896ZM67.8868 71.6923L77.8922 18.6273C60.5776 15.3626 42.7593 20.7506 30.1547 33.0621C17.5502 45.3737 11.7447 63.0604 14.6012 80.4469L67.8868 71.6923ZM92.7682 149.368L121.967 194.793C135.404 186.156 144.328 172.013 146.339 156.166C148.349 140.32 143.241 124.396 132.388 112.676L92.7682 149.368ZM64.8318 214.644L10.8693 212.632C9.9975 236.011 24.2805 257.293 46.2472 265.345C68.214 273.397 92.8672 266.388 107.312 247.983L64.8318 214.644ZM91.4294 210.724L132.575 245.696C144.917 231.176 148.691 211.226 142.507 193.2C136.323 175.175 121.096 161.744 102.439 157.859L91.4294 210.724ZM52.4789 276.506L2.12398 257.003C-7.30588 281.35 2.03385 308.956 24.3087 322.576C46.5836 336.197 75.4128 331.929 92.787 312.44L52.4789 276.506ZM150.469 277.935L203.787 286.493C207.347 264.312 196.804 242.245 177.311 231.078L150.469 277.935ZM182.296 394.605L140.725 429.07L182.296 394.605ZM236.857 460.415L278.428 425.95L236.857 460.415ZM452.79 239.434L486.285 197.077L486.285 197.077L452.79 239.434ZM385.737 186.408L352.241 228.765L352.241 228.765L385.737 186.408ZM276.387 156.034L229.963 183.616C240.954 202.116 261.879 212.324 283.224 209.6L276.387 156.034ZM273.48 55.5095L309.414 95.8175C328.903 78.4433 333.17 49.6141 319.55 27.3392C305.929 5.06437 278.323 -4.27536 253.976 5.1545L273.48 55.5095ZM208.093 94.1249L155.236 105.176C159.128 123.793 172.528 138.99 190.511 145.182C208.495 151.375 228.41 147.65 242.94 135.377L208.093 94.1249ZM212.002 67.4749L245.341 109.955C263.745 95.5103 270.755 70.857 262.703 48.8903C254.651 26.9236 233.369 12.6406 209.99 13.5124L212.002 67.4749ZM143.564 101.588L107.621 141.888C120.81 153.651 138.919 158.216 156.108 154.111C173.297 150.005 187.389 137.749 193.839 121.296L143.564 101.588ZM93.285 76.481L103.29 23.416L103.29 23.416L93.285 76.481ZM128.435 107.141L121.172 62.9376L14.6012 80.4469L21.8637 124.651L128.435 107.141ZM132.388 112.676C130.591 110.736 129.483 109.066 128.872 107.915C128.255 106.751 128.324 106.467 128.435 107.141L21.8637 124.651C25.8795 149.093 38.3741 170.107 53.1488 186.061L132.388 112.676ZM64.8318 214.644C118.794 216.656 118.794 216.67 118.793 216.683C118.793 216.688 118.793 216.701 118.792 216.71C118.792 216.727 118.791 216.743 118.79 216.759C118.789 216.79 118.788 216.819 118.787 216.845C118.785 216.898 118.783 216.94 118.781 216.971C118.779 217.034 118.777 217.057 118.778 217.041C118.78 217.008 118.79 216.826 118.813 216.511C118.861 215.874 118.957 214.742 119.137 213.25C119.508 210.161 120.166 206.095 121.245 201.965C122.37 197.665 123.607 194.635 124.565 192.913C125.559 191.127 125.11 192.773 121.967 194.793L63.569 103.944C32.5372 123.891 21.2069 157.63 16.7582 174.644C14.1201 184.734 12.6926 193.838 11.9083 200.363C11.5099 203.679 11.2615 206.465 11.1076 208.545C11.0304 209.589 10.9764 210.464 10.9389 211.15C10.9201 211.493 10.9055 211.79 10.8942 212.038C10.8885 212.162 10.8837 212.273 10.8796 212.372C10.8775 212.422 10.8756 212.468 10.8739 212.511C10.8731 212.533 10.8723 212.554 10.8715 212.574C10.8711 212.584 10.8706 212.598 10.8704 212.603C10.8699 212.618 10.8693 212.632 64.8318 214.644ZM102.439 157.859C84.2375 154.068 67.1525 154.854 52.0165 160.385C44.6244 163.086 38.4419 166.659 33.419 170.486C30.9339 172.379 28.7871 174.293 26.9503 176.131C26.0327 177.049 25.1938 177.947 24.4291 178.813C24.0468 179.246 23.6829 179.671 23.337 180.087C23.164 180.295 22.9955 180.5 22.8314 180.703C22.7494 180.805 22.6684 180.906 22.5885 181.006C22.5486 181.056 22.5089 181.106 22.4695 181.156C22.4498 181.181 22.4204 181.218 22.4106 181.231C22.3814 181.268 22.3521 181.305 64.8318 214.644C107.312 247.983 107.282 248.02 107.253 248.057C107.243 248.069 107.214 248.106 107.195 248.131C107.156 248.18 107.117 248.23 107.077 248.279C106.999 248.377 106.921 248.475 106.842 248.573C106.684 248.768 106.525 248.962 106.365 249.155C106.044 249.54 105.718 249.92 105.388 250.295C104.726 251.044 104.044 251.771 103.341 252.475C101.932 253.885 100.441 255.196 98.8704 256.393C95.6757 258.827 92.352 260.631 89.0822 261.825C82.1907 264.343 78.4044 263.17 80.4193 263.59L102.439 157.859ZM52.4789 276.506C102.834 296.01 102.831 296.017 102.828 296.025C102.827 296.027 102.824 296.035 102.822 296.039C102.819 296.049 102.815 296.058 102.812 296.066C102.806 296.083 102.8 296.097 102.795 296.11C102.785 296.134 102.779 296.151 102.776 296.159C102.769 296.175 102.776 296.158 102.795 296.11C102.834 296.013 102.924 295.79 103.063 295.451C103.343 294.772 103.82 293.637 104.486 292.129C105.825 289.095 107.888 284.642 110.606 279.404C116.222 268.579 123.807 256.012 132.575 245.696L50.2838 175.752C34.3013 194.556 22.4112 214.88 14.7399 229.667C10.814 237.234 7.77968 243.767 5.68292 248.517C4.63098 250.9 3.8051 252.857 3.21166 254.297C2.91467 255.018 2.67509 255.611 2.49373 256.065C2.40302 256.292 2.3268 256.485 2.26516 256.641C2.23434 256.72 2.20716 256.789 2.18362 256.85C2.17186 256.88 2.161 256.908 2.15106 256.933C2.14609 256.946 2.14135 256.958 2.13683 256.97C2.13458 256.976 2.13136 256.984 2.13023 256.987C2.12708 256.995 2.12398 257.003 52.4789 276.506ZM177.311 231.078C133.76 206.13 94.6924 202.445 62.9034 210.933C47.8257 214.959 36.123 221.283 27.8072 227.041C23.6515 229.919 20.2973 232.685 17.7241 235.018C16.4342 236.187 15.3298 237.258 14.4082 238.192C13.947 238.66 13.5304 239.095 13.158 239.493C12.9717 239.692 12.7964 239.881 12.6319 240.061C12.5497 240.151 12.4702 240.239 12.3933 240.324C12.3549 240.367 12.3172 240.409 12.2801 240.45C12.2616 240.471 12.2342 240.501 12.225 240.512C12.1979 240.542 12.1709 240.572 52.4789 276.506C92.787 312.44 92.7603 312.47 92.7336 312.5C92.7249 312.51 92.6983 312.54 92.6807 312.559C92.6456 312.598 92.6108 312.637 92.5764 312.675C92.5074 312.752 92.4397 312.826 92.3733 312.899C92.2403 313.045 92.1123 313.183 91.9891 313.314C91.7429 313.577 91.5155 313.814 91.3068 314.025C90.8903 314.448 90.5436 314.777 90.2648 315.03C89.7137 315.529 89.3949 315.76 89.2924 315.831C89.0831 315.976 89.5578 315.6 90.7642 315.277C91.5437 315.069 101.471 312.099 123.627 324.791L177.311 231.078ZM223.868 360.14C206.292 338.941 199.682 312.064 203.787 286.493L97.1518 269.377C88.3003 324.524 102.554 383.029 140.725 429.07L223.868 360.14ZM278.428 425.95L223.868 360.14L140.725 429.07L195.285 494.88L278.428 425.95ZM428.093 432.928C385.886 475.135 316.524 471.901 278.428 425.95L195.285 494.88C273.984 589.805 417.27 596.486 504.46 509.296L428.093 432.928ZM419.294 281.79C466.847 319.395 470.961 390.06 428.093 432.928L504.46 509.296C593.017 420.739 584.519 274.76 486.285 197.077L419.294 281.79ZM352.241 228.765L419.294 281.79L486.285 197.077L419.232 144.052L352.241 228.765ZM283.224 209.6C307.198 206.54 332.09 212.829 352.241 228.765L419.232 144.052C375.494 109.464 321.298 95.8643 269.55 102.469L283.224 209.6ZM273.48 55.5095C237.546 15.2014 237.515 15.2287 237.484 15.2562C237.474 15.2655 237.443 15.2933 237.422 15.312C237.38 15.3496 237.337 15.3878 237.294 15.4268C237.208 15.5047 237.119 15.5853 237.028 15.6687C236.845 15.8356 236.653 16.0136 236.451 16.2028C236.047 16.5811 235.605 17.0048 235.13 17.4742C234.18 18.4121 233.091 19.5378 231.902 20.8539C229.528 23.4793 226.714 26.9072 223.794 31.1585C217.947 39.6687 211.559 51.6534 207.604 67.0912C199.266 99.6382 203.699 139.411 229.963 183.616L322.812 128.453C309.024 105.246 312.004 94.7563 312.225 93.8937C312.55 92.6268 312.944 92.12 312.81 92.3149C312.746 92.4085 312.521 92.7228 312.022 93.274C311.77 93.553 311.44 93.9014 311.015 94.3214C310.802 94.5318 310.563 94.7613 310.298 95.0102C310.165 95.1347 310.025 95.2642 309.878 95.3987C309.804 95.4659 309.729 95.5345 309.652 95.6043C309.613 95.6392 309.574 95.6744 309.534 95.7099C309.514 95.7277 309.484 95.7546 309.474 95.7635C309.444 95.7904 309.414 95.8175 273.48 55.5095ZM242.94 135.377C253.263 126.656 265.775 119.127 276.518 113.563C281.72 110.869 286.136 108.825 289.143 107.498C290.638 106.839 291.762 106.367 292.434 106.09C292.769 105.952 292.989 105.863 293.085 105.825C293.132 105.806 293.149 105.8 293.132 105.806C293.124 105.81 293.107 105.816 293.083 105.826C293.07 105.831 293.056 105.836 293.039 105.843C293.031 105.846 293.022 105.849 293.013 105.853C293.008 105.855 293.001 105.858 292.998 105.859C292.991 105.861 292.983 105.864 273.48 55.5095C253.976 5.1545 253.968 5.15759 253.96 5.16073C253.957 5.16185 253.949 5.16505 253.943 5.16729C253.932 5.17179 253.92 5.1765 253.907 5.18145C253.882 5.19134 253.854 5.20213 253.824 5.21383C253.764 5.23722 253.695 5.26423 253.617 5.29485C253.461 5.35608 253.27 5.43176 253.044 5.52179C252.593 5.70181 252.005 5.93953 251.29 6.23414C249.861 6.82283 247.92 7.64186 245.555 8.68495C240.841 10.7641 234.359 13.7722 226.846 17.6639C212.159 25.2711 191.978 37.0503 173.246 52.873L242.94 135.377ZM212.002 67.4749C178.663 24.9953 178.626 25.0245 178.589 25.0538C178.576 25.0636 178.539 25.0931 178.514 25.1128C178.464 25.1522 178.414 25.1919 178.364 25.2319C178.263 25.3118 178.162 25.3928 178.061 25.475C177.857 25.6392 177.652 25.8079 177.443 25.981C177.027 26.3273 176.602 26.6915 176.168 27.0742C175.301 27.8397 174.403 28.6796 173.484 29.5982C171.644 31.4372 169.729 33.5866 167.834 36.075C164.004 41.1047 160.429 47.2955 157.729 54.6974C152.201 69.8528 151.427 86.9565 155.236 105.176L260.95 83.0739C260.524 81.0351 261.704 84.8139 259.189 91.7088C257.996 94.9805 256.193 98.3072 253.757 101.505C252.56 103.078 251.248 104.57 249.837 105.98C249.132 106.684 248.404 107.367 247.655 108.029C247.28 108.36 246.9 108.686 246.514 109.007C246.321 109.167 246.127 109.326 245.931 109.484C245.834 109.563 245.735 109.642 245.637 109.72C245.588 109.76 245.539 109.799 245.489 109.838C245.464 109.857 245.427 109.886 245.415 109.896C245.378 109.925 245.341 109.955 212.002 67.4749ZM193.839 121.296C191.893 126.259 188.983 128.029 189.639 127.588C190.501 127.01 193.016 125.698 197.587 124.368C201.905 123.11 206.377 122.319 209.931 121.864C211.636 121.646 212.955 121.527 213.722 121.468C214.1 121.439 214.33 121.425 214.389 121.422C214.418 121.42 214.404 121.421 214.342 121.424C214.312 121.425 214.269 121.427 214.215 121.43C214.187 121.431 214.157 121.432 214.124 121.433C214.107 121.434 214.09 121.435 214.071 121.435C214.062 121.436 214.048 121.436 214.043 121.436C214.029 121.437 214.014 121.437 212.002 67.4749C209.99 13.5124 209.975 13.513 209.959 13.5136C209.954 13.5138 209.938 13.5144 209.927 13.5148C209.906 13.5156 209.883 13.5165 209.86 13.5174C209.813 13.5193 209.762 13.5213 209.708 13.5236C209.6 13.5281 209.477 13.5335 209.34 13.5398C209.067 13.5525 208.737 13.5691 208.353 13.5906C207.587 13.6334 206.604 13.696 205.431 13.7864C203.092 13.9665 199.948 14.2605 196.217 14.7381C188.901 15.6748 178.617 17.4062 167.396 20.6734C148.985 26.0337 109.37 40.8557 93.2885 81.8796L193.839 121.296ZM83.2797 129.546C91.4924 131.095 100.501 135.538 107.621 141.888L179.506 61.2874C158.784 42.806 132.128 28.8534 103.29 23.416L83.2797 129.546ZM57.8815 124.757L83.2797 129.546L103.29 23.416L77.8922 18.6273L57.8815 124.757Z" fill="white" mask="url(#path-1-outside-1_73_2079)"/>
<mask id="path-3-outside-2_73_2079" maskUnits="userSpaceOnUse" x="-94.0954" y="-90.1814" width="723.37" height="723.37" fill="black">
<rect fill="white" x="-94.0954" y="-90.1814" width="723.37" height="723.37"/>
<path fill-rule="evenodd" clip-rule="evenodd" d="M67.8854 71.6928L75.1479 115.896C77.0674 127.579 83.4152 139.271 92.7667 149.369C66.6382 166.164 64.8303 214.645 64.8303 214.645C64.8303 214.645 71.2111 206.514 91.4279 210.725C66.6774 239.844 52.4775 276.507 52.4775 276.507C52.4775 276.507 84.7607 240.294 150.469 277.936C143.991 318.295 154.423 360.986 182.296 394.606L236.856 460.415C295.254 530.854 401.577 535.811 466.276 471.113C531.988 405.4 525.683 297.078 452.789 239.434L385.736 186.409C353.791 161.147 314.247 151.202 276.386 156.035C236.335 88.623 273.478 55.5099 273.478 55.5099C273.478 55.5099 237.147 69.5818 208.092 94.1254C203.856 73.8672 212 67.4754 212 67.4754C212 67.4754 156.118 69.5593 143.562 101.588C129.641 89.1726 111.809 79.9745 93.2836 76.4816L67.8854 71.6928Z"/>
</mask>
<path d="M75.1479 115.896L110.672 110.06L110.672 110.06L75.1479 115.896ZM67.8854 71.6928L74.5556 36.3161C63.0126 34.1397 51.1337 37.7316 42.7306 45.9393C34.3276 54.147 30.4573 65.9382 32.3616 77.5292L67.8854 71.6928ZM92.7667 149.369L112.233 179.652C121.191 173.894 127.14 164.465 128.48 153.901C129.821 143.337 126.415 132.721 119.18 124.908L92.7667 149.369ZM64.8303 214.645L28.8554 213.303C28.2741 228.889 37.7961 243.077 52.4406 248.445C67.0851 253.813 83.5206 249.14 93.1501 236.87L64.8303 214.645ZM91.4279 210.725L118.858 234.039C127.086 224.359 129.602 211.059 125.48 199.042C121.357 187.025 111.205 178.071 98.7679 175.481L91.4279 210.725ZM52.4775 276.507L18.9075 263.505C12.6209 279.736 18.8474 298.14 33.6973 307.22C48.5472 316.3 67.7667 313.456 79.3495 300.463L52.4775 276.507ZM150.469 277.936L186.014 283.641C188.387 268.854 181.358 254.143 168.364 246.698L150.469 277.936ZM182.296 394.606L210.01 371.629L182.296 394.606ZM236.856 460.415L264.57 437.439L236.856 460.415ZM452.789 239.434L430.459 267.672L430.459 267.672L452.789 239.434ZM385.736 186.409L363.406 214.647L363.406 214.647L385.736 186.409ZM276.386 156.035L245.436 174.423C252.763 186.756 266.714 193.562 280.944 191.745L276.386 156.035ZM273.478 55.5099L297.434 82.382C310.427 70.7992 313.272 51.5797 304.192 36.7298C295.111 21.8799 276.707 15.6534 260.476 21.94L273.478 55.5099ZM208.092 94.1254L172.853 101.493C175.448 113.904 184.381 124.035 196.37 128.164C208.359 132.292 221.636 129.809 231.323 121.627L208.092 94.1254ZM212 67.4754L234.226 95.7952C246.496 86.1657 251.169 69.7302 245.801 55.0857C240.433 40.4412 226.245 30.9192 210.659 31.5005L212 67.4754ZM143.562 101.588L119.6 128.455C128.393 136.297 140.466 139.34 151.925 136.604C163.384 133.867 172.779 125.696 177.079 114.727L143.562 101.588ZM93.2836 76.4816L86.6133 111.858L86.6133 111.858L93.2836 76.4816ZM110.672 110.06L103.409 65.8563L32.3616 77.5292L39.6241 121.733L110.672 110.06ZM119.18 124.908C113.444 118.714 111.194 113.237 110.672 110.06L39.6241 121.733C42.9411 141.922 53.3868 159.829 66.3538 173.83L119.18 124.908ZM64.8303 214.645C100.805 215.986 100.805 215.995 100.805 216.004C100.805 216.007 100.804 216.015 100.804 216.021C100.804 216.032 100.803 216.042 100.803 216.051C100.802 216.071 100.801 216.087 100.801 216.1C100.8 216.127 100.799 216.144 100.799 216.149C100.798 216.161 100.8 216.13 100.803 216.06C100.811 215.918 100.829 215.62 100.861 215.184C100.926 214.307 101.048 212.898 101.264 211.103C101.704 207.441 102.49 202.535 103.829 197.412C107.06 185.056 111.147 180.35 112.233 179.652L73.3006 119.086C48.258 135.183 38.3764 163.116 34.1713 179.198C31.7928 188.294 30.4937 196.559 29.7783 202.512C29.4163 205.523 29.1932 208.034 29.0571 209.873C28.9889 210.795 28.9421 211.555 28.9106 212.132C28.8948 212.421 28.8829 212.665 28.8739 212.86C28.8694 212.958 28.8657 213.044 28.8626 213.118C28.8611 213.155 28.8598 213.189 28.8585 213.22C28.8579 213.235 28.8574 213.25 28.8568 213.264C28.8566 213.271 28.8562 213.281 28.8561 213.284C28.8557 213.294 28.8554 213.303 64.8303 214.645ZM98.7679 175.481C83.2639 172.252 69.6574 173.103 58.1926 177.292C52.5775 179.344 47.9794 182.021 44.3261 184.804C42.517 186.182 40.9764 187.558 39.6806 188.855C39.0332 189.503 38.4477 190.13 37.9207 190.727C37.6572 191.025 37.4083 191.316 37.1734 191.599C37.056 191.74 36.9421 191.879 36.8317 192.015C36.7764 192.084 36.7221 192.152 36.6686 192.219C36.6418 192.252 36.6153 192.286 36.5889 192.319C36.5758 192.336 36.5561 192.361 36.5496 192.369C36.5301 192.394 36.5106 192.419 64.8303 214.645C93.1501 236.87 93.1307 236.895 93.1113 236.92C93.1048 236.928 93.0853 236.953 93.0724 236.969C93.0464 237.002 93.0205 237.035 92.9945 237.067C92.9425 237.133 92.8905 237.197 92.8384 237.262C92.7343 237.391 92.6298 237.518 92.5251 237.644C92.3156 237.896 92.105 238.142 91.8931 238.382C91.4695 238.861 91.0409 239.318 90.6075 239.752C89.7395 240.62 88.8553 241.394 87.9603 242.076C86.1352 243.466 84.3959 244.374 82.9031 244.919C79.6829 246.096 79.3751 244.987 84.0879 245.968L98.7679 175.481ZM52.4775 276.507C86.0474 289.509 86.0455 289.514 86.0435 289.519C86.043 289.521 86.0411 289.525 86.0399 289.528C86.0377 289.534 86.0356 289.54 86.0337 289.544C86.03 289.554 86.0271 289.561 86.025 289.567C86.0208 289.577 86.02 289.58 86.0225 289.573C86.0274 289.561 86.0456 289.515 86.0768 289.436C86.1393 289.28 86.2539 288.995 86.4198 288.593C86.7519 287.787 87.2869 286.515 88.0173 284.86C89.4827 281.54 91.7072 276.741 94.6265 271.115C100.585 259.629 108.888 245.77 118.858 234.039L63.9975 187.41C49.2174 204.799 38.0449 223.831 30.716 237.957C26.9915 245.135 24.1191 251.322 22.1486 255.786C21.161 258.024 20.3933 259.843 19.8521 261.156C19.5814 261.813 19.3668 262.345 19.2092 262.74C19.1304 262.937 19.0657 263.1 19.0154 263.228C18.9903 263.292 18.9687 263.347 18.9507 263.393C18.9417 263.416 18.9336 263.437 18.9264 263.456C18.9228 263.465 18.9194 263.474 18.9163 263.482C18.9147 263.486 18.9125 263.492 18.9117 263.494C18.9096 263.499 18.9075 263.505 52.4775 276.507ZM168.364 246.698C128.378 223.792 94.1667 221.216 67.5458 228.324C54.7798 231.733 44.9483 237.066 38.0534 241.84C34.6074 244.226 31.8653 246.493 29.8127 248.354C28.7843 249.286 27.9217 250.123 27.2232 250.832C26.8736 251.186 26.5643 251.509 26.295 251.797C26.1603 251.941 26.0356 252.076 25.9207 252.201C25.8632 252.264 25.8082 252.325 25.7557 252.383C25.7294 252.412 25.7038 252.441 25.6787 252.469C25.6662 252.483 25.6479 252.503 25.6416 252.51C25.6235 252.53 25.6054 252.551 52.4775 276.507C79.3495 300.463 79.3317 300.483 79.3141 300.503C79.3083 300.509 79.2907 300.529 79.2792 300.542C79.2561 300.567 79.2334 300.592 79.2111 300.617C79.1664 300.667 79.1232 300.714 79.0816 300.76C78.9982 300.851 78.9207 300.935 78.8491 301.011C78.706 301.164 78.586 301.288 78.4889 301.387C78.2954 301.583 78.1905 301.679 78.1732 301.695C78.1428 301.722 78.4362 301.454 79.0435 301.033C80.255 300.194 82.6011 298.827 86.1194 297.887C92.0671 296.299 106.851 294.438 132.574 309.173L168.364 246.698ZM210.01 371.629C189.002 346.289 181.118 314.142 186.014 283.641L114.924 272.231C106.864 322.448 119.844 375.682 154.582 417.582L210.01 371.629ZM264.57 437.439L210.01 371.629L154.582 417.582L209.142 483.392L264.57 437.439ZM440.82 445.657C391.116 495.361 309.434 491.552 264.57 437.439L209.142 483.392C281.074 570.155 412.039 576.262 491.732 496.569L440.82 445.657ZM430.459 267.672C486.459 311.956 491.303 395.174 440.82 445.657L491.732 496.569C572.674 415.627 564.906 282.2 475.119 211.196L430.459 267.672ZM363.406 214.647L430.459 267.672L475.119 211.196L408.066 158.171L363.406 214.647ZM280.944 191.745C309.547 188.094 339.323 195.602 363.406 214.647L408.066 158.171C368.259 126.692 318.947 114.311 271.828 120.325L280.944 191.745ZM273.478 55.5099C249.522 28.6379 249.502 28.6562 249.481 28.6746C249.474 28.6809 249.453 28.6995 249.439 28.7122C249.411 28.7375 249.382 28.7636 249.352 28.7902C249.293 28.8435 249.232 28.8992 249.168 28.9576C249.04 29.0742 248.903 29.2009 248.757 29.3378C248.465 29.6116 248.137 29.9264 247.776 30.2825C247.055 30.9942 246.203 31.8742 245.254 32.9244C243.359 35.0204 241.051 37.8246 238.628 41.3517C233.778 48.4111 228.389 58.4828 225.039 71.5589C218.054 98.8251 221.252 133.718 245.436 174.423L307.335 137.647C291.468 110.941 293.213 95.5704 294.787 89.4271C295.716 85.7984 297.11 83.3786 297.972 82.1226C298.406 81.4921 298.687 81.1827 298.667 81.2045C298.655 81.2176 298.562 81.3204 298.366 81.514C298.267 81.6111 298.143 81.7318 297.989 81.8761C297.912 81.9484 297.827 82.0266 297.735 82.1109C297.689 82.153 297.641 82.1967 297.591 82.2418C297.566 82.2644 297.54 82.2874 297.514 82.3108C297.501 82.3224 297.481 82.3403 297.475 82.3461C297.455 82.364 297.434 82.382 273.478 55.5099ZM231.323 121.627C243.048 111.722 256.838 103.485 268.238 97.5801C273.825 94.6863 278.586 92.4818 281.877 91.03C283.517 90.3064 284.777 89.7765 285.575 89.4478C285.973 89.2836 286.255 89.1702 286.41 89.1084C286.487 89.0776 286.533 89.0597 286.545 89.0549C286.551 89.0525 286.549 89.0534 286.538 89.0575C286.533 89.0596 286.525 89.0625 286.516 89.0662C286.511 89.0681 286.506 89.0702 286.5 89.0725C286.497 89.0736 286.492 89.0755 286.49 89.076C286.486 89.078 286.48 89.0799 273.478 55.5099C260.476 21.94 260.471 21.942 260.465 21.9442C260.463 21.945 260.458 21.9472 260.453 21.9487C260.445 21.9519 260.437 21.9552 260.428 21.9588C260.409 21.966 260.388 21.974 260.366 21.983C260.32 22.0008 260.265 22.0223 260.201 22.0472C260.074 22.0972 259.912 22.1613 259.716 22.2395C259.325 22.3959 258.797 22.6087 258.146 22.8773C256.843 23.414 255.038 24.1752 252.818 25.1543C248.389 27.108 242.251 29.9554 235.123 33.6475C221.094 40.9143 202.19 51.9851 184.86 66.6241L231.323 121.627ZM212 67.4754C189.775 39.1557 189.75 39.1752 189.725 39.1947C189.717 39.2013 189.692 39.2209 189.675 39.2341C189.642 39.2604 189.608 39.287 189.575 39.3138C189.507 39.3674 189.439 39.4218 189.371 39.477C189.234 39.5876 189.095 39.7016 188.954 39.8192C188.671 40.0542 188.38 40.3034 188.081 40.5672C187.484 41.0948 186.856 41.6809 186.208 42.329C184.91 43.6265 183.532 45.169 182.153 46.9806C179.367 50.639 176.689 55.2435 174.638 60.8665C170.45 72.3468 169.608 85.9701 172.853 101.493L243.33 86.7581C242.34 82.0225 243.452 82.3208 242.278 85.5407C241.733 87.0335 240.826 88.774 239.435 90.6008C238.753 91.4966 237.979 92.3816 237.11 93.2503C236.676 93.6841 236.219 94.1131 235.739 94.5371C235.499 94.7492 235.253 94.96 235.001 95.1697C234.875 95.2745 234.747 95.379 234.618 95.4833C234.554 95.5354 234.489 95.5875 234.423 95.6395C234.391 95.6655 234.358 95.6914 234.325 95.7174C234.309 95.7304 234.284 95.7499 234.276 95.7563C234.251 95.7758 234.226 95.7952 212 67.4754ZM177.079 114.727C176.821 115.386 178.927 111.053 192.553 107.086C198.023 105.493 203.463 104.545 207.644 104.01C209.686 103.749 211.31 103.6 212.338 103.521C212.85 103.482 213.205 103.46 213.382 103.45C213.47 103.445 213.513 103.444 213.507 103.444C213.504 103.444 213.489 103.445 213.462 103.446C213.448 103.446 213.432 103.447 213.412 103.448C213.402 103.448 213.391 103.449 213.379 103.449C213.373 103.449 213.364 103.45 213.361 103.45C213.352 103.45 213.342 103.45 212 67.4754C210.659 31.5005 210.649 31.5008 210.638 31.5012C210.635 31.5014 210.624 31.5018 210.617 31.5021C210.602 31.5026 210.586 31.5033 210.569 31.5039C210.535 31.5052 210.498 31.5067 210.458 31.5084C210.376 31.5118 210.281 31.516 210.172 31.521C209.955 31.5311 209.682 31.5448 209.358 31.5629C208.71 31.5992 207.852 31.6536 206.811 31.7338C204.734 31.8937 201.894 32.1586 198.501 32.5929C191.812 33.4493 182.497 35.0241 172.426 37.9563C154.972 43.038 122.859 55.7621 110.045 88.4495L177.079 114.727ZM86.6133 111.858C98.2635 114.055 110.213 120.083 119.6 128.455L167.524 74.7214C149.069 58.2619 125.354 45.8941 99.9538 41.1049L86.6133 111.858ZM61.2151 107.069L86.6133 111.858L99.9538 41.1049L74.5556 36.3161L61.2151 107.069Z" fill="#1E1C35" mask="url(#path-3-outside-2_73_2079)"/>
<path d="M287.803 287.39C296.391 278.331 297.6 262.403 291.259 241.883C284.917 221.364 271.349 197.304 252.494 173.14C185.627 88.1746 212.003 67.474 212.003 67.474C212.003 67.474 84.9479 72.2119 170.953 177.203C256.958 282.194 287.803 287.39 287.803 287.39Z" fill="#24B74F"/>
<path d="M284.749 290.442C275.69 299.031 259.762 300.24 239.242 293.898C218.722 287.557 194.662 273.989 170.498 255.133C85.533 188.266 64.8324 214.643 64.8324 214.643C64.8324 214.643 69.5703 87.5876 174.561 173.593C279.553 259.598 284.749 290.442 284.749 290.442Z" fill="#24B74F"/>
<path d="M67.8883 71.6911L75.1508 115.895C78.8251 138.259 98.7266 160.656 124.861 171.839C155.197 184.82 180.623 167.523 169.905 141.197L166.645 133.191C155.482 105.774 125.428 82.5401 93.2865 76.4799L67.8883 71.6911Z" fill="#24B74F"/>
<path d="M270.925 269.37C284.007 255.951 291.616 237.825 292.664 217.582C293.713 197.34 288.147 176.018 276.762 156.662C236.104 88.8264 273.479 55.507 273.479 55.507C273.479 55.507 130.822 110.76 184.806 193.256C238.79 275.751 270.925 269.37 270.925 269.37Z" fill="#08A034"/>
<path d="M266.34 273.953C252.921 287.035 234.795 294.644 214.552 295.693C194.31 296.741 172.988 291.175 153.632 279.791C85.7961 239.132 52.4767 276.507 52.4767 276.507C52.4767 276.507 107.73 133.85 190.225 187.834C272.721 241.819 266.34 273.953 266.34 273.953Z" fill="#08A034"/>
<g filter="url(#filter0_i_73_2079)">
<path d="M182.297 394.604C134.078 336.444 138.056 251.138 191.477 197.716V197.716C243.984 145.209 327.492 140.348 385.737 186.408L452.79 239.433C525.683 297.077 531.989 405.399 466.277 471.112V471.112C401.578 535.81 295.255 530.853 236.857 460.414L182.297 394.604Z" fill="#FFAD07"/>
</g>
<g opacity="0.2">
<mask id="mask0_73_2079" style="mask-type:alpha" maskUnits="userSpaceOnUse" x="148" y="154" width="364" height="363">
<path d="M182.296 394.606C134.077 336.446 138.055 251.14 191.476 197.718V197.718C243.983 145.211 327.491 140.35 385.736 186.41L452.789 239.435C525.683 297.079 531.988 405.401 466.276 471.113V471.113C401.577 535.812 295.254 530.855 236.856 460.416L182.296 394.606Z" fill="#FF7C00"/>
</mask>
<g mask="url(#mask0_73_2079)">
<line x1="157.89" y1="39.5957" x2="157.89" y2="685.596" stroke="#823B13" stroke-width="12"/>
<line x1="217.89" y1="39.5957" x2="217.89" y2="685.596" stroke="#823B13" stroke-width="12"/>
<line x1="277.89" y1="39.5957" x2="277.89" y2="685.596" stroke="#823B13" stroke-width="12"/>
<line x1="337.89" y1="39.5957" x2="337.89" y2="685.596" stroke="#823B13" stroke-width="12"/>
<line x1="397.89" y1="39.5957" x2="397.89" y2="685.596" stroke="#823B13" stroke-width="12"/>
<line x1="457.89" y1="39.5957" x2="457.89" y2="685.596" stroke="#823B13" stroke-width="12"/>
<line x1="653.766" y1="188.133" x2="7.76566" y2="188.133" stroke="#823B13" stroke-width="12"/>
<line x1="653.766" y1="248.133" x2="7.76566" y2="248.133" stroke="#823B13" stroke-width="12"/>
<line x1="653.766" y1="308.133" x2="7.76566" y2="308.133" stroke="#823B13" stroke-width="12"/>
<line x1="653.766" y1="368.133" x2="7.76566" y2="368.133" stroke="#823B13" stroke-width="12"/>
<line x1="653.766" y1="428.133" x2="7.76566" y2="428.133" stroke="#823B13" stroke-width="12"/>
<line x1="653.766" y1="488.133" x2="7.76566" y2="488.133" stroke="#823B13" stroke-width="12"/>
</g>
</g>
</g>
<defs>
<filter id="filter0_i_73_2079" x="148.612" y="154.852" width="363.163" height="361.758" filterUnits="userSpaceOnUse" color-interpolation-filters="sRGB">
<feFlood flood-opacity="0" result="BackgroundImageFix"/>
<feBlend mode="normal" in="SourceGraphic" in2="BackgroundImageFix" result="shape"/>
<feColorMatrix in="SourceAlpha" type="matrix" values="0 0 0 0 0 0 0 0 0 0 0 0 0 0 0 0 0 0 127 0" result="hardAlpha"/>
<feOffset dx="-40" dy="-20"/>
<feComposite in2="hardAlpha" operator="arithmetic" k2="-1" k3="1"/>
<feColorMatrix type="matrix" values="0 0 0 0 0.817535 0 0 0 0 0.536391 0 0 0 0 0.0408767 0 0 0 1 0"/>
<feBlend mode="normal" in2="shape" result="effect1_innerShadow_73_2079"/>
</filter>
<clipPath id="clip0_73_2079">
<rect width="575" height="575" fill="white"/>
</clipPath>
</defs>
</svg>
