<svg width="576" height="576" viewBox="0 0 576 576" fill="none" xmlns="http://www.w3.org/2000/svg">
<g clip-path="url(#clip0_73_1904)">
<mask id="path-1-outside-1_73_1904" maskUnits="userSpaceOnUse" x="-145.346" y="-145.598" width="864.084" height="864.084" fill="black">
<rect fill="white" x="-145.346" y="-145.598" width="864.084" height="864.084"/>
<path fill-rule="evenodd" clip-rule="evenodd" d="M437.159 497.966C438.127 509.838 422.132 514.515 416.552 503.992C415.965 502.887 415.194 501.89 414.272 501.045L397.315 485.513C331.669 520.829 251.726 520.033 186.725 483.126C186.723 483.126 186.722 483.125 186.721 483.125C170.061 473.665 154.382 461.833 140.177 447.628C67.7639 375.215 57.0035 264.495 107.896 180.697C105.992 181.935 103.97 183.193 101.822 184.47C85.6272 194.103 70.0934 187.807 57.1861 176.579C49.5689 169.953 68.5093 138.06 77.4188 133.311C87.19 128.226 98.3178 126.36 109.213 127.979C113.78 128.658 118.209 129.934 122.392 131.756C108.523 115.489 100.391 94.811 103.729 72.5989C104.595 67.7544 107.282 63.4249 111.239 60.4989C115.195 57.5729 120.122 56.2722 125.007 56.8641C129.892 57.4559 134.366 59.8951 137.509 63.6813C140.653 67.4675 142.229 72.3135 141.912 77.2245C140.283 82.4054 139.515 87.8185 139.64 93.2481C141.521 105.503 147.008 116.832 155.291 125.851C171.334 112.54 188.838 101.885 207.221 93.8882C224.781 86.2494 243.141 81.0353 261.794 78.2458C327.763 68.3804 397.392 88.841 448.178 139.628C518.068 209.517 530.527 315.09 485.556 397.702L496.789 411.324C497.786 412.532 499.019 413.524 500.413 414.238L502.448 415.281C513.194 420.786 508.556 437.074 496.522 436.093C488.974 435.477 483.065 442.478 484.938 449.816L491.676 476.203C493.93 485.032 485.909 493.053 477.08 490.799L451.125 484.171C443.575 482.244 436.373 488.323 437.006 496.089L437.159 497.966Z"/>
</mask>
<path fill-rule="evenodd" clip-rule="evenodd" d="M437.159 497.966C438.127 509.838 422.132 514.515 416.552 503.992C415.965 502.887 415.194 501.89 414.272 501.045L397.315 485.513C331.669 520.829 251.726 520.033 186.725 483.126C186.723 483.126 186.722 483.125 186.721 483.125C170.061 473.665 154.382 461.833 140.177 447.628C67.7639 375.215 57.0035 264.495 107.896 180.697C105.992 181.935 103.97 183.193 101.822 184.47C85.6272 194.103 70.0934 187.807 57.1861 176.579C49.5689 169.953 68.5093 138.06 77.4188 133.311C87.19 128.226 98.3178 126.36 109.213 127.979C113.78 128.658 118.209 129.934 122.392 131.756C108.523 115.489 100.391 94.811 103.729 72.5989C104.595 67.7544 107.282 63.4249 111.239 60.4989C115.195 57.5729 120.122 56.2722 125.007 56.8641C129.892 57.4559 134.366 59.8951 137.509 63.6813C140.653 67.4675 142.229 72.3135 141.912 77.2245C140.283 82.4054 139.515 87.8185 139.64 93.2481C141.521 105.503 147.008 116.832 155.291 125.851C171.334 112.54 188.838 101.885 207.221 93.8882C224.781 86.2494 243.141 81.0353 261.794 78.2458C327.763 68.3804 397.392 88.841 448.178 139.628C518.068 209.517 530.527 315.09 485.556 397.702L496.789 411.324C497.786 412.532 499.019 413.524 500.413 414.238L502.448 415.281C513.194 420.786 508.556 437.074 496.522 436.093C488.974 435.477 483.065 442.478 484.938 449.816L491.676 476.203C493.93 485.032 485.909 493.053 477.08 490.799L451.125 484.171C443.575 482.244 436.373 488.323 437.006 496.089L437.159 497.966Z" fill="#EF4723"/>
<path d="M416.552 503.992L464.258 478.692L464.257 478.691L416.552 503.992ZM437.159 497.966L490.98 493.579L490.98 493.578L437.159 497.966ZM414.272 501.045L377.797 540.865L377.798 540.865L414.272 501.045ZM397.315 485.513L433.789 445.693L405.507 419.787L371.731 437.958L397.315 485.513ZM186.725 483.126L213.387 436.167L206.369 432.183L198.493 430.424L186.725 483.126ZM186.721 483.125L160.058 530.083L167.076 534.068L174.953 535.827L186.721 483.125ZM107.896 180.697L154.051 208.728L78.4658 135.422L107.896 180.697ZM101.822 184.47L129.427 230.881L129.427 230.881L101.822 184.47ZM57.1861 176.579L92.627 135.836L92.627 135.836L57.1861 176.579ZM77.4188 133.311L52.4892 85.4102L52.2546 85.5323L52.0212 85.6567L77.4188 133.311ZM109.213 127.979L117.152 74.5657L117.152 74.5657L109.213 127.979ZM122.392 131.756L100.83 181.265L163.484 96.7222L122.392 131.756ZM103.729 72.5989L50.5706 63.1048L50.4397 63.8376L50.3291 64.5737L103.729 72.5989ZM111.239 60.4989L79.131 17.0812L79.131 17.0812L111.239 60.4989ZM125.007 56.8641L118.513 110.472L118.513 110.472L125.007 56.8641ZM137.509 63.6813L179.056 29.1862L179.056 29.1861L137.509 63.6813ZM141.912 77.2245L193.425 93.4235L195.381 87.204L195.8 80.6976L141.912 77.2245ZM139.64 93.2481L85.6542 94.4888L85.7345 97.9836L86.2648 101.439L139.64 93.2481ZM155.291 125.851L115.519 162.377L150.254 200.2L189.774 167.408L155.291 125.851ZM207.221 93.8882L228.763 143.406L228.763 143.406L207.221 93.8882ZM261.794 78.2458L253.808 24.8397L253.808 24.8397L261.794 78.2458ZM485.556 397.702L438.128 371.883L420.69 403.917L443.894 432.057L485.556 397.702ZM496.789 411.324L538.451 376.968L538.451 376.968L496.789 411.324ZM500.413 414.238L475.791 462.298L475.791 462.298L500.413 414.238ZM502.448 415.281L477.826 463.341L477.826 463.341L502.448 415.281ZM496.522 436.093L500.91 382.271L500.91 382.271L496.522 436.093ZM484.938 449.816L432.617 463.176L432.617 463.176L484.938 449.816ZM491.676 476.203L543.997 462.843L543.997 462.843L491.676 476.203ZM477.08 490.799L463.72 543.12L463.721 543.12L477.08 490.799ZM451.125 484.171L464.484 431.85L464.484 431.85L451.125 484.171ZM437.006 496.089L383.185 500.477L383.185 500.477L437.006 496.089ZM368.845 529.293C401.919 591.657 496.716 563.936 490.98 493.579L383.338 502.354C379.538 455.739 442.345 437.372 464.258 478.692L368.845 529.293ZM377.798 540.865C374.174 537.546 371.147 533.632 368.846 529.293L464.257 478.691C460.784 472.142 456.214 466.234 450.746 461.225L377.798 540.865ZM360.84 525.332L377.797 540.865L450.746 461.226L433.789 445.693L360.84 525.332ZM160.062 530.084C241.25 576.183 340.928 577.167 422.899 533.067L371.731 437.958C322.411 464.491 262.202 463.884 213.387 436.167L160.062 530.084ZM198.493 430.424C198.461 430.417 198.433 430.411 198.41 430.405C198.386 430.4 198.365 430.395 198.35 430.392C198.334 430.389 198.321 430.386 198.313 430.384C198.309 430.383 198.306 430.382 198.304 430.382C198.303 430.382 198.302 430.382 198.302 430.381C198.301 430.381 198.301 430.381 198.301 430.381C198.301 430.381 198.301 430.381 198.301 430.381C198.301 430.381 198.302 430.382 198.304 430.382C198.306 430.382 198.309 430.383 198.312 430.384C198.32 430.385 198.332 430.388 198.348 430.392C198.363 430.395 198.384 430.4 198.407 430.405C198.431 430.41 198.458 430.416 198.49 430.423L174.953 535.827C174.984 535.834 175.012 535.84 175.036 535.846C175.06 535.851 175.08 535.855 175.096 535.859C175.112 535.862 175.125 535.865 175.133 535.867C175.136 535.868 175.14 535.869 175.142 535.869C175.143 535.869 175.144 535.869 175.144 535.869C175.144 535.87 175.145 535.87 175.145 535.87C175.145 535.87 175.145 535.87 175.145 535.87C175.145 535.87 175.144 535.869 175.142 535.869C175.14 535.869 175.137 535.868 175.133 535.867C175.126 535.865 175.113 535.863 175.098 535.859C175.082 535.856 175.062 535.851 175.039 535.846C175.015 535.841 174.987 535.835 174.956 535.828L198.493 430.424ZM213.385 436.167C200.901 429.079 189.105 420.188 178.361 409.444L101.993 485.812C119.659 503.477 139.22 518.251 160.058 530.083L213.385 436.167ZM178.361 409.444C123.953 355.036 115.775 271.751 154.051 208.728L61.7413 152.666C-1.76832 257.239 11.5748 395.393 101.993 485.812L178.361 409.444ZM129.427 230.881C132.164 229.254 134.796 227.618 137.326 225.973L78.4658 135.422C77.188 136.252 75.7756 137.133 74.2173 138.06L129.427 230.881ZM21.7452 217.321C31.9691 226.215 46.795 236.406 65.8778 240.906C86.7226 245.821 109.034 243.011 129.427 230.881L74.2176 138.059C75.7771 137.132 78.3844 135.992 81.8396 135.475C85.2739 134.961 88.3445 135.242 90.6647 135.789C94.705 136.741 95.3104 138.171 92.627 135.836L21.7452 217.321ZM52.0212 85.6567C38.8965 92.6515 30.1274 103.692 26.7154 108.103C21.7278 114.55 17.0574 121.918 13.2186 129.283C9.62787 136.172 5.3077 145.823 3.04593 156.535C1.92844 161.828 0.699695 170.163 1.9388 179.858C3.21422 189.837 7.73774 205.136 21.7453 217.321L92.627 135.836C104.73 146.365 108.179 159.218 109.067 166.166C109.919 172.831 108.99 177.549 108.716 178.846C108.142 181.567 107.685 181.704 108.991 179.199C110.049 177.169 111.308 175.259 112.14 174.184C112.548 173.656 112.406 173.91 111.632 174.675C111.323 174.98 108.308 178.039 102.816 180.966L52.0212 85.6567ZM117.152 74.5657C94.9925 71.2722 72.3606 75.0683 52.4892 85.4102L102.348 181.212C102.019 181.384 101.643 181.447 101.275 181.392L117.152 74.5657ZM143.953 82.2474C135.446 78.5427 126.44 75.9461 117.152 74.5657L101.274 181.392C101.121 181.369 100.971 181.326 100.83 181.265L143.953 82.2474ZM50.3291 64.5737C44.1608 105.618 59.7343 141.496 81.2987 166.79L163.484 96.7222C157.311 89.4816 156.622 84.0044 157.13 80.6241L50.3291 64.5737ZM79.131 17.0812C64.0847 28.208 53.8623 44.674 50.5706 63.1048L156.888 82.0929C155.327 90.8347 150.479 98.6419 143.346 103.917L79.131 17.0812ZM131.501 3.25598C112.918 1.00475 94.1797 5.95253 79.131 17.0812L143.346 103.917C136.211 109.193 127.325 111.54 118.513 110.472L131.501 3.25598ZM179.056 29.1861C167.099 14.7856 150.084 5.50707 131.501 3.25597L118.513 110.472C109.701 109.405 101.633 105.005 95.9633 98.1765L179.056 29.1861ZM195.8 80.6976C197.004 62.0157 191.011 43.5849 179.056 29.1862L95.9632 98.1764C90.2955 91.3501 87.4529 82.6113 88.024 73.7514L195.8 80.6976ZM193.626 92.0075C193.637 92.4888 193.569 92.9672 193.425 93.4235L90.3991 61.0254C86.9972 71.8436 85.3936 83.1482 85.6542 94.4888L193.626 92.0075ZM195.064 89.3253C193.979 88.1441 193.261 86.6605 193.015 85.0574L86.2648 101.439C89.7798 124.345 100.038 145.521 115.519 162.377L195.064 89.3253ZM189.774 167.408C201.844 157.392 214.98 149.401 228.763 143.406L185.68 44.3708C162.696 54.3692 140.824 67.6866 120.808 84.2949L189.774 167.408ZM253.808 24.8397C230.547 28.3182 207.625 34.8242 185.68 44.3709L228.763 143.406C241.936 137.675 255.735 133.752 269.781 131.652L253.808 24.8397ZM486.362 101.444C422.957 38.0385 335.98 12.551 253.808 24.8397L269.781 131.652C319.546 124.21 371.827 139.643 409.995 177.811L486.362 101.444ZM532.984 423.52C589.088 320.458 573.637 188.719 486.362 101.444L409.995 177.811C462.499 230.316 471.967 309.721 438.128 371.883L532.984 423.52ZM538.451 376.968L527.218 363.346L443.894 432.057L455.127 445.679L538.451 376.968ZM525.036 366.179C530.196 368.823 534.762 372.494 538.451 376.968L455.127 445.679C460.81 452.57 467.842 458.226 475.791 462.298L525.036 366.179ZM527.071 367.221L525.035 366.179L475.791 462.298L477.826 463.341L527.071 367.221ZM492.135 489.914C563.08 495.698 590.421 399.677 527.07 367.221L477.826 463.341C435.968 441.896 454.033 378.45 500.91 382.271L492.135 489.914ZM537.26 436.456C544.559 465.042 521.54 492.311 492.135 489.914L500.91 382.271C456.408 378.643 421.571 419.914 432.617 463.176L537.26 436.456ZM543.997 462.843L537.26 436.456L432.617 463.176L439.355 489.563L543.997 462.843ZM463.721 543.12C512.279 555.519 556.396 511.402 543.997 462.843L439.355 489.563C431.464 458.662 459.539 430.587 490.44 438.478L463.721 543.12ZM437.765 536.493L463.72 543.12L490.44 438.478L464.484 431.85L437.765 536.493ZM490.827 491.702C493.207 520.889 466.139 543.738 437.765 536.493L464.484 431.85C421.011 420.75 379.539 455.757 383.185 500.477L490.827 491.702ZM490.98 493.578L490.827 491.701L383.185 500.477L383.338 502.354L490.98 493.578Z" fill="#1E1C35" mask="url(#path-1-outside-1_73_1904)"/>
<path d="M416.552 503.992L464.258 478.692L464.257 478.691L416.552 503.992ZM437.159 497.966L490.98 493.579L490.98 493.578L437.159 497.966ZM414.272 501.045L377.797 540.865L377.798 540.865L414.272 501.045ZM397.315 485.513L433.789 445.693L405.507 419.787L371.731 437.958L397.315 485.513ZM186.725 483.126L213.387 436.167L206.369 432.183L198.493 430.424L186.725 483.126ZM186.721 483.125L160.058 530.083L167.076 534.068L174.953 535.827L186.721 483.125ZM107.896 180.697L154.051 208.728L78.4658 135.422L107.896 180.697ZM101.822 184.47L129.427 230.881L129.427 230.881L101.822 184.47ZM57.1861 176.579L92.627 135.836L92.627 135.836L57.1861 176.579ZM77.4188 133.311L52.4892 85.4102L52.2546 85.5323L52.0212 85.6567L77.4188 133.311ZM109.213 127.979L117.152 74.5657L117.152 74.5657L109.213 127.979ZM122.392 131.756L100.83 181.265L163.484 96.7222L122.392 131.756ZM103.729 72.5989L50.5706 63.1048L50.4397 63.8376L50.3291 64.5737L103.729 72.5989ZM111.239 60.4989L79.131 17.0812L79.131 17.0812L111.239 60.4989ZM125.007 56.8641L118.513 110.472L118.513 110.472L125.007 56.8641ZM137.509 63.6813L179.056 29.1862L179.056 29.1861L137.509 63.6813ZM141.912 77.2245L193.425 93.4235L195.381 87.204L195.8 80.6976L141.912 77.2245ZM139.64 93.2481L85.6542 94.4888L85.7345 97.9836L86.2648 101.439L139.64 93.2481ZM155.291 125.851L115.519 162.377L150.254 200.2L189.774 167.408L155.291 125.851ZM207.221 93.8882L228.763 143.406L228.763 143.406L207.221 93.8882ZM261.794 78.2458L253.808 24.8397L253.808 24.8397L261.794 78.2458ZM485.556 397.702L438.128 371.883L420.69 403.917L443.894 432.057L485.556 397.702ZM496.789 411.324L538.451 376.968L538.451 376.968L496.789 411.324ZM500.413 414.238L475.791 462.298L475.791 462.298L500.413 414.238ZM502.448 415.281L477.826 463.341L477.826 463.341L502.448 415.281ZM496.522 436.093L500.91 382.271L500.91 382.271L496.522 436.093ZM484.938 449.816L432.617 463.176L432.617 463.176L484.938 449.816ZM491.676 476.203L543.997 462.843L543.997 462.843L491.676 476.203ZM477.08 490.799L463.72 543.12L463.721 543.12L477.08 490.799ZM451.125 484.171L464.484 431.85L464.484 431.85L451.125 484.171ZM437.006 496.089L383.185 500.477L383.185 500.477L437.006 496.089ZM368.845 529.293C401.919 591.657 496.716 563.936 490.98 493.579L383.338 502.354C379.538 455.739 442.345 437.372 464.258 478.692L368.845 529.293ZM377.798 540.865C374.174 537.546 371.147 533.632 368.846 529.293L464.257 478.691C460.784 472.142 456.214 466.234 450.746 461.225L377.798 540.865ZM360.84 525.332L377.797 540.865L450.746 461.226L433.789 445.693L360.84 525.332ZM160.062 530.084C241.25 576.183 340.928 577.167 422.899 533.067L371.731 437.958C322.411 464.491 262.202 463.884 213.387 436.167L160.062 530.084ZM198.493 430.424C198.461 430.417 198.433 430.411 198.41 430.405C198.386 430.4 198.365 430.395 198.35 430.392C198.334 430.389 198.321 430.386 198.313 430.384C198.309 430.383 198.306 430.382 198.304 430.382C198.303 430.382 198.302 430.382 198.302 430.381C198.301 430.381 198.301 430.381 198.301 430.381C198.301 430.381 198.301 430.381 198.301 430.381C198.301 430.381 198.302 430.382 198.304 430.382C198.306 430.382 198.309 430.383 198.312 430.384C198.32 430.385 198.332 430.388 198.348 430.392C198.363 430.395 198.384 430.4 198.407 430.405C198.431 430.41 198.458 430.416 198.49 430.423L174.953 535.827C174.984 535.834 175.012 535.84 175.036 535.846C175.06 535.851 175.08 535.855 175.096 535.859C175.112 535.862 175.125 535.865 175.133 535.867C175.136 535.868 175.14 535.869 175.142 535.869C175.143 535.869 175.144 535.869 175.144 535.869C175.144 535.87 175.145 535.87 175.145 535.87C175.145 535.87 175.145 535.87 175.145 535.87C175.145 535.87 175.144 535.869 175.142 535.869C175.14 535.869 175.137 535.868 175.133 535.867C175.126 535.865 175.113 535.863 175.098 535.859C175.082 535.856 175.062 535.851 175.039 535.846C175.015 535.841 174.987 535.835 174.956 535.828L198.493 430.424ZM213.385 436.167C200.901 429.079 189.105 420.188 178.361 409.444L101.993 485.812C119.659 503.477 139.22 518.251 160.058 530.083L213.385 436.167ZM178.361 409.444C123.953 355.036 115.775 271.751 154.051 208.728L61.7413 152.666C-1.76832 257.239 11.5748 395.393 101.993 485.812L178.361 409.444ZM129.427 230.881C132.164 229.254 134.796 227.618 137.326 225.973L78.4658 135.422C77.188 136.252 75.7756 137.133 74.2173 138.06L129.427 230.881ZM21.7452 217.321C31.9691 226.215 46.795 236.406 65.8778 240.906C86.7226 245.821 109.034 243.011 129.427 230.881L74.2176 138.059C75.7771 137.132 78.3844 135.992 81.8396 135.475C85.2739 134.961 88.3445 135.242 90.6647 135.789C94.705 136.741 95.3104 138.171 92.627 135.836L21.7452 217.321ZM52.0212 85.6567C38.8965 92.6515 30.1274 103.692 26.7154 108.103C21.7278 114.55 17.0574 121.918 13.2186 129.283C9.62787 136.172 5.3077 145.823 3.04593 156.535C1.92844 161.828 0.699695 170.163 1.9388 179.858C3.21422 189.837 7.73774 205.136 21.7453 217.321L92.627 135.836C104.73 146.365 108.179 159.218 109.067 166.166C109.919 172.831 108.99 177.549 108.716 178.846C108.142 181.567 107.685 181.704 108.991 179.199C110.049 177.169 111.308 175.259 112.14 174.184C112.548 173.656 112.406 173.91 111.632 174.675C111.323 174.98 108.308 178.039 102.816 180.966L52.0212 85.6567ZM117.152 74.5657C94.9925 71.2722 72.3606 75.0683 52.4892 85.4102L102.348 181.212C102.019 181.384 101.643 181.447 101.275 181.392L117.152 74.5657ZM143.953 82.2474C135.446 78.5427 126.44 75.9461 117.152 74.5657L101.274 181.392C101.121 181.369 100.971 181.326 100.83 181.265L143.953 82.2474ZM50.3291 64.5737C44.1608 105.618 59.7343 141.496 81.2987 166.79L163.484 96.7222C157.311 89.4816 156.622 84.0044 157.13 80.6241L50.3291 64.5737ZM79.131 17.0812C64.0847 28.208 53.8623 44.674 50.5706 63.1048L156.888 82.0929C155.327 90.8347 150.479 98.6419 143.346 103.917L79.131 17.0812ZM131.501 3.25598C112.918 1.00475 94.1797 5.95253 79.131 17.0812L143.346 103.917C136.211 109.193 127.325 111.54 118.513 110.472L131.501 3.25598ZM179.056 29.1861C167.099 14.7856 150.084 5.50707 131.501 3.25597L118.513 110.472C109.701 109.405 101.633 105.005 95.9633 98.1765L179.056 29.1861ZM195.8 80.6976C197.004 62.0157 191.011 43.5849 179.056 29.1862L95.9632 98.1764C90.2955 91.3501 87.4529 82.6113 88.024 73.7514L195.8 80.6976ZM193.626 92.0075C193.637 92.4888 193.569 92.9672 193.425 93.4235L90.3991 61.0254C86.9972 71.8436 85.3936 83.1482 85.6542 94.4888L193.626 92.0075ZM195.064 89.3253C193.979 88.1441 193.261 86.6605 193.015 85.0574L86.2648 101.439C89.7798 124.345 100.038 145.521 115.519 162.377L195.064 89.3253ZM189.774 167.408C201.844 157.392 214.98 149.401 228.763 143.406L185.68 44.3708C162.696 54.3692 140.824 67.6866 120.808 84.2949L189.774 167.408ZM253.808 24.8397C230.547 28.3182 207.625 34.8242 185.68 44.3709L228.763 143.406C241.936 137.675 255.735 133.752 269.781 131.652L253.808 24.8397ZM486.362 101.444C422.957 38.0385 335.98 12.551 253.808 24.8397L269.781 131.652C319.546 124.21 371.827 139.643 409.995 177.811L486.362 101.444ZM532.984 423.52C589.088 320.458 573.637 188.719 486.362 101.444L409.995 177.811C462.499 230.316 471.967 309.721 438.128 371.883L532.984 423.52ZM538.451 376.968L527.218 363.346L443.894 432.057L455.127 445.679L538.451 376.968ZM525.036 366.179C530.196 368.823 534.762 372.494 538.451 376.968L455.127 445.679C460.81 452.57 467.842 458.226 475.791 462.298L525.036 366.179ZM527.071 367.221L525.035 366.179L475.791 462.298L477.826 463.341L527.071 367.221ZM492.135 489.914C563.08 495.698 590.421 399.677 527.07 367.221L477.826 463.341C435.968 441.896 454.033 378.45 500.91 382.271L492.135 489.914ZM537.26 436.456C544.559 465.042 521.54 492.311 492.135 489.914L500.91 382.271C456.408 378.643 421.571 419.914 432.617 463.176L537.26 436.456ZM543.997 462.843L537.26 436.456L432.617 463.176L439.355 489.563L543.997 462.843ZM463.721 543.12C512.279 555.519 556.396 511.402 543.997 462.843L439.355 489.563C431.464 458.662 459.539 430.587 490.44 438.478L463.721 543.12ZM437.765 536.493L463.72 543.12L490.44 438.478L464.484 431.85L437.765 536.493ZM490.827 491.702C493.207 520.889 466.139 543.738 437.765 536.493L464.484 431.85C421.011 420.75 379.539 455.757 383.185 500.477L490.827 491.702ZM490.98 493.578L490.827 491.701L383.185 500.477L383.338 502.354L490.98 493.578Z" fill="white" mask="url(#path-1-outside-1_73_1904)"/>
<mask id="path-3-outside-2_73_1904" maskUnits="userSpaceOnUse" x="-119.89" y="-120.142" width="813.173" height="813.173" fill="black">
<rect fill="white" x="-119.89" y="-120.142" width="813.173" height="813.173"/>
<path fill-rule="evenodd" clip-rule="evenodd" d="M437.159 497.966C438.127 509.838 422.132 514.515 416.552 503.992C415.965 502.887 415.194 501.89 414.272 501.045L397.315 485.513C331.669 520.829 251.726 520.033 186.725 483.126C186.723 483.126 186.722 483.125 186.721 483.125C170.061 473.665 154.382 461.833 140.177 447.628C67.7639 375.215 57.0035 264.495 107.896 180.697C105.992 181.935 103.97 183.193 101.822 184.47C85.6272 194.103 70.0934 187.807 57.1861 176.579C49.5689 169.953 68.5093 138.06 77.4188 133.311C87.19 128.226 98.3178 126.36 109.213 127.979C113.78 128.658 118.209 129.934 122.392 131.756C108.523 115.489 100.391 94.811 103.729 72.5989C104.595 67.7544 107.282 63.4249 111.239 60.4989C115.195 57.5729 120.122 56.2722 125.007 56.8641C129.892 57.4559 134.366 59.8951 137.509 63.6813C140.653 67.4675 142.229 72.3135 141.912 77.2245C140.283 82.4054 139.515 87.8185 139.64 93.2481C141.521 105.503 147.008 116.832 155.291 125.851C171.334 112.54 188.838 101.885 207.221 93.8882C224.781 86.2494 243.141 81.0353 261.794 78.2458C327.763 68.3804 397.392 88.841 448.178 139.628C518.068 209.517 530.527 315.09 485.556 397.702L496.789 411.324C497.786 412.532 499.019 413.524 500.413 414.238L502.448 415.281C513.194 420.786 508.556 437.074 496.522 436.093C488.974 435.477 483.065 442.478 484.938 449.816L491.676 476.203C493.93 485.032 485.909 493.053 477.08 490.799L451.125 484.171C443.575 482.244 436.373 488.323 437.006 496.089L437.159 497.966Z"/>
</mask>
<path fill-rule="evenodd" clip-rule="evenodd" d="M437.159 497.966C438.127 509.838 422.132 514.515 416.552 503.992C415.965 502.887 415.194 501.89 414.272 501.045L397.315 485.513C331.669 520.829 251.726 520.033 186.725 483.126C186.723 483.126 186.722 483.125 186.721 483.125C170.061 473.665 154.382 461.833 140.177 447.628C67.7639 375.215 57.0035 264.495 107.896 180.697C105.992 181.935 103.97 183.193 101.822 184.47C85.6272 194.103 70.0934 187.807 57.1861 176.579C49.5689 169.953 68.5093 138.06 77.4188 133.311C87.19 128.226 98.3178 126.36 109.213 127.979C113.78 128.658 118.209 129.934 122.392 131.756C108.523 115.489 100.391 94.811 103.729 72.5989C104.595 67.7544 107.282 63.4249 111.239 60.4989C115.195 57.5729 120.122 56.2722 125.007 56.8641C129.892 57.4559 134.366 59.8951 137.509 63.6813C140.653 67.4675 142.229 72.3135 141.912 77.2245C140.283 82.4054 139.515 87.8185 139.64 93.2481C141.521 105.503 147.008 116.832 155.291 125.851C171.334 112.54 188.838 101.885 207.221 93.8882C224.781 86.2494 243.141 81.0353 261.794 78.2458C327.763 68.3804 397.392 88.841 448.178 139.628C518.068 209.517 530.527 315.09 485.556 397.702L496.789 411.324C497.786 412.532 499.019 413.524 500.413 414.238L502.448 415.281C513.194 420.786 508.556 437.074 496.522 436.093C488.974 435.477 483.065 442.478 484.938 449.816L491.676 476.203C493.93 485.032 485.909 493.053 477.08 490.799L451.125 484.171C443.575 482.244 436.373 488.323 437.006 496.089L437.159 497.966Z" fill="#EF4723"/>
<path d="M416.552 503.992L448.356 487.125L448.355 487.125L416.552 503.992ZM437.159 497.966L473.04 495.041L473.04 495.041L437.159 497.966ZM414.272 501.045L389.955 527.592L389.956 527.592L414.272 501.045ZM397.315 485.513L421.631 458.966L402.776 441.695L380.259 453.809L397.315 485.513ZM186.725 483.126L204.5 451.82L199.821 449.164L194.57 447.991L186.725 483.126ZM186.721 483.125L168.946 514.431L173.624 517.087L178.876 518.26L186.721 483.125ZM107.896 180.697L138.666 199.385L88.2759 150.514L107.896 180.697ZM101.822 184.47L120.225 215.411L120.226 215.411L101.822 184.47ZM57.1861 176.579L80.8134 149.417L80.8134 149.417L57.1861 176.579ZM77.4188 133.311L60.7991 101.377L60.6427 101.459L60.487 101.542L77.4188 133.311ZM109.213 127.979L114.506 92.3701L114.506 92.3701L109.213 127.979ZM122.392 131.756L108.017 164.762L149.787 108.4L122.392 131.756ZM103.729 72.5989L68.2902 66.2695L68.2029 66.758L68.1292 67.2488L103.729 72.5989ZM111.239 60.4989L89.8336 31.5537L89.8335 31.5537L111.239 60.4989ZM125.007 56.8641L120.678 92.6028L120.678 92.6028L125.007 56.8641ZM137.509 63.6813L165.207 40.6846L165.207 40.6845L137.509 63.6813ZM141.912 77.2245L176.254 88.0239L177.558 83.8775L177.838 79.5399L141.912 77.2245ZM139.64 93.2481L103.649 94.0753L103.703 96.4051L104.057 98.7086L139.64 93.2481ZM155.291 125.851L128.776 150.202L151.933 175.417L178.28 153.556L155.291 125.851ZM207.221 93.8882L221.582 126.9L221.582 126.9L207.221 93.8882ZM261.794 78.2458L256.47 42.6417L256.47 42.6417L261.794 78.2458ZM485.556 397.702L453.937 380.489L442.312 401.845L457.782 420.605L485.556 397.702ZM496.789 411.324L524.564 388.42L524.564 388.42L496.789 411.324ZM500.413 414.238L483.998 446.278L483.999 446.278L500.413 414.238ZM502.448 415.281L486.034 447.321L486.034 447.321L502.448 415.281ZM496.522 436.093L499.447 400.212L499.447 400.212L496.522 436.093ZM484.938 449.816L450.057 458.723L450.057 458.723L484.938 449.816ZM491.676 476.203L526.557 467.297L526.557 467.297L491.676 476.203ZM477.08 490.799L468.174 525.68L468.174 525.68L477.08 490.799ZM451.125 484.171L460.031 449.291L460.031 449.291L451.125 484.171ZM437.006 496.089L401.125 499.014L401.125 499.014L437.006 496.089ZM384.747 520.859C408.657 565.943 477.186 545.903 473.04 495.041L401.278 500.891C399.067 473.772 435.607 463.086 448.356 487.125L384.747 520.859ZM389.956 527.592C387.848 525.661 386.086 523.384 384.748 520.86L448.355 487.125C445.844 482.39 442.541 478.119 438.588 474.499L389.956 527.592ZM372.998 512.059L389.955 527.592L438.588 474.499L421.631 458.966L372.998 512.059ZM168.949 514.431C244.742 557.466 337.842 558.388 414.371 517.216L380.259 453.809C325.497 483.271 258.71 482.601 204.5 451.82L168.949 514.431ZM194.57 447.991C194.549 447.986 194.53 447.982 194.514 447.979C194.499 447.975 194.485 447.972 194.474 447.97C194.464 447.968 194.455 447.966 194.45 447.965C194.447 447.964 194.445 447.963 194.444 447.963C194.443 447.963 194.443 447.963 194.442 447.963C194.442 447.963 194.442 447.963 194.442 447.963C194.442 447.963 194.442 447.963 194.442 447.963C194.441 447.963 194.445 447.963 194.449 447.964C194.454 447.965 194.462 447.967 194.473 447.97C194.483 447.972 194.496 447.975 194.512 447.978C194.528 447.982 194.546 447.986 194.567 447.99L178.876 518.26C178.897 518.265 178.915 518.269 178.931 518.272C178.947 518.276 178.961 518.279 178.972 518.281C178.982 518.283 178.991 518.285 178.996 518.286C178.999 518.287 179.001 518.287 179.002 518.288C179.003 518.288 179.003 518.288 179.004 518.288C179.004 518.288 179.004 518.288 179.004 518.288C179.004 518.288 179.004 518.288 179.004 518.288C179.005 518.288 179.001 518.288 178.997 518.287C178.992 518.286 178.983 518.284 178.973 518.281C178.963 518.279 178.949 518.276 178.934 518.273C178.918 518.269 178.9 518.265 178.879 518.261L194.57 447.991ZM204.497 451.82C190.621 443.941 177.531 434.07 165.633 422.172L114.721 473.084C131.233 489.596 149.501 503.389 168.946 514.431L204.497 451.82ZM165.633 422.172C105.223 361.762 96.1847 269.332 138.666 199.385L77.1262 162.01C17.8223 259.657 30.3045 388.667 114.721 473.084L165.633 422.172ZM120.226 215.411C122.766 213.9 125.194 212.39 127.516 210.881L88.2759 150.514C86.7893 151.48 85.1736 152.486 83.4189 153.53L120.226 215.411ZM33.5589 203.74C42.526 211.541 54.78 219.795 70.009 223.386C86.4126 227.254 103.931 225.103 120.225 215.411L83.4191 153.53C83.1092 153.714 83.5116 153.425 84.5033 153.276C85.481 153.13 86.2403 153.239 86.5335 153.308C86.7366 153.356 86.3078 153.287 85.2209 152.664C84.1273 152.038 82.6418 151.008 80.8134 149.417L33.5589 203.74ZM60.487 101.542C50.9948 106.6 44.1973 114.922 40.9528 119.116C36.6579 124.668 32.556 131.126 29.1807 137.602C25.9708 143.761 22.4467 151.78 20.6577 160.254C19.772 164.448 18.9029 170.607 19.7936 177.576C20.7084 184.734 23.9032 195.341 33.5589 203.74L80.8134 149.417C88.5648 156.16 90.6852 164.321 91.2126 168.448C91.7159 172.386 91.1464 174.929 91.1045 175.128C91.0028 175.609 91.3425 174.116 93.0292 170.88C94.5505 167.961 96.3782 165.141 97.9024 163.17C98.6593 162.192 99.0451 161.807 98.981 161.871C98.9342 161.917 98.6039 162.242 97.9917 162.727C97.4302 163.172 96.2015 164.095 94.3506 165.081L60.487 101.542ZM114.506 92.3701C96.1009 89.6346 77.3038 92.7875 60.7991 101.377L94.0386 165.245C97.0763 163.664 100.535 163.084 103.921 163.588L114.506 92.3701ZM136.766 98.7503C129.7 95.6732 122.22 93.5167 114.506 92.3701L103.921 163.588C105.341 163.799 106.717 164.196 108.017 164.762L136.766 98.7503ZM68.1292 67.2488C62.9043 102.015 75.9972 132.827 94.9963 155.112L149.787 108.4C141.049 98.1507 137.878 87.6066 139.33 77.949L68.1292 67.2488ZM89.8335 31.5537C78.4838 39.947 70.773 52.3675 68.2902 66.2695L139.169 78.9283C138.416 83.1413 136.08 86.9029 132.644 89.444L89.8335 31.5537ZM129.337 21.1253C115.319 19.4272 101.185 23.1593 89.8336 31.5537L132.644 89.444C129.206 91.9864 124.924 93.1172 120.678 92.6028L129.337 21.1253ZM165.207 40.6845C156.188 29.8221 143.353 22.8233 129.336 21.1253L120.678 92.6028C116.432 92.0884 112.544 89.9682 109.812 86.6781L165.207 40.6845ZM177.838 79.5399C178.746 65.4483 174.225 51.5458 165.207 40.6846L109.812 86.678C107.081 83.3893 105.712 79.1787 105.987 74.9091L177.838 79.5399ZM175.63 92.421C175.596 90.9321 175.807 89.4466 176.254 88.0239L107.57 66.4251C104.759 75.3642 103.434 84.705 103.649 94.0753L175.63 92.421ZM181.806 101.501C178.322 97.7069 176.014 92.9412 175.223 87.7877L104.057 98.7086C107.027 118.064 115.695 135.958 128.776 150.202L181.806 101.501ZM178.28 153.556C191.674 142.441 206.266 133.563 221.582 126.9L192.861 60.8766C171.41 70.2079 150.994 82.6376 132.303 98.147L178.28 153.556ZM256.47 42.6417C234.745 45.8905 213.343 51.9659 192.86 60.8767L221.582 126.9C236.218 120.533 251.537 116.18 267.119 113.85L256.47 42.6417ZM473.634 114.172C414.435 54.9727 333.241 31.1608 256.47 42.6417L267.119 113.85C322.285 105.6 380.348 122.709 422.723 165.083L473.634 114.172ZM517.175 414.914C569.567 318.668 555.114 195.652 473.634 114.172L422.723 165.083C481.022 223.383 491.487 311.511 453.937 380.489L517.175 414.914ZM524.564 388.42L513.331 374.798L457.782 420.605L469.015 434.227L524.564 388.42ZM516.828 382.199C519.804 383.723 522.436 385.84 524.564 388.42L469.015 434.227C473.135 439.224 478.234 443.325 483.998 446.278L516.828 382.199ZM518.863 383.241L516.828 382.198L483.999 446.278L486.034 447.321L518.863 383.241ZM493.597 471.974C544.906 476.156 564.678 406.713 518.863 383.241L486.034 447.321C461.71 434.859 472.207 397.991 499.447 400.212L493.597 471.974ZM519.819 440.91C524.061 457.52 510.684 473.367 493.597 471.974L499.447 400.212C467.263 397.588 442.069 427.435 450.057 458.723L519.819 440.91ZM526.557 467.297L519.819 440.91L450.057 458.723L456.795 485.11L526.557 467.297ZM468.174 525.68C503.489 534.697 535.574 502.612 526.557 467.297L456.795 485.109C452.286 467.452 468.329 451.409 485.987 455.918L468.174 525.68ZM442.218 519.052L468.174 525.68L485.987 455.918L460.031 449.291L442.218 519.052ZM472.887 493.164C474.262 510.034 458.618 523.24 442.218 519.052L460.031 449.291C428.532 441.248 398.484 466.612 401.125 499.014L472.887 493.164ZM473.04 495.041L472.887 493.164L401.125 499.014L401.278 500.892L473.04 495.041Z" fill="#1E1C35" mask="url(#path-3-outside-2_73_1904)"/>
<path d="M416.552 503.992L448.356 487.125L448.355 487.125L416.552 503.992ZM437.159 497.966L473.04 495.041L473.04 495.041L437.159 497.966ZM414.272 501.045L389.955 527.592L389.956 527.592L414.272 501.045ZM397.315 485.513L421.631 458.966L402.776 441.695L380.259 453.809L397.315 485.513ZM186.725 483.126L204.5 451.82L199.821 449.164L194.57 447.991L186.725 483.126ZM186.721 483.125L168.946 514.431L173.624 517.087L178.876 518.26L186.721 483.125ZM107.896 180.697L138.666 199.385L88.2759 150.514L107.896 180.697ZM101.822 184.47L120.225 215.411L120.226 215.411L101.822 184.47ZM57.1861 176.579L80.8134 149.417L80.8134 149.417L57.1861 176.579ZM77.4188 133.311L60.7991 101.377L60.6427 101.459L60.487 101.542L77.4188 133.311ZM109.213 127.979L114.506 92.3701L114.506 92.3701L109.213 127.979ZM122.392 131.756L108.017 164.762L149.787 108.4L122.392 131.756ZM103.729 72.5989L68.2902 66.2695L68.2029 66.758L68.1292 67.2488L103.729 72.5989ZM111.239 60.4989L89.8336 31.5537L89.8335 31.5537L111.239 60.4989ZM125.007 56.8641L120.678 92.6028L120.678 92.6028L125.007 56.8641ZM137.509 63.6813L165.207 40.6846L165.207 40.6845L137.509 63.6813ZM141.912 77.2245L176.254 88.0239L177.558 83.8775L177.838 79.5399L141.912 77.2245ZM139.64 93.2481L103.649 94.0753L103.703 96.4051L104.057 98.7086L139.64 93.2481ZM155.291 125.851L128.776 150.202L151.933 175.417L178.28 153.556L155.291 125.851ZM207.221 93.8882L221.582 126.9L221.582 126.9L207.221 93.8882ZM261.794 78.2458L256.47 42.6417L256.47 42.6417L261.794 78.2458ZM485.556 397.702L453.937 380.489L442.312 401.845L457.782 420.605L485.556 397.702ZM496.789 411.324L524.564 388.42L524.564 388.42L496.789 411.324ZM500.413 414.238L483.998 446.278L483.999 446.278L500.413 414.238ZM502.448 415.281L486.034 447.321L486.034 447.321L502.448 415.281ZM496.522 436.093L499.447 400.212L499.447 400.212L496.522 436.093ZM484.938 449.816L450.057 458.723L450.057 458.723L484.938 449.816ZM491.676 476.203L526.557 467.297L526.557 467.297L491.676 476.203ZM477.08 490.799L468.174 525.68L468.174 525.68L477.08 490.799ZM451.125 484.171L460.031 449.291L460.031 449.291L451.125 484.171ZM437.006 496.089L401.125 499.014L401.125 499.014L437.006 496.089ZM384.747 520.859C408.657 565.943 477.186 545.903 473.04 495.041L401.278 500.891C399.067 473.772 435.607 463.086 448.356 487.125L384.747 520.859ZM389.956 527.592C387.848 525.661 386.086 523.384 384.748 520.86L448.355 487.125C445.844 482.39 442.541 478.119 438.588 474.499L389.956 527.592ZM372.998 512.059L389.955 527.592L438.588 474.499L421.631 458.966L372.998 512.059ZM168.949 514.431C244.742 557.466 337.842 558.388 414.371 517.216L380.259 453.809C325.497 483.271 258.71 482.601 204.5 451.82L168.949 514.431ZM194.57 447.991C194.549 447.986 194.53 447.982 194.514 447.979C194.499 447.975 194.485 447.972 194.474 447.97C194.464 447.968 194.455 447.966 194.45 447.965C194.447 447.964 194.445 447.963 194.444 447.963C194.443 447.963 194.443 447.963 194.442 447.963C194.442 447.963 194.442 447.963 194.442 447.963C194.442 447.963 194.442 447.963 194.442 447.963C194.441 447.963 194.445 447.963 194.449 447.964C194.454 447.965 194.462 447.967 194.473 447.97C194.483 447.972 194.496 447.975 194.512 447.978C194.528 447.982 194.546 447.986 194.567 447.99L178.876 518.26C178.897 518.265 178.915 518.269 178.931 518.272C178.947 518.276 178.961 518.279 178.972 518.281C178.982 518.283 178.991 518.285 178.996 518.286C178.999 518.287 179.001 518.287 179.002 518.288C179.003 518.288 179.003 518.288 179.004 518.288C179.004 518.288 179.004 518.288 179.004 518.288C179.004 518.288 179.004 518.288 179.004 518.288C179.005 518.288 179.001 518.288 178.997 518.287C178.992 518.286 178.983 518.284 178.973 518.281C178.963 518.279 178.949 518.276 178.934 518.273C178.918 518.269 178.9 518.265 178.879 518.261L194.57 447.991ZM204.497 451.82C190.621 443.941 177.531 434.07 165.633 422.172L114.721 473.084C131.233 489.596 149.501 503.389 168.946 514.431L204.497 451.82ZM165.633 422.172C105.223 361.762 96.1847 269.332 138.666 199.385L77.1262 162.01C17.8223 259.657 30.3045 388.667 114.721 473.084L165.633 422.172ZM120.226 215.411C122.766 213.9 125.194 212.39 127.516 210.881L88.2759 150.514C86.7893 151.48 85.1736 152.486 83.4189 153.53L120.226 215.411ZM33.5589 203.74C42.526 211.541 54.78 219.795 70.009 223.386C86.4126 227.254 103.931 225.103 120.225 215.411L83.4191 153.53C83.1092 153.714 83.5116 153.425 84.5033 153.276C85.481 153.13 86.2403 153.239 86.5335 153.308C86.7366 153.356 86.3078 153.287 85.2209 152.664C84.1273 152.038 82.6418 151.008 80.8134 149.417L33.5589 203.74ZM60.487 101.542C50.9948 106.6 44.1973 114.922 40.9528 119.116C36.6579 124.668 32.556 131.126 29.1807 137.602C25.9708 143.761 22.4467 151.78 20.6577 160.254C19.772 164.448 18.9029 170.607 19.7936 177.576C20.7084 184.734 23.9032 195.341 33.5589 203.74L80.8134 149.417C88.5648 156.16 90.6852 164.321 91.2126 168.448C91.7159 172.386 91.1464 174.929 91.1045 175.128C91.0028 175.609 91.3425 174.116 93.0292 170.88C94.5505 167.961 96.3782 165.141 97.9024 163.17C98.6593 162.192 99.0451 161.807 98.981 161.871C98.9342 161.917 98.6039 162.242 97.9917 162.727C97.4302 163.172 96.2015 164.095 94.3506 165.081L60.487 101.542ZM114.506 92.3701C96.1009 89.6346 77.3038 92.7875 60.7991 101.377L94.0386 165.245C97.0763 163.664 100.535 163.084 103.921 163.588L114.506 92.3701ZM136.766 98.7503C129.7 95.6732 122.22 93.5167 114.506 92.3701L103.921 163.588C105.341 163.799 106.717 164.196 108.017 164.762L136.766 98.7503ZM68.1292 67.2488C62.9043 102.015 75.9972 132.827 94.9963 155.112L149.787 108.4C141.049 98.1507 137.878 87.6066 139.33 77.949L68.1292 67.2488ZM89.8335 31.5537C78.4838 39.947 70.773 52.3675 68.2902 66.2695L139.169 78.9283C138.416 83.1413 136.08 86.9029 132.644 89.444L89.8335 31.5537ZM129.337 21.1253C115.319 19.4272 101.185 23.1593 89.8336 31.5537L132.644 89.444C129.206 91.9864 124.924 93.1172 120.678 92.6028L129.337 21.1253ZM165.207 40.6845C156.188 29.8221 143.353 22.8233 129.336 21.1253L120.678 92.6028C116.432 92.0884 112.544 89.9682 109.812 86.6781L165.207 40.6845ZM177.838 79.5399C178.746 65.4483 174.225 51.5458 165.207 40.6846L109.812 86.678C107.081 83.3893 105.712 79.1787 105.987 74.9091L177.838 79.5399ZM175.63 92.421C175.596 90.9321 175.807 89.4466 176.254 88.0239L107.57 66.4251C104.759 75.3642 103.434 84.705 103.649 94.0753L175.63 92.421ZM181.806 101.501C178.322 97.7069 176.014 92.9412 175.223 87.7877L104.057 98.7086C107.027 118.064 115.695 135.958 128.776 150.202L181.806 101.501ZM178.28 153.556C191.674 142.441 206.266 133.563 221.582 126.9L192.861 60.8766C171.41 70.2079 150.994 82.6376 132.303 98.147L178.28 153.556ZM256.47 42.6417C234.745 45.8905 213.343 51.9659 192.86 60.8767L221.582 126.9C236.218 120.533 251.537 116.18 267.119 113.85L256.47 42.6417ZM473.634 114.172C414.435 54.9727 333.241 31.1608 256.47 42.6417L267.119 113.85C322.285 105.6 380.348 122.709 422.723 165.083L473.634 114.172ZM517.175 414.914C569.567 318.668 555.114 195.652 473.634 114.172L422.723 165.083C481.022 223.383 491.487 311.511 453.937 380.489L517.175 414.914ZM524.564 388.42L513.331 374.798L457.782 420.605L469.015 434.227L524.564 388.42ZM516.828 382.199C519.804 383.723 522.436 385.84 524.564 388.42L469.015 434.227C473.135 439.224 478.234 443.325 483.998 446.278L516.828 382.199ZM518.863 383.241L516.828 382.198L483.999 446.278L486.034 447.321L518.863 383.241ZM493.597 471.974C544.906 476.156 564.678 406.713 518.863 383.241L486.034 447.321C461.71 434.859 472.207 397.991 499.447 400.212L493.597 471.974ZM519.819 440.91C524.061 457.52 510.684 473.367 493.597 471.974L499.447 400.212C467.263 397.588 442.069 427.435 450.057 458.723L519.819 440.91ZM526.557 467.297L519.819 440.91L450.057 458.723L456.795 485.11L526.557 467.297ZM468.174 525.68C503.489 534.697 535.574 502.612 526.557 467.297L456.795 485.109C452.286 467.452 468.329 451.409 485.987 455.918L468.174 525.68ZM442.218 519.052L468.174 525.68L485.987 455.918L460.031 449.291L442.218 519.052ZM472.887 493.164C474.262 510.034 458.618 523.24 442.218 519.052L460.031 449.291C428.532 441.248 398.484 466.612 401.125 499.014L472.887 493.164ZM473.04 495.041L472.887 493.164L401.125 499.014L401.278 500.892L473.04 495.041Z" fill="#1E1C35" mask="url(#path-3-outside-2_73_1904)"/>
<path d="M149.362 154.02C120.85 137.651 98.5648 106.961 103.729 72.5981C104.594 67.7536 107.281 63.4242 111.238 60.4981C115.195 57.5721 120.121 56.2715 125.007 56.8633C129.892 57.4551 134.365 59.8944 137.509 63.6806C140.653 67.4667 142.228 72.3128 141.912 77.2237C140.282 82.4046 139.515 87.8178 139.639 93.2474C142.044 108.918 150.348 123.076 162.851 132.824L163.632 145.347C163.717 147.055 163.338 148.754 162.536 150.266C161.735 151.777 160.541 153.043 159.079 153.932C157.618 154.82 155.942 155.297 154.231 155.313C152.521 155.328 150.839 154.882 149.362 154.02Z" fill="#823B13"/>
<path d="M138.233 145.458C138.405 143.402 137.328 141.546 135.77 140.193C128.277 133.691 119.068 129.443 109.213 127.978C98.3174 126.358 87.1896 128.225 77.4184 133.31V133.31C68.5089 138.058 49.5686 169.952 57.1858 176.578C70.093 187.805 85.6268 194.102 101.822 184.469C132.83 166.026 137.725 151.549 138.233 145.458Z" fill="#08A034"/>
<path fill-rule="evenodd" clip-rule="evenodd" d="M437.157 497.966C438.125 509.838 422.13 514.515 416.55 503.992C415.963 502.887 415.192 501.89 414.27 501.045L397.313 485.513C314.841 529.881 209.802 517.253 140.177 447.628C55.1247 362.576 55.1247 224.679 140.177 139.628C225.228 54.5758 363.125 54.5758 448.176 139.628C518.066 209.517 530.525 315.09 485.554 397.702L496.787 411.324C497.784 412.532 499.017 413.524 500.411 414.238L502.446 415.281C513.192 420.786 508.555 437.074 496.521 436.093C488.972 435.477 483.063 442.478 484.936 449.816L491.674 476.203C493.928 485.032 485.907 493.053 477.078 490.799L451.123 484.171C443.573 482.244 436.371 488.323 437.004 496.089L437.157 497.966Z" fill="#AB1F3A"/>
<path fill-rule="evenodd" clip-rule="evenodd" d="M206.777 493.169C182.604 482.589 159.961 467.407 140.176 447.623C55.1245 362.571 55.1245 224.675 140.176 139.623C194.855 84.9447 271.374 65.4182 341.652 81.0436C365.824 91.6236 388.468 106.806 408.252 126.59C493.304 211.642 493.304 349.538 408.252 434.59C353.574 489.268 277.054 508.795 206.777 493.169Z" fill="#D32548"/>
<g style="mix-blend-mode:overlay">
<path fill-rule="evenodd" clip-rule="evenodd" d="M158.007 218.973C174.32 218.973 174.473 240.506 169.141 255.922C165.998 265.009 164.228 275.28 164.228 286.154C164.228 297.028 165.998 307.299 169.141 316.386C174.473 331.802 174.32 353.335 158.007 353.335V353.335C132.585 353.335 111.976 323.257 111.976 286.154C111.976 249.051 132.585 218.973 158.007 218.973V218.973Z" fill="#F9FCFC"/>
</g>
</g>
<defs>
<clipPath id="clip0_73_1904">
<rect width="575" height="575" fill="white" transform="translate(0.201172 0.650391)"/>
</clipPath>
</defs>
</svg>
