<svg width="575" height="575" viewBox="0 0 575 575" fill="none" xmlns="http://www.w3.org/2000/svg">
<g clip-path="url(#clip0_73_1900)">
<path fill-rule="evenodd" clip-rule="evenodd" d="M456.914 306.612C469.636 312.899 480.702 322.887 488.33 336.098C508.881 371.694 496.685 417.211 461.089 437.763C450.54 443.853 439.12 447.068 427.737 447.65C419.766 458.285 409.559 467.517 397.321 474.582C385.228 481.565 372.293 485.771 359.256 487.399C353.08 496.823 344.662 504.983 334.238 511.001C298.641 531.553 253.124 519.357 232.573 483.76C224.945 470.549 221.828 455.97 222.745 441.809C187.622 460.053 144.022 447.567 124.035 412.948C110.287 389.135 111.194 360.882 123.958 338.633C121.936 336.014 120.065 333.23 118.365 330.285C97.8133 294.688 110.01 249.171 145.606 228.62C152.436 224.676 159.631 221.939 166.945 220.341C173.488 194.886 189.868 171.98 214.426 157.801C238.821 143.717 266.637 140.928 291.819 147.81C296.674 142.66 302.352 138.121 308.796 134.4C344.393 113.848 389.91 126.045 410.462 161.641C411.949 164.217 413.264 166.844 414.412 169.51C440.945 168.675 467.07 182.099 481.272 206.698C501.258 241.316 490.273 285.316 456.914 306.612Z" fill="#AB1F3A"/>
<path fill-rule="evenodd" clip-rule="evenodd" d="M424.375 306.444C415.877 293.775 404.165 284.552 391.049 279.133C422.905 255.646 430.912 211.007 408.646 177.808C392.825 154.219 365.859 142.579 339.442 145.193C338.118 142.61 336.629 140.077 334.973 137.607C332.395 133.763 329.521 130.237 326.401 127.037C320.375 128.687 314.46 131.128 308.796 134.398C302.352 138.119 296.674 142.658 291.819 147.808C266.637 140.926 238.821 143.715 214.426 157.799C189.868 171.978 173.488 194.884 166.945 220.339C159.631 221.937 152.436 224.674 145.606 228.618C110.01 249.169 97.8133 294.686 118.365 330.283C120.065 333.228 121.936 336.012 123.958 338.631C111.194 360.88 110.287 389.133 124.035 412.946C130.037 423.342 138.168 431.742 147.56 437.913C154.081 436.124 160.452 433.413 166.488 429.743C166.503 435.672 167.225 441.626 168.681 447.474C186.214 452.314 205.501 450.764 222.745 441.807C221.828 455.968 224.945 470.547 232.573 483.758C237.019 491.459 242.633 498.064 249.062 503.48C260.619 502.218 272.05 498.222 282.375 491.297C292.374 484.591 300.226 475.883 305.755 466.062C318.652 463.562 331.273 458.497 342.869 450.72C354.603 442.851 364.165 432.956 371.403 421.813C382.723 420.469 393.903 416.495 404.02 409.709C438.157 386.814 447.27 340.581 424.375 306.444Z" fill="#D32548"/>
<g style="mix-blend-mode:overlay">
<path fill-rule="evenodd" clip-rule="evenodd" d="M172 271.893C181.852 266.204 189.453 279.157 191.609 290.327C192.88 296.911 195.392 303.731 199.183 310.298C202.975 316.865 207.625 322.45 212.691 326.842C221.287 334.294 228.702 347.352 218.851 353.04V353.04C203.497 361.905 180.562 350.926 167.625 328.517C154.687 306.109 156.646 280.757 172 271.893V271.893Z" fill="#F9FCFC"/>
</g>
<path fill-rule="evenodd" clip-rule="evenodd" d="M225.381 176.806C222.258 187.091 214.197 201.786 195.227 221.255C152.942 264.652 82.0461 180.293 82.0461 180.293C82.0461 180.293 113.215 200.304 148.874 166.986C159.101 157.617 172.027 151.72 185.806 150.139C194.361 149.158 202.972 149.87 211.163 152.181C213.258 143.931 216.946 136.117 222.074 129.2C230.333 118.057 241.902 109.811 255.13 105.639C301.813 91.4158 300.068 54.4177 300.068 54.4177C300.068 54.4177 337.677 157.995 278.952 172.916C252.607 179.61 235.85 179.244 225.381 176.806Z" fill="#08A034"/>
<mask id="path-5-outside-1_73_1900" maskUnits="userSpaceOnUse" x="-61.4695" y="-60.856" width="712.199" height="712.565" fill="black">
<rect fill="white" x="-61.4695" y="-60.856" width="712.199" height="712.565"/>
<path fill-rule="evenodd" clip-rule="evenodd" d="M144.835 229.068C112.156 216.122 82.0463 180.294 82.0463 180.294C82.0463 180.294 113.215 200.305 148.875 166.987C159.101 157.618 172.027 151.721 185.807 150.14C194.361 149.158 202.972 149.871 211.164 152.182C213.258 143.932 216.947 136.118 222.074 129.2C230.333 118.058 241.902 109.812 255.13 105.64C301.814 91.4166 300.068 54.4185 300.068 54.4185C300.068 54.4185 316.054 98.4427 310.908 133.223C315.924 130.536 321.12 128.483 326.401 127.037L326.403 127.039C358.247 118.323 393.18 131.709 410.462 161.641C411.949 164.217 413.264 166.844 414.412 169.511C440.946 168.675 467.07 182.1 481.272 206.698C501.258 241.316 490.273 285.316 456.915 306.612C469.636 312.899 480.702 322.887 488.33 336.098C508.882 371.694 496.685 417.212 461.089 437.763C450.54 443.854 439.12 447.068 427.737 447.65C419.766 458.285 409.559 467.517 397.322 474.583C385.228 481.565 372.293 485.771 359.256 487.399C353.08 496.824 344.662 504.983 334.238 511.001C298.642 531.553 253.125 519.357 232.573 483.76C228.759 477.154 226.072 470.205 224.454 463.138C223.557 459.219 222.988 455.263 222.738 451.308C222.537 448.135 222.541 444.962 222.744 441.81C187.622 460.053 144.022 447.566 124.036 412.948C119.428 404.968 116.467 396.49 115.046 387.906C112.226 370.874 115.47 353.425 123.957 338.632C121.936 336.013 120.065 333.229 118.365 330.285C113.869 322.498 110.94 314.235 109.481 305.863C109.347 305.097 109.226 304.33 109.117 303.562C105.011 274.651 118.253 244.836 144.835 229.068Z"/>
</mask>
<path d="M144.835 229.068L172.383 275.513C190.098 265.005 200.293 245.335 198.666 224.803C197.039 204.27 183.873 186.451 164.724 178.865L144.835 229.068ZM82.0463 180.294L111.22 134.853C88.7556 120.431 59.1244 124.588 41.4956 144.634C23.8669 164.681 23.5316 194.6 40.7066 215.036L82.0463 180.294ZM148.875 166.987L112.397 127.17C112.267 127.289 112.137 127.409 112.009 127.529L148.875 166.987ZM185.807 150.14L191.963 203.788L191.963 203.788L185.807 150.14ZM211.164 152.182L196.503 204.154C210.524 208.109 225.548 206.231 238.164 198.947C250.78 191.663 259.918 179.591 263.503 165.471L211.164 152.182ZM222.074 129.2L178.692 97.045L178.692 97.045L222.074 129.2ZM255.13 105.64L239.392 53.9841C239.223 54.0355 239.055 54.0877 238.887 54.1407L255.13 105.64ZM300.068 54.4185L350.826 35.9884C341.715 10.8962 315.636 -3.7732 289.461 1.47051C263.286 6.71423 244.871 30.2972 246.128 56.9627L300.068 54.4185ZM310.908 133.223L257.489 125.319C254.503 145.506 263.15 165.651 279.841 177.391C296.532 189.131 318.415 190.46 336.403 180.825L310.908 133.223ZM326.401 127.037L365.149 89.4258C351.439 75.3012 331.129 69.7558 312.143 74.9531L326.401 127.037ZM326.403 127.039L287.655 164.65C301.365 178.774 321.674 184.32 340.66 179.123L326.403 127.039ZM414.412 169.511L364.812 190.861C373.585 211.242 393.933 224.182 416.111 223.484L414.412 169.511ZM456.915 306.612L427.857 261.096C411.433 271.581 401.932 290.102 402.995 309.558C404.058 329.015 415.521 346.39 432.99 355.023L456.915 306.612ZM427.737 447.65L424.98 393.72C408.966 394.539 394.143 402.432 384.526 415.264L427.737 447.65ZM359.256 487.399L352.564 433.816C336.842 435.779 322.775 444.549 314.09 457.801L359.256 487.399ZM224.454 463.138L277.092 451.087L277.092 451.085L224.454 463.138ZM222.738 451.308L276.63 447.895L276.63 447.895L222.738 451.308ZM222.744 441.81L276.632 445.295C277.89 425.85 268.574 407.235 252.255 396.586C235.936 385.938 215.146 384.907 197.854 393.888L222.744 441.81ZM115.046 387.906L168.321 379.087L168.321 379.085L115.046 387.906ZM123.957 338.632L170.797 365.504C181.667 346.556 180.051 322.925 166.702 305.633L123.957 338.632ZM109.481 305.863L162.679 296.59L162.679 296.589L109.481 305.863ZM109.117 303.562L162.581 295.969L162.581 295.969L109.117 303.562ZM164.724 178.865C157.464 175.988 147.517 168.983 137.545 159.901C133.018 155.778 129.261 151.944 126.685 149.192C125.41 147.83 124.46 146.771 123.887 146.122C123.601 145.798 123.412 145.579 123.325 145.479C123.282 145.429 123.265 145.409 123.275 145.42C123.28 145.426 123.292 145.44 123.31 145.462C123.319 145.473 123.33 145.486 123.343 145.501C123.349 145.508 123.356 145.516 123.363 145.525C123.367 145.529 123.372 145.536 123.374 145.538C123.38 145.545 123.386 145.552 82.0463 180.294C40.7066 215.036 40.7128 215.044 40.7191 215.051C40.7213 215.054 40.7278 215.062 40.7323 215.067C40.7413 215.078 40.7508 215.089 40.7608 215.101C40.7808 215.125 40.8027 215.151 40.8265 215.179C40.8742 215.235 40.9295 215.3 40.9924 215.374C41.1181 215.522 41.2741 215.705 41.4595 215.92C41.8303 216.351 42.3198 216.915 42.9212 217.596C44.1221 218.957 45.7796 220.798 47.8382 222.997C51.9287 227.367 57.7424 233.3 64.8269 239.751C78.0798 251.821 99.5277 269.202 124.946 279.272L164.724 178.865ZM82.0463 180.294C52.873 225.736 52.9015 225.754 52.9301 225.772C52.9398 225.778 52.9687 225.797 52.9882 225.809C53.0272 225.834 53.0669 225.859 53.1072 225.885C53.1878 225.936 53.2709 225.989 53.3565 226.042C53.5278 226.15 53.7092 226.263 53.9005 226.38C54.2832 226.615 54.7065 226.869 55.1696 227.139C56.0948 227.68 57.1849 228.289 58.4325 228.941C60.9186 230.241 64.086 231.742 67.8721 233.217C75.3845 236.144 85.7924 239.146 98.4032 240.009C125.475 241.861 156.897 233.394 185.741 206.444L112.009 127.529C105.193 133.897 103.2 132.085 105.773 132.261C106.134 132.285 106.521 132.368 107.075 132.583C107.382 132.703 107.836 132.901 108.478 133.236C108.804 133.407 109.189 133.619 109.641 133.882C109.867 134.014 110.111 134.16 110.373 134.321C110.504 134.402 110.641 134.486 110.782 134.575C110.852 134.619 110.924 134.664 110.997 134.711C111.033 134.734 111.07 134.757 111.107 134.781C111.126 134.793 111.154 134.811 111.163 134.817C111.191 134.835 111.22 134.853 82.0463 180.294ZM185.353 206.803C187.184 205.126 189.497 204.071 191.963 203.788L179.65 96.492C154.558 99.3715 131.019 110.109 112.397 127.17L185.353 206.803ZM191.963 203.788C193.494 203.612 195.035 203.739 196.503 204.154L225.824 100.21C210.909 96.0026 195.228 94.7045 179.65 96.492L191.963 203.788ZM263.503 165.471C263.878 163.992 264.539 162.594 265.456 161.356L178.692 97.045C169.355 109.642 162.638 123.872 158.824 138.893L263.503 165.471ZM265.456 161.356C266.934 159.362 269.005 157.886 271.373 157.139L238.887 54.1407C214.8 61.7377 193.732 76.7538 178.692 97.045L265.456 161.356ZM270.868 157.296C308.629 145.791 331.672 122.812 343.604 98.4412C349.163 87.0887 351.766 76.5738 352.988 68.6047C353.604 64.5883 353.888 61.0949 354.005 58.2919C354.064 56.8852 354.081 55.6366 354.076 54.5651C354.073 54.0288 354.065 53.5351 354.053 53.0864C354.047 52.862 354.04 52.6486 354.033 52.4465C354.029 52.3455 354.025 52.2473 354.021 52.1519C354.019 52.1042 354.017 52.0572 354.015 52.0109C354.014 51.9878 354.012 51.9536 354.012 51.9421C354.01 51.9081 354.009 51.8743 300.068 54.4185C246.128 56.9627 246.127 56.9292 246.125 56.8957C246.125 56.8848 246.123 56.8514 246.122 56.8294C246.12 56.7854 246.118 56.7418 246.117 56.6986C246.113 56.6122 246.11 56.5274 246.107 56.4442C246.1 56.2778 246.095 56.1177 246.091 55.9637C246.083 55.6558 246.079 55.3717 246.077 55.1098C246.075 54.5872 246.084 54.1474 246.099 53.7801C246.13 53.056 246.185 52.5642 246.235 52.2387C246.325 51.6511 246.448 51.2748 246.607 50.9497C247.741 48.6334 248.314 51.2657 239.392 53.9841L270.868 157.296ZM300.068 54.4185C249.311 72.8486 249.308 72.8399 249.305 72.8314C249.304 72.8287 249.301 72.8204 249.299 72.8151C249.295 72.8046 249.291 72.7947 249.288 72.7855C249.281 72.767 249.276 72.751 249.271 72.7376C249.261 72.7107 249.255 72.6938 249.253 72.6867C249.247 72.6725 249.256 72.6974 249.278 72.7597C249.322 72.8847 249.417 73.1583 249.554 73.5681C249.83 74.3901 250.273 75.7436 250.815 77.5299C251.911 81.1399 253.354 86.3133 254.661 92.2996C257.541 105.486 258.631 117.602 257.489 125.319L364.326 141.126C368.33 114.063 364.001 86.7777 360.174 69.2565C358.129 59.8893 355.897 51.8829 354.156 46.1515C353.281 43.2671 352.514 40.9095 351.936 39.1881C351.647 38.3261 351.403 37.6199 351.215 37.083C351.121 36.8145 351.041 36.5879 350.976 36.405C350.943 36.3135 350.914 36.233 350.889 36.1635C350.877 36.1287 350.865 36.0967 350.855 36.0676C350.849 36.053 350.844 36.0391 350.84 36.0259C350.837 36.0193 350.834 36.0099 350.833 36.0066C350.829 35.9974 350.826 35.9884 300.068 54.4185ZM312.143 74.9531C302.993 77.458 294.025 81.0077 285.413 85.6203L336.403 180.825C337.824 180.064 339.247 179.507 340.659 179.121L312.143 74.9531ZM365.151 89.4278L365.149 89.4258L287.653 164.648L287.655 164.65L365.151 89.4278ZM457.227 134.641C427.37 82.9266 367.081 59.9181 312.147 74.9549L340.66 179.123C349.413 176.727 358.991 180.492 363.696 188.641L457.227 134.641ZM464.012 148.16C462.033 143.562 459.771 139.047 457.227 134.641L363.696 188.641C364.127 189.386 364.496 190.127 364.812 190.861L464.012 148.16ZM528.037 179.698C503.493 137.187 458.343 114.101 412.713 115.537L416.111 223.484C423.549 223.25 430.646 227.012 434.507 233.698L528.037 179.698ZM485.972 352.128C543.57 315.357 562.532 239.446 528.037 179.698L434.507 233.698C439.984 243.186 436.977 255.274 427.857 261.096L485.972 352.128ZM535.095 309.098C521.972 286.368 502.824 269.066 480.839 258.201L432.99 355.023C436.448 356.732 439.433 359.406 441.565 363.098L535.095 309.098ZM488.089 484.529C549.513 449.065 570.559 370.522 535.095 309.098L441.565 363.098C447.205 372.867 443.858 385.358 434.089 390.998L488.089 484.529ZM430.493 501.579C450.213 500.571 469.97 494.99 488.089 484.529L434.089 390.998C431.11 392.717 428.027 393.564 424.98 393.72L430.493 501.579ZM424.322 521.348C442.994 510.567 458.68 496.403 470.947 480.036L384.526 415.264C380.852 420.167 376.125 424.467 370.322 427.817L424.322 521.348ZM365.948 540.983C386.013 538.477 405.87 532.001 424.322 521.348L370.322 427.817C364.586 431.129 358.574 433.065 352.564 433.816L365.948 540.983ZM361.238 557.767C379.142 547.43 393.722 533.325 404.421 516.998L314.09 457.801C312.438 460.322 310.183 462.536 307.238 464.236L361.238 557.767ZM185.808 510.76C221.271 572.185 299.814 593.23 361.238 557.767L307.238 464.236C297.469 469.876 284.978 466.529 279.338 456.76L185.808 510.76ZM171.816 475.19C174.622 487.445 179.271 499.439 185.808 510.76L279.338 456.76C278.246 454.869 277.523 452.966 277.092 451.087L171.816 475.19ZM168.846 454.722C169.279 461.558 170.263 468.404 171.817 475.192L277.092 451.085C276.851 450.034 276.698 448.968 276.63 447.895L168.846 454.722ZM168.857 438.324C168.505 443.759 168.498 449.237 168.846 454.722L276.63 447.895C276.575 447.033 276.576 446.164 276.632 445.295L168.857 438.324ZM77.2702 439.948C111.766 499.697 186.991 521.23 247.635 489.731L197.854 393.888C188.252 398.876 176.279 395.436 170.801 385.948L77.2702 439.948ZM61.7711 396.726C64.2358 411.614 69.3693 426.263 77.2702 439.948L170.801 385.948C169.488 383.673 168.698 381.366 168.321 379.087L61.7711 396.726ZM77.118 311.761C62.5051 337.232 56.8944 367.273 61.7714 396.727L168.321 379.085C167.557 374.474 168.436 369.619 170.797 365.504L77.118 311.761ZM71.5999 357.285C74.508 362.322 77.7227 367.11 81.213 371.631L166.702 305.633C166.149 304.917 165.622 304.136 165.131 303.285L71.5999 357.285ZM56.2832 315.136C58.8143 329.657 63.8902 343.932 71.5999 357.285L165.131 303.285C163.848 301.064 163.066 298.813 162.679 296.59L56.2832 315.136ZM55.6536 311.155C55.8424 312.484 56.0523 313.812 56.2835 315.138L162.679 296.589C162.643 296.382 162.61 296.176 162.581 295.969L55.6536 311.155ZM117.287 182.624C71.3294 209.883 48.5829 261.37 55.6537 311.155L162.581 295.969C161.439 287.932 165.176 279.788 172.383 275.513L117.287 182.624Z" fill="white" mask="url(#path-5-outside-1_73_1900)"/>
<mask id="path-7-outside-2_73_1900" maskUnits="userSpaceOnUse" x="-36.881" y="-36.2675" width="663.022" height="663.388" fill="black">
<rect fill="white" x="-36.881" y="-36.2675" width="663.022" height="663.388"/>
<path fill-rule="evenodd" clip-rule="evenodd" d="M144.835 229.068C112.156 216.122 82.0463 180.294 82.0463 180.294C82.0463 180.294 113.215 200.305 148.875 166.987C159.101 157.618 172.027 151.721 185.807 150.14C194.361 149.158 202.972 149.871 211.164 152.182C213.258 143.932 216.947 136.118 222.074 129.2C230.333 118.058 241.902 109.812 255.13 105.64C301.814 91.4166 300.068 54.4185 300.068 54.4185C300.068 54.4185 316.054 98.4427 310.908 133.223C315.924 130.536 321.12 128.483 326.401 127.037L326.403 127.039C358.247 118.323 393.18 131.709 410.462 161.641C411.949 164.217 413.264 166.844 414.412 169.511C440.946 168.675 467.07 182.1 481.272 206.698C501.258 241.316 490.273 285.316 456.915 306.612C469.636 312.899 480.702 322.887 488.33 336.098C508.882 371.694 496.685 417.212 461.089 437.763C450.54 443.854 439.12 447.068 427.737 447.65C419.766 458.285 409.559 467.517 397.322 474.583C385.228 481.565 372.293 485.771 359.256 487.399C353.08 496.824 344.662 504.983 334.238 511.001C298.642 531.553 253.125 519.357 232.573 483.76C228.759 477.154 226.072 470.205 224.454 463.138C223.557 459.219 222.988 455.263 222.738 451.308C222.537 448.135 222.541 444.962 222.744 441.81C187.622 460.053 144.022 447.566 124.036 412.948C119.428 404.968 116.467 396.49 115.046 387.906C112.226 370.874 115.47 353.425 123.957 338.632C121.936 336.013 120.065 333.229 118.365 330.285C113.869 322.498 110.94 314.235 109.481 305.863C109.347 305.097 109.226 304.33 109.117 303.562C105.011 274.651 118.253 244.836 144.835 229.068Z"/>
</mask>
<path d="M144.835 229.068L163.2 260.031C175.011 253.026 181.807 239.913 180.722 226.225C179.638 212.536 170.861 200.657 158.095 195.599L144.835 229.068ZM82.0463 180.294L101.495 150C86.5192 140.385 66.765 143.157 55.0125 156.521C43.2601 169.885 43.0365 189.831 54.4865 203.456L82.0463 180.294ZM148.875 166.987L124.556 140.442C124.469 140.522 124.383 140.602 124.297 140.682L148.875 166.987ZM185.807 150.14L189.911 185.905L189.911 185.905L185.807 150.14ZM211.164 152.182L201.39 186.83C210.737 189.466 220.753 188.215 229.164 183.359C237.575 178.503 243.666 170.454 246.056 161.041L211.164 152.182ZM222.074 129.2L193.152 107.763L193.152 107.763L222.074 129.2ZM255.13 105.64L244.638 71.2027C244.525 71.237 244.413 71.2717 244.301 71.3071L255.13 105.64ZM300.068 54.4185L333.907 42.1318C327.833 25.4036 310.447 15.624 292.997 19.1198C275.547 22.6156 263.27 38.3376 264.108 56.1146L300.068 54.4185ZM310.908 133.223L275.296 127.954C273.305 141.411 279.07 154.842 290.197 162.668C301.324 170.495 315.913 171.381 327.905 164.958L310.908 133.223ZM326.401 127.037L352.233 101.963C343.093 92.5464 329.553 88.8495 316.896 92.3144L326.401 127.037ZM326.403 127.039L300.571 152.113C309.711 161.529 323.25 165.226 335.907 161.762L326.403 127.039ZM414.412 169.511L381.345 183.744C387.194 197.331 400.759 205.958 415.545 205.493L414.412 169.511ZM456.915 306.612L437.543 276.268C426.594 283.258 420.259 295.605 420.968 308.576C421.677 321.547 429.319 333.131 440.965 338.886L456.915 306.612ZM427.737 447.65L425.899 411.697C415.223 412.242 405.341 417.505 398.93 426.059L427.737 447.65ZM359.256 487.399L354.795 451.677C344.313 452.986 334.935 458.832 329.145 467.667L359.256 487.399ZM224.454 463.138L259.546 455.104L259.546 455.103L224.454 463.138ZM222.738 451.308L258.666 449.033L258.666 449.033L222.738 451.308ZM222.744 441.81L258.669 444.133C259.508 431.17 253.297 418.76 242.418 411.661C231.539 404.562 217.679 403.874 206.15 409.862L222.744 441.81ZM115.046 387.906L150.563 382.026L150.562 382.025L115.046 387.906ZM123.957 338.632L155.184 356.546C162.43 343.914 161.353 328.161 152.454 316.633L123.957 338.632ZM109.481 305.863L144.946 299.681L144.946 299.68L109.481 305.863ZM109.117 303.562L144.759 298.5L144.759 298.5L109.117 303.562ZM158.095 195.599C147.808 191.524 135.944 182.789 125.426 173.21C120.472 168.698 116.373 164.515 113.544 161.493C112.138 159.991 111.07 158.802 110.392 158.034C110.054 157.651 109.815 157.375 109.681 157.219C109.614 157.142 109.574 157.094 109.561 157.079C109.555 157.072 109.555 157.072 109.563 157.081C109.567 157.086 109.572 157.092 109.579 157.101C109.583 157.105 109.587 157.11 109.591 157.115C109.594 157.118 109.597 157.122 109.598 157.123C109.602 157.128 109.606 157.133 82.0463 180.294C54.4865 203.456 54.4907 203.461 54.4949 203.466C54.4965 203.468 54.5009 203.473 54.5041 203.477C54.5104 203.484 54.5172 203.492 54.5245 203.501C54.539 203.518 54.5555 203.538 54.5738 203.559C54.6104 203.603 54.6546 203.655 54.7061 203.715C54.8093 203.837 54.9421 203.992 55.1039 204.18C55.4272 204.556 55.8667 205.062 56.4154 205.684C57.5118 206.926 59.0514 208.637 60.9793 210.696C64.8175 214.797 70.2883 220.379 76.9466 226.443C89.6527 238.014 109.184 253.667 131.575 262.538L158.095 195.599ZM82.0463 180.294C62.5974 210.588 62.6165 210.601 62.6356 210.613C62.6422 210.617 62.6616 210.629 62.6747 210.638C62.7011 210.655 62.728 210.672 62.7555 210.689C62.8105 210.724 62.8678 210.76 62.9274 210.798C63.0466 210.873 63.175 210.952 63.3126 211.037C63.5877 211.206 63.8998 211.393 64.2481 211.597C64.9439 212.003 65.788 212.475 66.7734 212.991C68.7381 214.018 71.302 215.236 74.406 216.445C80.5739 218.848 89.1827 221.336 99.6315 222.051C121.763 223.565 148.279 216.811 173.452 193.292L124.297 140.682C113.81 150.48 106.913 150.381 104.545 150.219C102.744 150.095 101.332 149.664 100.541 149.356C100.166 149.209 100.016 149.124 100.137 149.187C100.201 149.22 100.34 149.295 100.562 149.425C100.673 149.49 100.806 149.569 100.961 149.664C101.039 149.712 101.122 149.763 101.211 149.819C101.255 149.847 101.301 149.876 101.349 149.906C101.372 149.921 101.396 149.937 101.421 149.952C101.433 149.96 101.452 149.972 101.458 149.976C101.476 149.988 101.495 150 82.0463 180.294ZM173.193 193.531C177.823 189.29 183.674 186.621 189.911 185.905L181.702 114.375C160.381 116.821 140.38 125.945 124.556 140.442L173.193 193.531ZM189.911 185.905C193.783 185.461 197.681 185.783 201.39 186.83L220.937 117.534C208.263 113.959 194.939 112.856 181.702 114.375L189.911 185.905ZM246.056 161.041C247.005 157.305 248.675 153.769 250.996 150.637L193.152 107.763C185.219 118.467 179.511 130.558 176.271 143.322L246.056 161.041ZM250.996 150.637C254.734 145.594 259.97 141.861 265.959 139.973L244.301 71.3071C223.834 77.7625 205.932 90.5217 193.152 107.763L250.996 150.637ZM265.622 140.077C298.577 130.037 317.683 110.449 327.438 90.5259C332.044 81.1197 334.193 72.42 335.196 65.877C335.701 62.5843 335.928 59.7551 336.021 57.5399C336.067 56.4289 336.08 55.4617 336.076 54.6559C336.074 54.2526 336.068 53.8886 336.059 53.566C336.055 53.4046 336.05 53.2535 336.045 53.1128C336.042 53.0425 336.04 52.9748 336.037 52.9097C336.035 52.8771 336.034 52.8452 336.033 52.814C336.032 52.7984 336.031 52.7755 336.031 52.7677C336.03 52.7449 336.029 52.7223 300.068 54.4185C264.108 56.1146 264.107 56.0923 264.106 56.0701C264.106 56.0629 264.105 56.0408 264.104 56.0263C264.103 55.9974 264.102 55.9688 264.101 55.9408C264.098 55.8847 264.096 55.8304 264.094 55.7779C264.09 55.6729 264.087 55.5751 264.085 55.4841C264.08 55.3024 264.078 55.1479 264.077 55.019C264.076 54.7621 264.081 54.6037 264.084 54.5321C264.089 54.3958 264.088 54.5682 264.027 54.9663C263.899 55.8049 263.567 57.2438 262.773 58.8649C261.729 60.9965 258.367 67.0198 244.638 71.2027L265.622 140.077ZM300.068 54.4185C266.23 66.7052 266.228 66.6995 266.226 66.6939C266.225 66.6923 266.223 66.6869 266.222 66.6836C266.22 66.677 266.218 66.6711 266.216 66.6658C266.212 66.6553 266.209 66.6473 266.207 66.6419C266.203 66.6311 266.203 66.6304 266.206 66.6397C266.213 66.6584 266.234 66.7169 266.268 66.8136C266.335 67.0073 266.455 67.353 266.618 67.8381C266.944 68.81 267.441 70.3308 268.039 72.3002C269.242 76.2638 270.816 81.9093 272.247 88.4591C275.284 102.368 276.914 117.012 275.296 127.954L346.52 138.492C350.047 114.653 346.258 89.8957 342.589 73.0971C340.666 64.2933 338.566 56.7591 336.933 51.3812C336.113 48.6799 335.4 46.4896 334.873 44.9181C334.608 44.1315 334.39 43.4974 334.226 43.0292C334.144 42.795 334.075 42.602 334.022 42.4519C333.995 42.3769 333.972 42.3126 333.953 42.2592C333.943 42.2324 333.935 42.2084 333.927 42.1872C333.923 42.1766 333.92 42.1667 333.916 42.1574C333.914 42.1528 333.912 42.1464 333.911 42.1441C333.909 42.1378 333.907 42.1318 300.068 54.4185ZM316.896 92.3144C309.035 94.4662 301.325 97.5172 293.911 101.488L327.905 164.958C330.524 163.555 333.205 162.499 335.906 161.759L316.896 92.3144ZM352.235 101.965L352.233 101.963L300.569 152.111L300.571 152.113L352.235 101.965ZM441.639 143.641C415.973 99.1874 364.136 79.3862 316.899 92.3162L335.907 161.762C352.358 157.259 370.388 164.231 379.285 179.641L441.639 143.641ZM447.479 155.277C445.776 151.323 443.83 147.437 441.639 143.641L379.285 179.641C380.067 180.996 380.752 182.366 381.345 183.744L447.479 155.277ZM512.449 188.698C491.352 152.158 452.544 132.292 413.279 133.528L415.545 205.493C429.348 205.058 442.787 212.041 450.095 224.698L512.449 188.698ZM476.286 336.956C525.804 305.343 542.108 240.069 512.449 188.698L450.095 224.698C460.409 242.563 454.742 265.288 437.543 276.268L476.286 336.956ZM519.507 318.098C508.216 298.541 491.761 283.677 472.864 274.338L440.965 338.886C447.511 342.121 453.189 347.233 457.153 354.098L519.507 318.098ZM479.089 468.94C531.904 438.447 550 370.913 519.507 318.098L457.153 354.098C467.764 372.476 461.467 395.976 443.089 406.586L479.089 468.94ZM429.575 483.603C446.515 482.737 463.493 477.944 479.089 468.94L443.089 406.586C437.587 409.763 431.725 411.399 425.899 411.697L429.575 483.603ZM415.322 505.759C431.849 496.217 445.709 483.697 456.544 469.24L398.93 426.059C393.823 432.873 387.27 438.817 379.322 443.406L415.322 505.759ZM363.717 523.122C381.44 520.909 398.99 515.189 415.322 505.759L379.322 443.406C371.466 447.941 363.147 450.634 354.795 451.677L363.717 523.122ZM352.238 542.178C367.649 533.281 380.174 521.158 389.366 507.132L329.145 467.667C325.985 472.489 321.676 476.685 316.238 479.824L352.238 542.178ZM201.396 501.76C231.889 554.575 299.423 572.671 352.238 542.178L316.238 479.824C297.86 490.435 274.36 484.138 263.75 465.76L201.396 501.76ZM189.362 471.173C191.772 481.698 195.767 492.01 201.396 501.76L263.75 465.76C261.75 462.297 260.373 458.712 259.546 455.104L189.362 471.173ZM186.81 453.584C187.182 459.46 188.027 465.342 189.363 471.174L259.546 455.103C259.087 453.095 258.794 451.066 258.666 449.033L186.81 453.584ZM186.82 439.486C186.517 444.16 186.511 448.869 186.81 453.584L258.666 449.033C258.562 447.4 258.564 445.763 258.669 444.133L186.82 439.486ZM92.8587 430.948C122.518 482.32 187.201 500.838 239.338 473.757L206.15 409.862C188.042 419.268 165.527 412.813 155.213 394.948L92.8587 430.948ZM79.5294 393.786C81.6462 406.573 86.0557 419.165 92.8587 430.948L155.213 394.948C152.801 390.772 151.288 386.407 150.563 382.026L79.5294 393.786ZM92.7311 320.718C80.1602 342.63 75.3382 368.473 79.5296 393.787L150.562 382.025C149.113 373.274 150.781 364.221 155.184 356.546L92.7311 320.718ZM87.1883 348.285C89.6937 352.624 92.4603 356.744 95.4611 360.631L152.454 316.633C151.411 315.282 150.436 313.834 149.542 312.285L87.1883 348.285ZM74.0158 312.045C76.1897 324.516 80.5498 336.787 87.1883 348.285L149.542 312.285C147.188 308.208 145.691 303.954 144.946 299.681L74.0158 312.045ZM73.4748 308.624C73.637 309.766 73.8173 310.907 74.016 312.046L144.946 299.68C144.878 299.287 144.815 298.894 144.759 298.5L73.4748 308.624ZM126.47 198.105C86.9704 221.534 67.3923 265.797 73.4748 308.624L144.759 298.5C142.63 283.505 149.535 268.137 163.2 260.031L126.47 198.105Z" fill="#1E1C35" mask="url(#path-7-outside-2_73_1900)"/>
</g>
<defs>
<clipPath id="clip0_73_1900">
<rect width="575" height="575" fill="white"/>
</clipPath>
</defs>
</svg>
