<svg width="575" height="575" viewBox="0 0 575 575" fill="none" xmlns="http://www.w3.org/2000/svg">
<g clip-path="url(#clip0_73_1852)">
<path fill-rule="evenodd" clip-rule="evenodd" d="M227.537 130.757C301.979 101.401 385.676 125.554 423.506 191.077C465.539 263.88 513.05 447.793 412.795 505.676C312.539 563.558 177.022 430.456 134.988 357.652C105.709 306.939 111.63 244.821 144.847 196.246C124.302 171.324 116.648 128.111 116.648 128.111C116.648 128.111 132.109 158.066 175.376 148.033C180.802 146.831 186.333 146.397 191.814 146.717C176.814 126.993 168.441 102.806 172.322 76.9798C173.417 70.8501 176.817 65.372 181.824 61.6696C186.83 57.9673 193.063 56.3216 199.245 57.0705C205.427 57.8193 211.087 60.9057 215.064 65.6964C219.042 70.4871 221.036 76.6188 220.635 82.8326C218.574 89.388 217.602 96.2373 217.76 103.107C219.27 112.944 222.616 122.31 227.537 130.757Z" fill="#EF4723"/>
<path fill-rule="evenodd" clip-rule="evenodd" d="M175.376 148.033C176.844 147.707 178.32 147.438 179.801 147.225C183.792 146.651 187.817 146.483 191.814 146.716C183.408 135.663 177.083 123.208 173.83 109.848C173.371 107.964 172.974 106.062 172.64 104.144C172.422 102.891 172.231 101.632 172.069 100.366C171.74 97.8114 171.526 95.2299 171.432 92.6245C171.278 88.3738 171.445 84.0593 171.959 79.6946C172.065 78.7916 172.186 77.8865 172.323 76.9794C172.855 73.9994 173.932 71.1735 175.473 68.6307C177.103 65.943 179.251 63.5717 181.824 61.6692C186.831 57.9669 193.064 56.3212 199.245 57.07C205.427 57.8189 211.087 60.9053 215.065 65.6959C217.304 68.3927 218.914 71.5144 219.823 74.8364M116.648 128.111C62.258 137.744 62.2597 137.754 62.2615 137.764L62.2731 137.829L62.2914 137.931C62.3046 138.004 62.3198 138.088 62.3371 138.183C62.3718 138.373 62.4149 138.605 62.4666 138.877C62.5698 139.423 62.7077 140.133 62.8817 140.991C63.2292 142.705 63.7241 145.028 64.3798 147.831C65.6814 153.397 67.6665 161.071 70.4649 169.762C72.9033 177.335 76.3321 186.89 81.0527 197.031C53.8478 255.553 52.4588 325.18 87.152 385.27C112.254 428.749 162.328 486.443 220.993 526.344C277.267 564.62 361.465 599.093 440.413 553.512C519.361 507.931 531.606 417.777 526.596 349.905C521.372 279.148 496.445 206.936 471.343 163.458C429.872 91.6287 351.743 57.9083 274.021 63.9677C271.298 51.7357 265.701 40.2132 257.563 30.4106C244.57 14.7624 226.081 4.68001 205.888 2.23387C185.695 -0.2124 165.333 5.16402 148.981 17.2568C132.63 29.348 121.523 47.2408 117.946 67.2675C117.857 67.7673 117.774 68.2683 117.699 68.7703C117.493 70.1407 117.308 71.5066 117.144 72.8677C111.102 72.8127 104.966 73.7528 98.9646 75.7808C73.0951 84.523 57.4956 110.856 62.258 137.744L116.648 128.111ZM220.635 82.8322C220.495 83.2797 220.359 83.7286 220.228 84.1789ZM220.228 84.1789C220.104 84.6085 219.984 85.0394 219.868 85.4713ZM219.868 85.4713C218.335 91.2158 217.624 97.1536 217.76 103.107C217.776 103.21 217.792 103.314 217.808 103.417C218.085 105.17 218.419 106.907 218.81 108.627C219.912 113.468 221.463 118.168 223.432 122.671C224.645 125.445 226.016 128.145 227.537 130.756C232.595 128.762 237.695 127.014 242.821 125.51C313.14 104.873 388.247 130.005 423.506 191.076C465.539 263.88 513.05 447.793 412.795 505.675C312.54 563.558 177.022 430.455 134.989 357.652C107.212 309.541 111.115 251.166 139.951 203.828C141.51 201.267 143.143 198.739 144.848 196.246C124.302 171.323 116.648 128.111 116.648 128.111C116.648 128.111 119.065 132.792 124.66 137.833C133.11 145.448 148.811 153.884 174.391 148.255C174.718 148.183 175.046 148.109 175.376 148.033" fill="white"/>
<mask id="path-3-outside-1_73_1852" maskUnits="userSpaceOnUse" x="-31.2209" y="-61.2324" width="638.606" height="700.099" fill="black">
<rect fill="white" x="-31.2209" y="-61.2324" width="638.606" height="700.099"/>
<path fill-rule="evenodd" clip-rule="evenodd" d="M227.538 130.757C301.98 101.401 385.677 125.554 423.507 191.077C465.54 263.881 513.051 447.794 412.796 505.676C312.541 563.559 177.023 430.456 134.99 357.653C105.71 306.939 111.631 244.821 144.849 196.247C124.303 171.324 116.649 128.11 116.649 128.11C116.649 128.11 132.11 158.065 175.377 148.032C180.802 146.83 186.334 146.396 191.814 146.716C176.815 126.993 168.442 102.806 172.323 76.9799C173.418 70.8502 176.818 65.372 181.825 61.6697C186.831 57.9674 193.064 56.3217 199.246 57.0705C205.427 57.8194 211.088 60.9058 215.065 65.6965C219.043 70.4871 221.036 76.6188 220.636 82.8327C218.575 89.3881 217.603 96.2374 217.761 103.107C219.27 112.944 222.617 122.31 227.538 130.757Z"/>
</mask>
<path fill-rule="evenodd" clip-rule="evenodd" d="M227.538 130.757C301.98 101.401 385.677 125.554 423.507 191.077C465.54 263.881 513.051 447.794 412.796 505.676C312.541 563.559 177.023 430.456 134.99 357.653C105.71 306.939 111.631 244.821 144.849 196.247C124.303 171.324 116.649 128.11 116.649 128.11C116.649 128.11 132.11 158.065 175.377 148.032C180.802 146.83 186.334 146.396 191.814 146.716C176.815 126.993 168.442 102.806 172.323 76.9799C173.418 70.8502 176.818 65.372 181.825 61.6697C186.831 57.9674 193.064 56.3217 199.246 57.0705C205.427 57.8194 211.088 60.9058 215.065 65.6965C219.043 70.4871 221.036 76.6188 220.636 82.8327C218.575 89.3881 217.603 96.2374 217.761 103.107C219.27 112.944 222.617 122.31 227.538 130.757Z" fill="#EF4723"/>
<path d="M227.538 130.757L196.432 148.879C205.381 164.241 224.205 170.77 240.745 164.247L227.538 130.757ZM144.849 196.247L174.565 216.568C183.613 203.336 182.823 185.716 172.627 173.347L144.849 196.247ZM116.649 128.11L148.639 111.599C140.477 95.7848 121.984 88.3077 105.124 94.0052C88.2637 99.7028 78.097 116.865 81.2008 134.389L116.649 128.11ZM175.377 148.032L167.588 112.885C167.474 112.91 167.359 112.936 167.245 112.963L175.377 148.032ZM191.814 146.716L189.717 182.655C203.751 183.474 216.978 176.049 223.588 163.641C230.197 151.234 228.979 136.114 220.47 124.924L191.814 146.716ZM172.323 76.9799L136.884 70.6503C136.826 70.976 136.772 71.3025 136.723 71.6297L172.323 76.9799ZM181.825 61.6697L203.23 90.6149L203.23 90.6149L181.825 61.6697ZM199.246 57.0705L194.916 92.8093L194.916 92.8093L199.246 57.0705ZM215.065 65.6965L187.368 88.6932L187.368 88.6933L215.065 65.6965ZM220.636 82.8327L254.978 93.6317C255.844 90.8777 256.376 88.0294 256.561 85.1484L220.636 82.8327ZM217.761 103.107L181.77 103.934C181.806 105.486 181.942 107.034 182.177 108.568L217.761 103.107ZM454.684 173.077C406.627 89.8396 302.799 62.3798 214.331 97.2673L240.745 164.247C301.161 140.422 364.728 161.269 392.33 209.077L454.684 173.077ZM430.796 536.853C499.707 497.067 512.279 417.258 507.412 351.322C502.406 283.506 478.363 214.091 454.684 173.077L392.33 209.077C410.684 240.867 431.413 299.811 435.607 356.622C439.94 415.314 426.14 456.403 394.796 474.499L430.796 536.853ZM103.813 375.653C127.492 416.667 175.586 472.195 231.813 510.439C286.482 547.622 361.885 576.639 430.796 536.853L394.796 474.499C363.452 492.596 320.968 484.002 272.306 450.904C225.202 418.867 184.52 371.442 166.167 339.653L103.813 375.653ZM115.133 175.925C75.1621 234.375 66.7156 311.398 103.813 375.653L166.167 339.653C144.705 302.48 148.101 255.267 174.565 216.568L115.133 175.925ZM116.649 128.11C81.2008 134.389 81.2019 134.395 81.2031 134.402C81.2036 134.405 81.2048 134.411 81.2056 134.416C81.2073 134.426 81.2092 134.436 81.2112 134.447C81.2151 134.469 81.2196 134.494 81.2245 134.522C81.2344 134.577 81.2463 134.642 81.2603 134.718C81.2881 134.871 81.3241 135.065 81.3684 135.299C81.457 135.766 81.579 136.395 81.7358 137.169C82.0491 138.714 82.5038 140.85 83.112 143.45C84.322 148.624 86.1726 155.778 88.7769 163.866C93.7087 179.183 102.439 201.397 117.071 219.146L172.627 173.347C166.713 166.173 161.343 154.319 157.312 141.799C155.434 135.968 154.087 130.761 153.22 127.054C152.79 125.213 152.486 123.778 152.3 122.863C152.208 122.407 152.145 122.082 152.112 121.905C152.095 121.816 152.085 121.765 152.083 121.752C152.082 121.745 152.082 121.749 152.085 121.762C152.086 121.769 152.088 121.778 152.09 121.789C152.091 121.795 152.092 121.802 152.093 121.809C152.094 121.812 152.095 121.818 152.095 121.82C152.096 121.826 152.097 121.832 116.649 128.11ZM167.245 112.963C155.4 115.709 150.927 112.666 149.873 111.958C148.833 111.259 148.151 110.518 147.83 110.118C147.683 109.934 147.672 109.897 147.796 110.091C147.859 110.191 147.961 110.357 148.101 110.602C148.171 110.725 148.25 110.868 148.34 111.033C148.385 111.116 148.432 111.204 148.482 111.299C148.507 111.346 148.533 111.394 148.559 111.444C148.572 111.469 148.585 111.495 148.599 111.521C148.605 111.534 148.616 111.553 148.619 111.56C148.629 111.58 148.639 111.599 116.649 128.11C84.6587 144.622 84.6691 144.642 84.6795 144.662C84.6831 144.669 84.6937 144.689 84.7008 144.703C84.7152 144.731 84.7299 144.759 84.7449 144.787C84.7748 144.845 84.8061 144.904 84.8386 144.966C84.9037 145.089 84.9739 145.22 85.0494 145.359C85.2002 145.637 85.3722 145.947 85.566 146.287C85.9531 146.965 86.4295 147.765 87.0002 148.665C88.1378 150.458 89.6731 152.683 91.6516 155.151C95.5819 160.054 101.469 166.174 109.702 171.71C127.196 183.471 152.086 190.388 183.509 183.102L167.245 112.963ZM193.911 110.777C185.135 110.265 176.276 110.96 167.588 112.885L183.165 183.18C185.329 182.7 187.533 182.528 189.717 182.655L193.911 110.777ZM220.47 124.924C210.106 111.297 205.767 96.6774 207.923 82.33L136.723 71.6297C131.117 108.934 143.524 142.688 163.159 168.508L220.47 124.924ZM207.762 83.3095C207.239 86.2369 205.616 88.8499 203.23 90.6149L160.42 32.7245C148.02 41.8942 139.596 55.4634 136.884 70.6503L207.762 83.3095ZM203.23 90.6149C200.842 92.3809 197.867 93.1667 194.916 92.8093L203.575 21.3318C188.262 19.4767 172.821 23.5539 160.42 32.7245L203.23 90.6149ZM194.916 92.8093C191.967 92.4519 189.265 90.9789 187.368 88.6932L242.763 42.6997C232.91 30.8327 218.888 23.1869 203.575 21.3318L194.916 92.8093ZM187.368 88.6933C185.471 86.409 184.519 83.4841 184.71 80.517L256.561 85.1484C257.554 69.7536 252.614 54.5653 242.763 42.6997L187.368 88.6933ZM186.294 72.0336C183.051 82.347 181.522 93.1238 181.77 103.934L253.751 102.281C253.684 99.351 254.098 96.4292 254.978 93.6317L186.294 72.0336ZM182.177 108.568C184.378 122.909 189.258 136.565 196.432 148.879L258.644 112.636C255.976 108.056 254.163 102.98 253.344 97.6469L182.177 108.568Z" fill="#1E1C35" mask="url(#path-3-outside-1_73_1852)"/>
<path d="M423.506 191.077C465.539 263.881 513.05 447.794 412.795 505.676C312.54 563.558 177.022 430.456 134.989 357.653C92.9555 284.849 123.468 188.541 203.139 142.542C282.811 96.5438 381.473 118.274 423.506 191.077Z" fill="#EF4723"/>
<path d="M255.523 200.979C247.356 207.596 238.197 212.884 228.383 216.648L142.188 249.709C136.035 252.069 134.895 260.281 140.174 264.218L163.43 281.561C168.245 285.151 167.81 292.498 162.604 295.503L148.202 303.818C141.793 307.518 142.985 317.098 150.104 319.105L173.543 325.715C178.729 327.177 181.194 333.087 178.587 337.803L169.079 354.994C165.975 360.607 170.082 367.474 176.495 367.396L197.649 367.136C202.222 367.08 205.989 370.705 206.107 375.274L206.683 397.541C206.827 403.1 212.261 406.969 217.566 405.288L232.967 400.412C237.651 398.928 242.597 401.779 243.656 406.573L250.454 437.341C251.673 442.858 257.905 445.598 262.802 442.771L275.647 435.355C279.954 432.868 285.465 434.662 287.477 439.206L302.619 473.409C304.99 478.766 311.998 480.082 316.16 475.952L320.169 471.973C324.065 468.107 330.564 468.971 333.306 473.721L342.946 490.416C345.881 495.5 353.01 496.052 356.7 491.48L361.445 485.602C365.135 481.031 372.264 481.582 375.199 486.666L380.027 495.029C383.214 500.549 391.164 500.611 394.446 495.142L400.979 484.255L413.675 484.04C420.052 483.933 423.973 477.017 420.786 471.497L415.958 463.134C413.023 458.05 416.109 451.601 421.914 450.691L429.376 449.52C435.181 448.61 438.267 442.161 435.332 437.077L425.693 420.381C422.951 415.632 425.452 409.571 430.748 408.13L436.198 406.648C441.856 405.109 444.221 398.382 440.767 393.649L418.717 363.434C415.788 359.42 416.99 353.751 421.297 351.264L434.142 343.848C439.039 341.02 439.782 334.254 435.613 330.439L412.366 309.168C408.744 305.854 408.748 300.145 412.375 296.83L424.299 285.931C428.407 282.177 427.774 275.537 423.031 272.632L404.036 261C400.138 258.613 398.882 253.538 401.217 249.606L412.018 231.416C415.293 225.902 411.399 218.911 404.986 218.793L385.345 218.431C379.957 218.332 376.071 213.241 377.398 208.02L383.393 184.416C385.214 177.247 377.514 171.425 371.106 175.125L356.703 183.44C351.497 186.446 344.918 183.149 344.216 177.184L340.824 148.373C340.054 141.832 332.373 138.714 327.252 142.862L255.523 200.979Z" fill="#FFC3C3"/>
<path fill-rule="evenodd" clip-rule="evenodd" d="M227.399 238.701C209.689 242.05 192.71 245.262 183.36 275.728C169.549 320.734 333.549 484.166 382.462 455.926C382.803 455.729 383.135 455.523 383.457 455.308C383.807 455.135 384.155 454.95 384.499 454.75C433.413 426.51 373.876 202.766 327.994 192.224C296.935 185.088 285.665 198.186 273.909 211.849C268.298 218.369 262.577 225.018 254.542 229.657C254.203 229.853 253.888 230.091 253.597 230.369C253.209 230.482 252.845 230.636 252.504 230.833C244.469 235.472 235.851 237.102 227.399 238.701Z" fill="#FF838D"/>
<path d="M239.852 176.007C233.427 165.141 223.731 156.585 212.151 151.561C200.571 146.537 187.7 145.303 175.376 148.033C132.109 158.067 116.648 128.112 116.648 128.112C116.648 128.112 134.139 226.862 187.215 211.899C240.29 196.937 239.852 176.007 239.852 176.007Z" fill="#08A034"/>
<path d="M230.061 180.005C193.985 159.293 165.787 120.461 172.322 76.9816C173.416 70.8519 176.817 65.3738 181.823 61.6715C186.83 57.9691 193.063 56.3235 199.244 57.0723C205.426 57.8211 211.086 60.9075 215.064 65.6982C219.041 70.4889 221.035 76.6206 220.634 82.8344C218.573 89.3899 217.601 96.2392 217.759 103.109C220.802 122.937 231.308 140.852 247.129 153.185L248.117 169.031C248.224 171.192 247.745 173.342 246.731 175.254C245.717 177.166 244.206 178.769 242.357 179.894C240.507 181.018 238.387 181.621 236.223 181.641C234.058 181.66 231.93 181.096 230.061 180.005Z" fill="#24B74F"/>
<path opacity="0.4" fill-rule="evenodd" clip-rule="evenodd" d="M413.346 175.856C473.326 299.993 462.922 429.201 385.579 473.855C337.201 501.786 273.268 490.495 213.197 450.218C272.197 502.665 349.519 542.211 412.795 505.679C513.05 447.796 465.539 263.883 423.506 191.08C420.415 185.727 417.019 180.65 413.346 175.856Z" fill="#641814"/>
</g>
<defs>
<clipPath id="clip0_73_1852">
<rect width="575" height="575" fill="white"/>
</clipPath>
</defs>
</svg>
