<svg width="575" height="575" viewBox="0 0 575 575" fill="none" xmlns="http://www.w3.org/2000/svg">
<g clip-path="url(#clip0_73_1876)">
<path fill-rule="evenodd" clip-rule="evenodd" d="M153.988 63.6435C150.21 59.8659 144.105 59.744 140.328 63.5215V63.5215C37.285 166.564 37.285 333.63 140.328 436.673C243.371 539.715 410.436 539.715 513.479 436.673V436.673C517.256 432.895 517.134 426.79 513.357 423.013L153.988 63.6435Z" fill="#EC2A4B"/>
<path fill-rule="evenodd" clip-rule="evenodd" d="M98.9517 478.048C-26.9424 352.154 -26.9424 148.039 98.9517 22.1453C126.537 -5.44022 169.703 -3.39334 195.364 22.2672L554.733 381.636C580.393 407.297 582.44 450.463 554.855 478.048C428.961 603.943 224.846 603.943 98.9517 478.048ZM140.328 63.5214C144.105 59.7438 150.21 59.8657 153.988 63.6433L513.357 423.013C517.134 426.79 517.256 432.895 513.479 436.672C410.436 539.715 243.371 539.715 140.328 436.672C37.285 333.63 37.285 166.564 140.328 63.5214Z" fill="white"/>
<mask id="path-3-outside-1_73_1876" maskUnits="userSpaceOnUse" x="-97.3607" y="5.23673" width="668.923" height="668.923" fill="black">
<rect fill="white" x="-97.3607" y="5.23673" width="668.923" height="668.923"/>
<path fill-rule="evenodd" clip-rule="evenodd" d="M153.986 63.6435C150.209 59.8662 144.105 59.7443 140.328 63.5216V63.5216C37.285 166.564 37.285 333.63 140.328 436.673C243.371 539.715 410.436 539.715 513.479 436.673V436.673C517.256 432.895 517.134 426.791 513.357 423.014L153.986 63.6435Z"/>
</mask>
<path fill-rule="evenodd" clip-rule="evenodd" d="M153.986 63.6435C150.209 59.8662 144.105 59.7443 140.328 63.5216V63.5216C37.285 166.564 37.285 333.63 140.328 436.673C243.371 539.715 410.436 539.715 513.479 436.673V436.673C517.256 432.895 517.134 426.791 513.357 423.014L153.986 63.6435Z" fill="#EF4723"/>
<path d="M165.784 411.217C76.7997 322.233 76.7997 177.961 165.784 88.9774L114.872 38.0657C-2.2297 155.167 -2.22969 345.027 114.872 462.128L165.784 411.217ZM488.023 411.217C399.039 500.201 254.768 500.201 165.784 411.217L114.872 462.128C231.974 579.23 421.833 579.23 538.935 462.128L488.023 411.217ZM538.813 397.558L179.442 38.1876L128.531 89.0993L487.901 448.47L538.813 397.558ZM538.935 462.128C557.359 443.704 556.053 414.798 538.813 397.558L487.901 448.47C478.215 438.784 477.153 422.087 488.023 411.217L538.935 462.128ZM165.784 88.9774C154.913 99.8477 138.216 98.785 128.531 89.0993L179.442 38.1876C162.202 20.9475 133.297 19.641 114.872 38.0657L165.784 88.9774Z" fill="#1E1C35" mask="url(#path-3-outside-1_73_1876)"/>
<path fill-rule="evenodd" clip-rule="evenodd" d="M172.694 82.3491C170.357 84.501 168.054 86.7106 165.786 88.9781C76.8021 177.962 76.8022 322.234 165.786 411.217C254.77 500.201 399.041 500.201 488.025 411.217C490.293 408.95 492.503 406.647 494.654 404.31L513.359 423.015C517.137 426.792 517.259 432.896 513.481 436.673C410.438 539.716 243.373 539.716 140.33 436.673C37.2874 333.631 37.2874 166.565 140.33 63.5223C144.108 59.745 150.212 59.8669 153.989 63.6442L172.694 82.3491Z" fill="#24B74F"/>
<g style="mix-blend-mode:multiply">
<path d="M236.021 367.801C228.381 375.44 216.014 375.458 208.396 367.841C200.779 360.224 200.797 347.856 208.437 340.217C216.076 332.577 238.324 322.679 245.941 330.296C253.559 337.913 243.66 360.161 236.021 367.801Z" fill="#8B8B8B"/>
</g>
<g style="mix-blend-mode:multiply">
<path d="M327 379.474C327 390.258 318.27 399 307.5 399C296.73 399 288 390.258 288 379.474C288 368.69 296.73 346 307.5 346C318.27 346 327 368.69 327 379.474Z" fill="#8B8B8B"/>
</g>
<g style="mix-blend-mode:multiply">
<path d="M400.034 359.154C405.436 368.511 402.252 380.462 392.923 385.848C383.594 391.234 371.653 388.015 366.251 378.659C360.849 369.303 357.046 345.251 366.375 339.865C375.704 334.479 394.632 349.798 400.034 359.154Z" fill="#8B8B8B"/>
</g>
<g style="mix-blend-mode:multiply">
<path d="M217.848 176.967C208.491 171.565 196.54 174.749 191.154 184.078C185.768 193.407 188.987 205.348 198.343 210.75C207.699 216.152 231.751 219.955 237.137 210.626C242.523 201.297 227.204 182.369 217.848 176.967Z" fill="#8B8B8B"/>
</g>
<g style="mix-blend-mode:multiply">
<path d="M193.526 292C182.742 292 174 283.27 174 272.5C174 261.73 182.742 253 193.526 253C204.31 253 227 261.73 227 272.5C227 283.27 204.31 292 193.526 292Z" fill="#8B8B8B"/>
</g>
</g>
<defs>
<clipPath id="clip0_73_1876">
<rect width="575" height="575" fill="white"/>
</clipPath>
</defs>
</svg>
