<svg width="80" height="80" viewBox="0 0 80 80" fill="none" xmlns="http://www.w3.org/2000/svg">
<path d="M49.4737 9.47368C49.4737 14.7059 43.1579 40 40.0001 40C36.8422 40 30.5264 14.7059 30.5264 9.47368C30.5264 4.24151 34.7679 0 40.0001 0C45.2322 0 49.4737 4.24151 49.4737 9.47368Z" fill="#8FFF00"/>
<path d="M30.5263 70.5263C30.5263 65.2941 36.8421 40 40 40C43.1578 40 49.4736 65.2941 49.4736 70.5263C49.4736 75.7585 45.2321 80 39.9999 80C34.7678 80 30.5263 75.7585 30.5263 70.5263Z" fill="#8FFF00"/>
<path d="M70.5263 49.4708C65.2941 49.4708 40 43.155 40 39.9971C40 36.8392 65.2941 30.5234 70.5263 30.5234C75.7585 30.5234 80 34.765 80 39.9971C80 45.2293 75.7585 49.4708 70.5263 49.4708Z" fill="#8FFF00"/>
<path d="M9.47369 30.5292C14.7059 30.5292 40 36.845 40 40.0029C40 43.1608 14.7059 49.4766 9.47368 49.4766C4.24151 49.4766 5.56207e-07 45.235 1.24232e-06 40.0029C1.92844e-06 34.7707 4.24152 30.5292 9.47369 30.5292Z" fill="#8FFF00"/>
<path d="M68.2839 25.1123C64.5842 28.812 42.2326 42.2318 39.9996 39.9988C37.7666 37.7658 51.1864 15.4142 54.8861 11.7145C58.5858 8.01483 64.5842 8.01483 68.2839 11.7145C71.9836 15.4142 71.9836 21.4126 68.2839 25.1123Z" fill="#8FFF00"/>
<path d="M11.7161 54.8877C15.4158 51.188 37.7674 37.7682 40.0004 40.0012C42.2334 42.2342 28.8137 64.5858 25.1139 68.2855C21.4142 71.9852 15.4158 71.9852 11.7161 68.2855C8.01643 64.5858 8.01643 58.5874 11.7161 54.8877Z" fill="#8FFF00"/>
<path d="M54.8867 68.277C51.187 64.5773 37.7673 42.2257 40.0002 39.9928C42.2332 37.7598 64.5848 51.1795 68.2845 54.8792C71.9842 58.5789 71.9842 64.5773 68.2845 68.277C64.5848 71.9767 58.5864 71.9767 54.8867 68.277Z" fill="#8FFF00"/>
<path d="M25.1133 11.723C28.813 15.4227 42.2327 37.7743 39.9998 40.0072C37.7668 42.2402 15.4152 28.8205 11.7155 25.1208C8.0158 21.4211 8.0158 15.4227 11.7155 11.723C15.4152 8.02327 21.4136 8.02327 25.1133 11.723Z" fill="#8FFF00"/>
</svg>
