<svg width="62" height="60" viewBox="0 0 62 60" fill="none" xmlns="http://www.w3.org/2000/svg">
<path d="M56.0843 11.258C53.2295 9.87202 50.1145 9.1035 46.9426 9.00253C46.1934 8.97959 45.4435 8.99483 44.6958 9.0482C44.574 9.05677 44.4531 9.06723 44.3313 9.0777H44.3189C44.1981 9.08817 44.0772 9.09959 43.9573 9.11291C43.345 9.17635 42.7388 9.26518 42.1387 9.37938L42.1044 9.38605C41.9997 9.40603 41.8941 9.42696 41.7894 9.44885L41.738 9.45932C41.6371 9.48025 41.5353 9.50215 41.4344 9.52499L41.384 9.53545L41.0671 9.60969L41.0366 9.61634C40.6845 9.70199 40.3356 9.79526 39.9898 9.89614L39.9479 9.90946C39.8528 9.93801 39.7576 9.96656 39.6567 9.99701L39.5768 10.0218L39.3236 10.1026L39.2285 10.1341L38.9877 10.2149L38.8925 10.2482L38.6499 10.3349L38.5614 10.3663C38.4662 10.3996 38.3796 10.4338 38.2901 10.4681L38.234 10.489C38.0151 10.5728 37.7978 10.66 37.5821 10.7507L37.4917 10.7888L37.2643 10.884L37.151 10.9334L36.9483 11.0286L36.8265 11.0848L36.6362 11.1752L36.5134 11.2342L36.3183 11.3293L36.2012 11.3864L35.9919 11.493L35.8967 11.5435L35.5912 11.7043C35.2068 11.9118 34.8283 12.1294 34.4559 12.3571L16.4695 22.6931C9.26537 26.3409 4.03125 33.76 4.03125 42.8988L8.86094 45.5007L13.8371 48.3357L18.7534 51.2183L23.5879 54.0733L28.5575 56.9102V56.953L38.3729 51.3296L57.9915 40.0924V17.4752L38.3653 28.7086L57.9838 17.4723V12.1763L56.0843 11.258Z" fill="#276FD2"/>
<path d="M28.5489 60.0029C28.0112 60.003 27.483 59.8612 27.0177 59.5918C26.8867 59.5153 26.7614 59.4294 26.6427 59.3348L22.0662 56.7216L22.0281 56.7006L12.3012 50.9792L7.37249 48.1728L2.57519 45.588C2.08991 45.3265 1.68443 44.9385 1.40179 44.4652C1.11914 43.9919 0.969846 43.4509 0.969727 42.8996C0.969727 33.1926 6.3466 24.4278 15.0077 20.0074L32.8847 9.7294C33.2939 9.47911 33.7136 9.23834 34.1333 9.01279C34.2465 8.95189 34.3626 8.89098 34.4787 8.83102L34.5558 8.79106L34.591 8.77297L36.3878 7.93741C36.6419 7.83082 36.8883 7.73186 37.1367 7.63669L37.19 7.6167C37.3014 7.57483 37.4032 7.53581 37.505 7.49869L38.7536 7.07807C38.8564 7.04571 38.9668 7.0124 39.0762 6.9829L39.1457 6.96291C39.5197 6.85347 39.9203 6.74594 40.3172 6.65077C40.4704 6.61366 40.5894 6.58606 40.7093 6.5556L40.7464 6.54703C40.8805 6.51753 40.9967 6.49184 41.1137 6.46805L41.1927 6.45186C41.2879 6.43188 41.4116 6.40714 41.5325 6.3843C42.251 6.24916 42.9457 6.14638 43.6337 6.07406H43.6527C43.785 6.05978 43.9183 6.04741 44.0515 6.03504C44.2019 6.02171 44.337 6.01125 44.4769 6.00078C45.3248 5.94082 46.1899 5.9237 47.0359 5.94844C50.6351 6.06079 54.17 6.93219 57.4091 8.50556L59.3057 9.41915C59.8236 9.66826 60.2607 10.0585 60.5666 10.5451C60.8725 11.0317 61.0349 11.5947 61.0349 12.1695V40.0865C61.0348 40.6242 60.8927 41.1524 60.623 41.6177C60.3533 42.0829 59.9655 42.4686 59.4989 42.7359L30.0658 59.5965C29.6043 59.8619 29.0813 60.002 28.5489 60.0029ZM25.1125 51.4303L28.5832 53.4117L54.9299 38.3192V22.7396L39.8823 31.3588C39.4182 31.6237 38.8928 31.7624 38.3585 31.7609C37.8241 31.7594 37.2995 31.6178 36.837 31.3502C36.3739 31.0822 35.9894 30.6971 35.7222 30.2336C35.4549 29.7701 35.3143 29.2444 35.3143 28.7094C35.3143 28.1711 35.4563 27.6423 35.726 27.1765C35.9956 26.7106 36.3835 26.3242 36.8503 26.0561L54.9318 15.6982V14.0918L54.7634 14.0109C52.294 12.8097 49.5988 12.1432 46.8541 12.0553C46.2077 12.0362 45.5607 12.0495 44.9156 12.0952C44.81 12.1028 44.7043 12.1114 44.5997 12.1209C44.495 12.1304 44.3817 12.1409 44.2789 12.1514H44.2618C43.7422 12.2056 43.215 12.2837 42.703 12.3807C42.5812 12.4036 42.4927 12.4216 42.4032 12.4397L41.737 9.46007L42.3575 12.4492L42.0996 12.5044L41.3831 9.53621L42.054 12.5149L41.778 12.5787C41.4497 12.6577 41.1451 12.7395 40.8453 12.8271L39.3722 13.3229C39.3664 13.3229 39.337 13.3352 39.3313 13.3371C39.1333 13.4133 38.9449 13.4894 38.7603 13.5674L37.328 14.2336L37.2937 14.2507C37.2062 14.2964 37.1186 14.3459 37.032 14.3897C36.698 14.5686 36.3659 14.7589 36.0442 14.9607C36.0195 14.9759 35.9947 14.9911 35.969 15.0054L17.9883 25.3405C17.9414 25.3671 17.8938 25.3928 17.8456 25.4176C11.7416 28.5086 7.75794 34.4193 7.16125 41.12L10.3065 42.814L10.3693 42.8492L15.336 45.687L15.3693 45.707L25.1125 51.4303Z" fill="#1E1C35"/>
<path d="M56.0837 11.2584C49.1023 7.89904 41.6042 8.46433 35.5764 11.7047C35.1919 11.9122 34.8134 12.1298 34.441 12.3576L14.3467 23.9079L25.0576 23.6909C24.1123 26.2376 23.632 28.9333 23.6397 31.6497L28.4684 34.2515C28.4684 30.2051 29.6475 26.5678 31.6241 23.5586L38.3647 23.4178L52.633 15.2459C54.45 15.6988 56.1934 16.4076 57.811 17.351L57.9833 17.4461V12.1634L56.0837 11.2584Z" fill="#2465BF"/>
<path d="M38.3633 51.3297L28.5479 56.954V51.1165L38.3633 45.4922V51.3297Z" fill="#731313"/>
<path d="M57.9828 40.0875L38.3643 51.3238V45.4863L57.9828 34.25V40.0875Z" fill="#B81A19"/>
<path d="M57.9828 34.2611L38.3643 45.4983V39.7997L57.9828 28.5625V34.2611Z" fill="#BE621B"/>
<path d="M57.9828 28.5846L38.3643 39.8219V34.1357L57.9828 22.8984V28.5846Z" fill="#BDAC1A"/>
<path d="M57.9828 22.8894L38.3643 34.1267V28.705L57.9828 17.4688V22.8894Z" fill="#1DA24E"/>
<path d="M57.9828 17.4624L38.3643 28.6996V23.4169L57.9828 12.1797V17.4624Z" fill="#1F5AAC"/>
<path d="M28.5479 56.9072L28.5822 55.4863C28.6849 51.1534 33.3728 48.4973 37.1471 50.6328L38.3671 51.3247V45.4996L35.7729 44.3271C30.5016 41.948 24.4481 45.4358 23.8714 51.1905L23.5859 54.0683L28.5479 56.9072Z" fill="#EB2221"/>
<path d="M37.1331 39.2669C28.4854 35.4232 18.7441 41.7536 18.7441 51.217L23.5786 54.072C23.5779 53.4008 23.6449 52.7312 23.7785 52.0735L23.8679 51.1913C24.4446 45.4366 30.4982 41.9449 35.7694 44.3279L38.3636 45.5003V39.8151L37.1331 39.2669Z" fill="#EA7921"/>
<path d="M36.5177 33.3459C25.7639 28.7637 13.8281 36.652 13.8281 48.3394L18.7444 51.222C18.7444 41.7586 28.4856 35.4244 37.1334 39.2719L38.3639 39.8192V34.133L36.5177 33.3459Z" fill="#DBC61D"/>
<path d="M35.5776 11.7067C35.1931 11.9141 34.8147 12.1317 34.4423 12.3595L16.1123 22.8954H22.6921L46.9433 9.00109C42.9829 8.88986 39.0631 9.82298 35.5776 11.7067Z" fill="#2459A9"/>
<path d="M24.6963 40.2578C24.4767 40.4004 24.2609 40.5496 24.0508 40.7046C24.2609 40.5515 24.4767 40.4004 24.6963 40.2578Z" fill="#24DA2C"/>
<path d="M38.1933 28.6059C25.1698 21.0478 8.85254 30.4446 8.85254 45.5018L13.8288 48.3368C13.8288 36.6494 25.7664 28.7611 36.5183 33.3433L38.3645 34.1303V28.7059L38.1933 28.6059Z" fill="#24DA2C"/>
<path d="M36.4675 22.5024C21.4426 15.2698 4.02246 26.2139 4.02246 42.8928L8.85215 45.4946C8.85215 30.4374 25.1694 21.0369 38.1929 28.5988L38.3642 28.6939V23.4113L36.4675 22.5024Z" fill="#276FD2"/>
<path d="M10.8062 3.40389L12.2289 6.28742C12.275 6.38044 12.3431 6.4609 12.4271 6.5219C12.5111 6.58289 12.6087 6.6226 12.7114 6.63764L15.8928 7.10014C16.0111 7.11732 16.1222 7.16724 16.2136 7.24428C16.305 7.32131 16.373 7.42239 16.4099 7.53606C16.4468 7.64973 16.4512 7.77146 16.4226 7.8875C16.3939 8.00353 16.3334 8.10923 16.2478 8.19265L13.9457 10.4367C13.8705 10.5094 13.8144 10.5995 13.7823 10.6992C13.7503 10.7988 13.7433 10.9047 13.7621 11.0077L14.3055 14.1767C14.3256 14.2945 14.3124 14.4156 14.2673 14.5263C14.2222 14.637 14.1471 14.7329 14.0503 14.8031C13.9536 14.8733 13.8391 14.9151 13.7199 14.9236C13.6007 14.9321 13.4815 14.9071 13.3757 14.8514L10.5302 13.3554C10.4383 13.3072 10.3361 13.2819 10.2323 13.2819C10.1286 13.2819 10.0263 13.3072 9.93447 13.3554L7.08803 14.8514C6.98233 14.9073 6.86312 14.9324 6.74389 14.9239C6.62465 14.9154 6.51017 14.8736 6.41346 14.8034C6.31674 14.7331 6.24167 14.6372 6.19673 14.5264C6.15179 14.4156 6.13881 14.2945 6.15923 14.1767L6.70263 11.0077C6.72091 10.9047 6.71362 10.7987 6.68144 10.6992C6.64925 10.5996 6.59314 10.5095 6.51801 10.4367L4.21594 8.19265C4.13034 8.10923 4.06978 8.00353 4.04113 7.8875C4.01248 7.77146 4.01688 7.64973 4.05382 7.53606C4.09075 7.42239 4.15876 7.32131 4.25014 7.24428C4.34152 7.16724 4.45263 7.11732 4.57091 7.10014L7.75229 6.63764C7.85506 6.62268 7.95268 6.58299 8.03672 6.52199C8.12076 6.46099 8.18875 6.38049 8.23481 6.28742L9.65752 3.40389C9.71041 3.29672 9.79222 3.20649 9.89372 3.1434C9.99521 3.08031 10.1124 3.04688 10.2319 3.04688C10.3514 3.04688 10.4685 3.08031 10.57 3.1434C10.6715 3.20649 10.7533 3.29672 10.8062 3.40389Z" fill="white"/>
<path d="M10.2327 3.05296C10.3518 3.05256 10.4686 3.08586 10.5697 3.14901C10.6707 3.21215 10.7518 3.30257 10.8037 3.40983L12.2264 6.29337C12.2726 6.3864 12.3405 6.46684 12.4246 6.52784C12.5086 6.58883 12.6062 6.62855 12.7089 6.64358L15.8903 7.10608C16.0086 7.12326 16.1197 7.17319 16.2111 7.25023C16.3025 7.32726 16.3705 7.42833 16.4074 7.542C16.4444 7.65567 16.4488 7.7774 16.4201 7.89344C16.3915 8.00947 16.3309 8.11518 16.2453 8.19859L13.9432 10.4426C13.8681 10.5154 13.8119 10.6056 13.7798 10.7051C13.7476 10.8047 13.7403 10.9106 13.7586 11.0136L14.3029 14.1826C14.3186 14.2747 14.314 14.369 14.2894 14.4591C14.2649 14.5491 14.221 14.6327 14.1609 14.7041C14.1007 14.7755 14.0257 14.8329 13.9411 14.8724C13.8565 14.9118 13.7644 14.9324 13.671 14.9326C13.567 14.9325 13.4647 14.9067 13.3732 14.8574L10.5277 13.3614C10.4357 13.3134 10.3336 13.2883 10.2298 13.2881C10.1261 13.2882 10.0239 13.3133 9.93198 13.3614L7.08554 14.8574C6.99403 14.9068 6.89168 14.9326 6.78768 14.9326C6.69437 14.9324 6.60222 14.9119 6.51766 14.8724C6.4331 14.8329 6.35817 14.7755 6.2981 14.7041C6.23802 14.6327 6.19422 14.549 6.1698 14.459C6.14538 14.3689 6.14091 14.2746 6.15669 14.1826L6.70009 11.0136C6.71837 10.9106 6.71114 10.8047 6.67895 10.7051C6.64676 10.6056 6.59061 10.5154 6.51547 10.4426L4.21341 8.19859C4.12781 8.11518 4.06729 8.00947 4.03864 7.89344C4.00999 7.7774 4.01435 7.65567 4.05128 7.542C4.08821 7.42833 4.15622 7.32726 4.24761 7.25023C4.33899 7.17319 4.45009 7.12326 4.56837 7.10608L7.7498 6.64358C7.85257 6.62862 7.95014 6.58894 8.03418 6.52794C8.11823 6.46694 8.18621 6.38645 8.23228 6.29337L9.65503 3.40983C9.70707 3.30271 9.78824 3.21241 9.88923 3.1493C9.99022 3.08618 10.1069 3.05279 10.226 3.05296M10.226 2.64858e-05C9.53626 -0.0025927 8.8597 0.189097 8.27382 0.553146C7.68794 0.917195 7.21643 1.43889 6.91329 2.05847L6.05679 3.80477L4.1306 4.08456C3.44769 4.18106 2.80582 4.46802 2.27848 4.91254C1.75115 5.35707 1.35974 5.94116 1.14908 6.5979C0.933282 7.25312 0.906467 7.95589 1.07176 8.62563C1.23705 9.29538 1.58773 9.90499 2.0836 10.3846L3.47777 11.7435L3.1485 13.6621C3.05693 14.1916 3.08229 14.7348 3.22285 15.2534C3.36341 15.7721 3.61579 16.2538 3.9622 16.6646C4.30882 17.0768 4.7414 17.4083 5.22966 17.6356C5.71792 17.863 6.25001 17.9808 6.78861 17.9807C7.38749 17.98 7.97726 17.8341 8.50732 17.5553L10.2308 16.6494L11.9533 17.5553C12.4834 17.834 13.0731 17.9799 13.672 17.9807C14.2106 17.9809 14.7428 17.8632 15.231 17.6358C15.7193 17.4084 16.1519 17.0769 16.4985 16.6646C16.845 16.2538 17.0975 15.7722 17.2382 15.2535C17.3789 14.7349 17.4045 14.1917 17.313 13.6621L16.9838 11.7435L18.377 10.3846C18.8728 9.90496 19.2236 9.29539 19.389 8.62569C19.5545 7.95599 19.528 7.25323 19.3125 6.5979C19.1017 5.94122 18.7103 5.35718 18.183 4.91267C17.6556 4.46817 17.0138 4.18117 16.3309 4.08456L14.4038 3.80477L13.5473 2.05847C13.2443 1.43896 12.773 0.917302 12.1873 0.55325C11.6016 0.189199 10.9252 -0.00252578 10.2356 2.64858e-05H10.226Z" fill="#1E1C35"/>
</svg>
