<svg width="28" height="28" viewBox="0 0 28 28" fill="none" xmlns="http://www.w3.org/2000/svg">
<path d="M4.54235 25.7418L25.7389 4.54529C26.5751 3.70911 26.5751 2.35339 25.7389 1.51721C24.9027 0.681031 23.547 0.68103 22.7108 1.51721L1.51427 22.7138C0.678091 23.5499 0.67809 24.9056 1.51427 25.7418C2.35045 26.578 3.70617 26.578 4.54235 25.7418Z" fill="white"/>
<path d="M25.7389 22.7106L4.54236 1.51404C3.70618 0.677858 2.35046 0.677858 1.51428 1.51404C0.678101 2.35022 0.678101 3.70594 1.51428 4.54212L22.7108 25.7387C23.547 26.5748 24.9027 26.5748 25.7389 25.7387C26.5751 24.9025 26.5751 23.5468 25.7389 22.7106Z" fill="white"/>
</svg>
